<!-- Generator: Adobe Illustrator 19.1.0, SVG Export Plug-In  -->
<svg version="1.1"
	 xmlns="http://www.w3.org/2000/svg" xmlns:xlink="http://www.w3.org/1999/xlink" xmlns:a="http://ns.adobe.com/AdobeSVGViewerExtensions/3.0/"
	 x="0px" y="0px" width="77px" height="80px" viewBox="0 0 77 80" enable-background="new 0 0 77 80" xml:space="preserve">
<defs>
</defs>
<g id="Footer_copia">
	<g>
		<path fill="#DCDCDA" d="M77,0h-1.5L55.8,40.1L53.9,0h-1.8L15.9,27.3L17.4,0h-1.3l-1.5,27.4L0,17.3v1.6l13.9,9.6L0,35.2v1.5l14.5-7
			l-2.7,38.5L0,61.1v1.6l9.8,6L0,68.4v1.3L10.7,70l-6.5,6.1l-4.2-1v1.4l4,1l0.3,0.3l0.4-0.3l35.8-8.8l0.3,0l0.1-0.3l27-29.9l0.5-0.2
			l-0.2-0.4l8.6-37.7L77,0z M52.6,1.3l1.9,40.4L16.6,28.4L52.6,1.3z M15.8,29.5l37.9,13.3L13.1,68.2L15.8,29.5z M6.7,75.6l5.9-5.6
			l0.4,0l0,0l20.6-1L6.7,75.6z M40,67.4l-25.2,1.2l38.4-23.9L40,67.4z M44.3,62.8l11.4-19.6l9.5-3.7L44.3,62.8z M67,37.5l-10.4,4
			l17.8-36L67,37.5z"/>
		<g>
			<circle fill="#DCDCDA" cx="15.2" cy="28.6" r="3.1"/>
		</g>
		<g>
			<circle fill="#DCDCDA" cx="55.2" cy="42.7" r="3.1"/>
		</g>
		<g>
			<circle fill="#DCDCDA" cx="67.6" cy="38" r="3.1"/>
		</g>
		<g>
			<circle fill="#DCDCDA" cx="40.4" cy="68" r="3.1"/>
		</g>
		<g>
			<circle fill="#DCDCDA" cx="12.3" cy="69.4" r="3.1"/>
		</g>
		<g>
			<circle fill="#DCDCDA" cx="4.4" cy="76.9" r="3.1"/>
		</g>
	</g>
</g>
</svg>
