<!-- Generator: Adobe Illustrator 19.1.0, SVG Export Plug-In  -->
<svg version="1.1"
	 xmlns="http://www.w3.org/2000/svg" xmlns:xlink="http://www.w3.org/1999/xlink" xmlns:a="http://ns.adobe.com/AdobeSVGViewerExtensions/3.0/"
	 x="0px" y="0px" width="185.8px" height="59.8px" viewBox="0 0 185.8 59.8" enable-background="new 0 0 185.8 59.8"
	 xml:space="preserve">
<defs>
</defs>
<g>
	<path fill="#3278E6" d="M64.3,25.5c-0.3-1.8-2-3.2-4-3.2c-3.6,0-4.9,3-4.9,6.2c0,3,1.3,6.1,4.9,6.1c2.4,0,3.8-1.7,4.1-4.1h3.9
		c-0.4,4.5-3.5,7.4-8,7.4c-5.6,0-8.9-4.2-8.9-9.4c0-5.4,3.3-9.6,8.9-9.6c4,0,7.3,2.3,7.8,6.5H64.3z M69.3,19.4h4v14.8h8.8v3.3H69.3
		V19.4z M89.9,19.4H94l6.8,18.1h-4.1l-1.4-4h-6.8l-1.4,4h-4L89.9,19.4z M89.6,30.6h4.7L92,23.9h-0.1L89.6,30.6z M101.9,19.4h8.2
		c4.5,0,6.3,2.9,6.3,5.8c0,2.9-1.8,5.8-6.3,5.8h-4.2v6.5h-4V19.4z M105.9,28h3.1c1.9,0,3.5-0.4,3.5-2.7s-1.6-2.7-3.5-2.7h-3.1V28z
		 M117.4,19.4H131v3.3h-9.6v3.9h8.8v3.1h-8.8v4.4h9.8v3.3h-13.8V19.4z M135.6,31.5c0,2.4,1.9,3.3,4,3.3c1.4,0,3.5-0.4,3.5-2.3
		c0-2-2.7-2.3-5.4-3c-2.7-0.7-5.4-1.8-5.4-5.2c0-3.7,3.5-5.5,6.8-5.5c3.8,0,7.3,1.6,7.3,5.8h-3.9c-0.1-2.2-1.7-2.7-3.6-2.7
		c-1.3,0-2.7,0.5-2.7,2.1c0,1.4,0.9,1.6,5.4,2.7c1.3,0.3,5.4,1.2,5.4,5.3c0,3.3-2.6,5.8-7.5,5.8c-4,0-7.8-2-7.7-6.4H135.6z"/>
	<path fill="#55555B" d="M167.3,30.2c0,5-3,7.5-8,7.5c-5,0-7.9-2.4-7.9-7.5V18.6h4.1v11.6c0,2,0.5,4,3.8,4c2.9,0,3.9-1.3,3.9-4V18.6
		h4.1V30.2z M181.7,24.9c-0.3-1.9-2-3.3-4.1-3.3c-3.7,0-5.1,3.1-5.1,6.4c0,3.1,1.4,6.2,5.1,6.2c2.5,0,3.9-1.7,4.2-4.2h4
		c-0.4,4.7-3.6,7.6-8.2,7.6c-5.8,0-9.2-4.3-9.2-9.7c0-5.5,3.4-9.8,9.2-9.8c4.1,0,7.6,2.4,8,6.7H181.7z"/>
	<path fill="#55555B" d="M56.3,44.2c-0.2-0.9-0.9-1.4-1.9-1.4c-1.6,0-2.3,1.3-2.3,2.7c0,1.5,0.7,2.8,2.3,2.8c1.2,0,1.8-0.8,1.9-1.9
		h0.9C57.1,48,56.1,49,54.4,49c-2.1,0-3.1-1.5-3.1-3.5c0-1.9,1.1-3.5,3.2-3.5c1.4,0,2.5,0.7,2.8,2.2H56.3z M62.6,47.3
		c-0.2,1.1-1,1.6-2.1,1.6c-1.5,0-2.3-1.1-2.3-2.5c0-1.5,1-2.5,2.3-2.5c1.7,0,2.2,1.6,2.2,2.8H59c0,0.8,0.4,1.6,1.5,1.6
		c0.7,0,1.1-0.3,1.3-0.9H62.6z M61.8,46c0-0.8-0.6-1.4-1.4-1.4c-0.8,0-1.3,0.6-1.4,1.4H61.8z M63.5,44h0.7v0.8h0
		c0.3-0.6,0.9-0.9,1.6-0.9c1.3,0,1.7,0.7,1.7,1.8v3.2h-0.8v-3.3c0-0.6-0.4-1-1-1c-1,0-1.4,0.6-1.4,1.5v2.7h-0.8V44z M69.9,44h1v0.7
		h-1v3c0,0.4,0.1,0.4,0.6,0.4h0.4v0.7h-0.6c-0.8,0-1.2-0.2-1.2-1.1v-3.1h-0.8V44h0.8v-1.5h0.8V44z M71.6,44h0.7v1h0
		c0.4-0.8,0.9-1.2,1.8-1.1v0.8c-1.3,0-1.7,0.7-1.7,2v2.2h-0.8V44z M76.4,43.9c1.5,0,2.3,1.1,2.3,2.5c0,1.4-0.8,2.5-2.3,2.5
		c-1.5,0-2.3-1.1-2.3-2.5C74,45,74.8,43.9,76.4,43.9z M76.4,48.3c0.8,0,1.5-0.7,1.5-1.8c0-1.2-0.7-1.8-1.5-1.8
		c-0.8,0-1.5,0.7-1.5,1.8C74.9,47.6,75.6,48.3,76.4,48.3z M82.3,42.2h0.9v5.9h3.5v0.7h-4.4V42.2z M91.7,48.9
		c-0.1,0.1-0.3,0.1-0.6,0.1c-0.4,0-0.7-0.2-0.7-0.7c-0.4,0.5-1,0.7-1.7,0.7c-0.9,0-1.6-0.4-1.6-1.4c0-1.1,0.8-1.3,1.6-1.5
		c0.9-0.2,1.6-0.1,1.6-0.7c0-0.7-0.6-0.8-1.1-0.8c-0.7,0-1.2,0.2-1.2,0.9h-0.8c0-1.2,1-1.6,2-1.6c0.9,0,1.8,0.2,1.8,1.3v2.5
		c0,0.4,0,0.5,0.3,0.5c0.1,0,0.1,0,0.2,0V48.9z M90.4,46.4c-0.3,0.2-0.9,0.2-1.4,0.3c-0.5,0.1-1,0.3-1,0.9c0,0.5,0.4,0.7,0.9,0.7
		c1,0,1.5-0.7,1.5-1.1V46.4z M93.6,44h1v0.7h-1v3c0,0.4,0.1,0.4,0.6,0.4h0.4v0.7H94c-0.8,0-1.2-0.2-1.2-1.1v-3.1H92V44h0.8v-1.5h0.8
		V44z M96.1,43.2h-0.8v-1h0.8V43.2z M95.3,44h0.8v4.8h-0.8V44z M97.2,44H98v0.8h0c0.3-0.6,0.9-0.9,1.6-0.9c1.3,0,1.7,0.7,1.7,1.8
		v3.2h-0.8v-3.3c0-0.6-0.4-1-1-1c-1,0-1.4,0.6-1.4,1.5v2.7h-0.8V44z M104.3,43.9c1.5,0,2.3,1.1,2.3,2.5c0,1.4-0.8,2.5-2.3,2.5
		c-1.5,0-2.3-1.1-2.3-2.5C102,45,102.8,43.9,104.3,43.9z M104.3,48.3c0.8,0,1.5-0.7,1.5-1.8c0-1.2-0.7-1.8-1.5-1.8
		c-0.8,0-1.5,0.7-1.5,1.8C102.8,47.6,103.5,48.3,104.3,48.3z M111.9,48.9c-0.1,0.1-0.3,0.1-0.6,0.1c-0.4,0-0.7-0.2-0.7-0.7
		c-0.4,0.5-1,0.7-1.7,0.7c-0.9,0-1.6-0.4-1.6-1.4c0-1.1,0.8-1.3,1.6-1.5c0.9-0.2,1.6-0.1,1.6-0.7c0-0.7-0.6-0.8-1.1-0.8
		c-0.7,0-1.2,0.2-1.2,0.9h-0.8c0-1.2,1-1.6,2-1.6c0.9,0,1.8,0.2,1.8,1.3v2.5c0,0.4,0,0.5,0.3,0.5c0.1,0,0.1,0,0.2,0V48.9z
		 M110.6,46.4c-0.3,0.2-0.9,0.2-1.4,0.3c-0.5,0.1-1,0.3-1,0.9c0,0.5,0.4,0.7,0.9,0.7c1,0,1.5-0.7,1.5-1.1V46.4z M112.8,44h0.7v0.7h0
		c0.4-0.5,0.9-0.8,1.6-0.8c0.6,0,1.1,0.2,1.3,0.8c0.3-0.5,0.9-0.8,1.5-0.8c1,0,1.6,0.4,1.6,1.4v3.5h-0.8v-3.2c0-0.6-0.2-1.1-0.9-1.1
		c-0.8,0-1.3,0.5-1.3,1.2v3h-0.8v-3.2c0-0.6-0.2-1.1-0.9-1.1c-0.9,0-1.3,0.9-1.3,1.2v3h-0.8V44z M124.8,47.3c-0.2,1.1-1,1.6-2.1,1.6
		c-1.5,0-2.3-1.1-2.3-2.5c0-1.5,1-2.5,2.3-2.5c1.7,0,2.2,1.6,2.2,2.8h-3.6c0,0.8,0.4,1.6,1.5,1.6c0.7,0,1.1-0.3,1.3-0.9H124.8z
		 M124.1,46c0-0.8-0.6-1.4-1.4-1.4c-0.8,0-1.3,0.6-1.4,1.4H124.1z M126,44h0.7v1h0c0.4-0.8,0.9-1.2,1.8-1.1v0.8
		c-1.3,0-1.7,0.7-1.7,2v2.2H126V44z M130.1,43.2h-0.8v-1h0.8V43.2z M129.3,44h0.8v4.8h-0.8V44z M134.5,45.6c-0.1-0.6-0.5-1-1.2-1
		c-1.2,0-1.5,0.9-1.5,1.9c0,0.9,0.4,1.8,1.4,1.8c0.8,0,1.2-0.4,1.3-1.2h0.8c-0.2,1.2-0.9,1.9-2.1,1.9c-1.5,0-2.3-1-2.3-2.5
		c0-1.5,0.7-2.6,2.3-2.6c1.1,0,2,0.5,2.1,1.7H134.5z M140.7,48.9c-0.1,0.1-0.3,0.1-0.6,0.1c-0.4,0-0.7-0.2-0.7-0.7
		c-0.4,0.5-1,0.7-1.7,0.7c-0.9,0-1.6-0.4-1.6-1.4c0-1.1,0.8-1.3,1.6-1.5c0.9-0.2,1.6-0.1,1.6-0.7c0-0.7-0.6-0.8-1.1-0.8
		c-0.7,0-1.2,0.2-1.2,0.9h-0.8c0-1.2,1-1.6,2-1.6c0.9,0,1.8,0.2,1.8,1.3v2.5c0,0.4,0,0.5,0.3,0.5c0.1,0,0.1,0,0.2,0V48.9z
		 M139.4,46.4c-0.3,0.2-0.9,0.2-1.4,0.3c-0.5,0.1-1,0.3-1,0.9c0,0.5,0.4,0.7,0.9,0.7c1,0,1.5-0.7,1.5-1.1V46.4z M141.7,44h0.7v0.8h0
		c0.3-0.6,0.9-0.9,1.6-0.9c1.3,0,1.7,0.7,1.7,1.8v3.2h-0.8v-3.3c0-0.6-0.4-1-1-1c-1,0-1.4,0.6-1.4,1.5v2.7h-0.8V44z M149,43.9
		c1.5,0,2.3,1.1,2.3,2.5c0,1.4-0.8,2.5-2.3,2.5c-1.5,0-2.3-1.1-2.3-2.5C146.7,45,147.5,43.9,149,43.9z M149,48.3
		c0.8,0,1.5-0.7,1.5-1.8c0-1.2-0.7-1.8-1.5-1.8c-0.8,0-1.5,0.7-1.5,1.8C147.5,47.6,148.2,48.3,149,48.3z M159.2,48.9h-0.8v-0.7h0
		c-0.3,0.5-0.9,0.8-1.5,0.8c-1.5,0-2.2-1.2-2.2-2.5c0-1.4,0.7-2.5,2.2-2.5c0.5,0,1.2,0.2,1.6,0.8h0v-2.5h0.8V48.9z M157,48.3
		c1.1,0,1.5-0.9,1.5-1.8c0-1-0.4-1.8-1.5-1.8c-1.1,0-1.5,0.9-1.5,1.9C155.5,47.4,155.9,48.3,157,48.3z M164.6,47.3
		c-0.2,1.1-1,1.6-2.1,1.6c-1.5,0-2.3-1.1-2.3-2.5c0-1.5,1-2.5,2.3-2.5c1.7,0,2.2,1.6,2.2,2.8H161c0,0.8,0.4,1.6,1.5,1.6
		c0.7,0,1.1-0.3,1.3-0.9H164.6z M163.8,46c0-0.8-0.6-1.4-1.4-1.4c-0.8,0-1.3,0.6-1.4,1.4H163.8z M51.6,51.2h2.9c1.3,0,2,0.7,2,2
		s-0.7,2-2,2h-2v2.7h-0.9V51.2z M52.5,54.4h1.7c1,0,1.5-0.4,1.5-1.2S55.2,52,54.2,52h-1.7V54.4z M59.4,53c1.5,0,2.3,1.1,2.3,2.5
		c0,1.4-0.8,2.5-2.3,2.5S57,56.9,57,55.5C57,54.1,57.8,53,59.4,53z M59.4,57.3c0.8,0,1.5-0.7,1.5-1.8c0-1.2-0.7-1.8-1.5-1.8
		s-1.5,0.7-1.5,1.8C57.9,56.7,58.5,57.3,59.4,57.3z M62.6,51.2h0.8v6.7h-0.8V51.2z M65.3,51.1h1l-1.2,1.3h-0.6L65.3,51.1z
		 M64.7,57.9v-4.8h0.8v4.8H64.7z M67.6,53.1h1v0.7h-1v3c0,0.4,0.1,0.4,0.6,0.4h0.4v0.7H68c-0.8,0-1.2-0.2-1.2-1.1v-3.1H66v-0.7h0.8
		v-1.5h0.8V53.1z M70,52.2h-0.8v-1H70V52.2z M69.3,53.1H70v4.8h-0.8V53.1z M74.6,54.6c-0.1-0.6-0.5-1-1.2-1c-1.2,0-1.5,0.9-1.5,1.9
		c0,0.9,0.4,1.8,1.4,1.8c0.8,0,1.2-0.4,1.3-1.2h0.8c-0.2,1.2-0.9,1.9-2.1,1.9c-1.5,0-2.3-1-2.3-2.5c0-1.5,0.7-2.6,2.3-2.6
		c1.1,0,2,0.5,2.1,1.7H74.6z M80.8,57.9C80.7,58,80.5,58,80.2,58c-0.4,0-0.7-0.2-0.7-0.7c-0.4,0.5-1,0.7-1.7,0.7
		c-0.9,0-1.6-0.4-1.6-1.4c0-1.1,0.8-1.3,1.6-1.5c0.9-0.2,1.6-0.1,1.6-0.7c0-0.7-0.6-0.8-1.1-0.8c-0.7,0-1.2,0.2-1.2,0.9h-0.8
		c0-1.2,1-1.6,2-1.6c0.9,0,1.8,0.2,1.8,1.3v2.5c0,0.4,0,0.5,0.3,0.5c0.1,0,0.1,0,0.2,0V57.9z M79.5,55.4c-0.3,0.2-0.9,0.2-1.4,0.3
		c-0.5,0.1-1,0.3-1,0.9c0,0.5,0.4,0.7,0.9,0.7c1,0,1.5-0.7,1.5-1.1V55.4z M82.3,56.4c0,0.7,0.6,0.9,1.3,0.9c0.5,0,1.2-0.1,1.2-0.7
		c0-0.6-0.8-0.7-1.6-0.9c-0.8-0.2-1.6-0.4-1.6-1.4c0-1,1-1.4,1.8-1.4c1.1,0,1.9,0.3,2,1.5h-0.8c-0.1-0.6-0.6-0.8-1.1-0.8
		c-0.5,0-1,0.1-1,0.6c0,0.6,0.8,0.7,1.6,0.8c0.8,0.2,1.6,0.4,1.6,1.4c0,1.2-1.1,1.5-2.1,1.5c-1.1,0-2-0.4-2-1.6H82.3z M89,51.2h4.6
		V52h-3.7v2.1h3.5v0.7h-3.5v2.3h3.8v0.7H89V51.2z M98.1,54.6c-0.1-0.6-0.5-1-1.2-1c-1.2,0-1.5,0.9-1.5,1.9c0,0.9,0.4,1.8,1.4,1.8
		c0.8,0,1.2-0.4,1.3-1.2h0.8C98.7,57.3,98,58,96.8,58c-1.5,0-2.3-1-2.3-2.5c0-1.5,0.7-2.6,2.3-2.6c1.1,0,2,0.5,2.1,1.7H98.1z
		 M102,53c1.5,0,2.3,1.1,2.3,2.5c0,1.4-0.8,2.5-2.3,2.5c-1.5,0-2.3-1.1-2.3-2.5C99.6,54.1,100.5,53,102,53z M102,57.3
		c0.8,0,1.5-0.7,1.5-1.8c0-1.2-0.7-1.8-1.5-1.8s-1.5,0.7-1.5,1.8C100.5,56.7,101.2,57.3,102,57.3z M105.2,53.1h0.7v0.8h0
		c0.3-0.6,0.9-0.9,1.6-0.9c1.3,0,1.7,0.7,1.7,1.8v3.2h-0.8v-3.3c0-0.6-0.4-1-1-1c-1,0-1.4,0.6-1.4,1.5v2.7h-0.8V53.1z M112.5,53
		c1.5,0,2.3,1.1,2.3,2.5c0,1.4-0.8,2.5-2.3,2.5c-1.5,0-2.3-1.1-2.3-2.5C110.2,54.1,111,53,112.5,53z M112.5,57.3
		c0.8,0,1.5-0.7,1.5-1.8c0-1.2-0.7-1.8-1.5-1.8s-1.5,0.7-1.5,1.8C111,56.7,111.7,57.3,112.5,57.3z M112.7,51.1h1l-1.2,1.3h-0.6
		L112.7,51.1z M115.6,53.1h0.7v0.7h0c0.4-0.5,0.9-0.8,1.6-0.8c0.6,0,1.1,0.2,1.3,0.8c0.3-0.5,0.9-0.8,1.5-0.8c1,0,1.6,0.4,1.6,1.4
		v3.5h-0.8v-3.2c0-0.6-0.2-1.1-0.9-1.1c-0.8,0-1.3,0.5-1.3,1.2v3h-0.8v-3.2c0-0.6-0.2-1.1-0.9-1.1c-0.9,0-1.3,0.9-1.3,1.2v3h-0.8
		V53.1z M124.4,52.2h-0.8v-1h0.8V52.2z M123.6,53.1h0.8v4.8h-0.8V53.1z M128.9,54.6c-0.1-0.6-0.5-1-1.2-1c-1.2,0-1.5,0.9-1.5,1.9
		c0,0.9,0.4,1.8,1.4,1.8c0.8,0,1.2-0.4,1.3-1.2h0.8c-0.2,1.2-0.9,1.9-2.1,1.9c-1.5,0-2.3-1-2.3-2.5c0-1.5,0.7-2.6,2.3-2.6
		c1.1,0,2,0.5,2.1,1.7H128.9z M135.2,57.9c-0.1,0.1-0.3,0.1-0.6,0.1c-0.4,0-0.7-0.2-0.7-0.7c-0.4,0.5-1,0.7-1.7,0.7
		c-0.9,0-1.6-0.4-1.6-1.4c0-1.1,0.8-1.3,1.6-1.5c0.9-0.2,1.6-0.1,1.6-0.7c0-0.7-0.6-0.8-1.1-0.8c-0.7,0-1.2,0.2-1.2,0.9h-0.8
		c0-1.2,1-1.6,2-1.6c0.9,0,1.8,0.2,1.8,1.3v2.5c0,0.4,0,0.5,0.3,0.5c0.1,0,0.1,0,0.2,0V57.9z M133.9,55.4c-0.3,0.2-0.9,0.2-1.4,0.3
		c-0.5,0.1-1,0.3-1,0.9c0,0.5,0.4,0.7,0.9,0.7c1,0,1.5-0.7,1.5-1.1V55.4z M136.7,56.4c0,0.7,0.6,0.9,1.3,0.9c0.5,0,1.2-0.1,1.2-0.7
		c0-0.6-0.8-0.7-1.6-0.9c-0.8-0.2-1.6-0.4-1.6-1.4c0-1,1-1.4,1.8-1.4c1.1,0,1.9,0.3,2,1.5H139c-0.1-0.6-0.6-0.8-1.1-0.8
		c-0.5,0-1,0.1-1,0.6c0,0.6,0.8,0.7,1.6,0.8c0.8,0.2,1.6,0.4,1.6,1.4c0,1.2-1.1,1.5-2.1,1.5c-1.1,0-2-0.4-2-1.6H136.7z M145.4,58.5
		c-0.4,0.9-0.7,1.3-1.4,1.3c-0.2,0-0.4,0-0.6-0.1V59c0.1,0,0.3,0.1,0.5,0.1c0.3,0,0.5-0.2,0.7-0.4l0.3-0.8l-1.9-4.8h0.9l1.4,4h0
		l1.4-4h0.8L145.4,58.5z M154.6,53.2c-0.1-1-0.7-1.4-1.7-1.4c-0.7,0-1.5,0.3-1.5,1.1c0,0.8,1.1,0.9,2.1,1.2c1.1,0.2,2.1,0.6,2.1,1.9
		c0,1.4-1.4,2-2.6,2c-1.5,0-2.8-0.7-2.8-2.4h0.8c0,1.1,0.9,1.6,1.9,1.6c0.8,0,1.7-0.3,1.7-1.2c0-0.9-1.1-1.1-2.1-1.3
		c-1.1-0.2-2.1-0.5-2.1-1.8c0-1.4,1.2-2,2.4-2c1.4,0,2.4,0.6,2.5,2.1H154.6z M158.4,53c1.5,0,2.3,1.1,2.3,2.5c0,1.4-0.8,2.5-2.3,2.5
		s-2.3-1.1-2.3-2.5C156.1,54.1,156.9,53,158.4,53z M158.4,57.3c0.8,0,1.5-0.7,1.5-1.8c0-1.2-0.7-1.8-1.5-1.8s-1.5,0.7-1.5,1.8
		C156.9,56.7,157.6,57.3,158.4,57.3z M164.9,54.6c-0.1-0.6-0.5-1-1.2-1c-1.2,0-1.5,0.9-1.5,1.9c0,0.9,0.4,1.8,1.4,1.8
		c0.8,0,1.2-0.4,1.3-1.2h0.8c-0.2,1.2-0.9,1.9-2.1,1.9c-1.5,0-2.3-1-2.3-2.5c0-1.5,0.7-2.6,2.3-2.6c1.1,0,2,0.5,2.1,1.7H164.9z
		 M167.7,52.2h-0.8v-1h0.8V52.2z M166.9,53.1h0.8v4.8h-0.8V53.1z M173.3,57.9c-0.1,0.1-0.3,0.1-0.6,0.1c-0.4,0-0.7-0.2-0.7-0.7
		c-0.4,0.5-1,0.7-1.7,0.7c-0.9,0-1.6-0.4-1.6-1.4c0-1.1,0.8-1.3,1.6-1.5c0.9-0.2,1.6-0.1,1.6-0.7c0-0.7-0.6-0.8-1.1-0.8
		c-0.7,0-1.2,0.2-1.2,0.9h-0.8c0-1.2,1-1.6,2-1.6c0.9,0,1.8,0.2,1.8,1.3v2.5c0,0.4,0,0.5,0.3,0.5c0.1,0,0.1,0,0.2,0V57.9z M172,55.4
		c-0.3,0.2-0.9,0.2-1.4,0.3c-0.5,0.1-1,0.3-1,0.9c0,0.5,0.4,0.7,0.9,0.7c1,0,1.5-0.7,1.5-1.1V55.4z M174.2,51.2h0.8v6.7h-0.8V51.2z
		 M180.2,56.4c-0.2,1.1-1,1.6-2.1,1.6c-1.5,0-2.3-1.1-2.3-2.5c0-1.5,1-2.5,2.3-2.5c1.7,0,2.2,1.6,2.2,2.8h-3.6
		c0,0.8,0.4,1.6,1.5,1.6c0.7,0,1.1-0.3,1.3-0.9H180.2z M179.5,55c0-0.8-0.6-1.4-1.4-1.4c-0.8,0-1.3,0.6-1.4,1.4H179.5z M181.9,56.4
		c0,0.7,0.6,0.9,1.3,0.9c0.5,0,1.2-0.1,1.2-0.7c0-0.6-0.8-0.7-1.6-0.9c-0.8-0.2-1.6-0.4-1.6-1.4c0-1,1-1.4,1.8-1.4
		c1.1,0,1.9,0.3,2,1.5h-0.8c-0.1-0.6-0.6-0.8-1.1-0.8c-0.5,0-1,0.1-1,0.6c0,0.6,0.8,0.7,1.6,0.8c0.8,0.2,1.6,0.4,1.6,1.4
		c0,1.2-1.1,1.5-2.1,1.5c-1.1,0-2-0.4-2-1.6H181.9z"/>
	<rect fill="#3278E6" width="44" height="57.9"/>
	<g>
		<path fill="#F6C921" d="M44,0h-0.9L31.8,22.9L30.8,0h-1L9.1,15.5L9.9,0H9.2L8.3,15.6L0,9.9v0.9l7.9,5.5L0,20.1v0.8l8.2-4l-1.6,22
			L0,34.9v0.9l5.6,3.4L0,39v0.8L6.1,40l-3.7,3.5L0,42.9v0.8l2.3,0.6l0.2,0.2l0.2-0.2l20.4-5l0.2,0l0.1-0.1L38.8,22l0.3-0.1L39,21.6
			l4.9-21.5L44,0z M30,0.7l1.1,23.1L9.5,16.2L30,0.7z M9,16.8l21.6,7.6L7.5,38.9L9,16.8z M3.8,43.2L7.2,40l0.2,0l0,0l11.7-0.6
			L3.8,43.2z M22.8,38.4L8.5,39.1l21.9-13.7L22.8,38.4z M25.2,35.8l6.5-11.2l5.4-2.1L25.2,35.8z M38.2,21.4l-6,2.3L42.4,3.1
			L38.2,21.4z"/>
		<g>
			<circle fill="#F6C921" cx="8.7" cy="16.3" r="1.8"/>
		</g>
		<g>
			<circle fill="#F6C921" cx="31.5" cy="24.4" r="1.8"/>
		</g>
		<g>
			<circle fill="#F6C921" cx="38.6" cy="21.7" r="1.8"/>
		</g>
		<g>
			<circle fill="#F6C921" cx="23.1" cy="38.8" r="1.8"/>
		</g>
		<g>
			<circle fill="#F6C921" cx="7" cy="39.6" r="1.8"/>
		</g>
		<g>
			<circle fill="#F6C921" cx="2.5" cy="43.9" r="1.8"/>
		</g>
	</g>
	<path fill="#55555B" d="M58.1,6.5c-0.1-0.9-1-1.7-2.1-1.7c-1.9,0-2.6,1.6-2.6,3.3c0,1.6,0.7,3.2,2.6,3.2c1.3,0,2-0.9,2.2-2.1h2
		C60,11.5,58.4,13,56,13c-2.9,0-4.7-2.2-4.7-4.9c0-2.8,1.7-5,4.7-5c2.1,0,3.8,1.2,4.1,3.4H58.1z M63,9.8c0.1,1.2,0.6,1.7,1.7,1.7
		c0.8,0,1.4-0.5,1.5-0.9h1.7c-0.5,1.6-1.7,2.3-3.2,2.3c-2.2,0-3.5-1.5-3.5-3.6c0-2.1,1.4-3.6,3.5-3.6c2.3,0,3.5,2,3.3,4.1H63z
		 M66.1,8.6c-0.2-1-0.6-1.5-1.5-1.5c-1.2,0-1.5,0.9-1.6,1.5H66.1z M69.1,5.9h1.8v1h0c0.5-0.8,1.3-1.1,2.1-1.1c2,0,2.5,1.1,2.5,2.8
		v4.2h-1.9V8.9c0-1.1-0.3-1.7-1.2-1.7c-1,0-1.5,0.6-1.5,2v3.6h-1.9V5.9z M79.4,5.9h1.4v1.3h-1.4v3.4c0,0.6,0.2,0.8,0.8,0.8
		c0.2,0,0.4,0,0.6-0.1v1.5c-0.3,0.1-0.7,0.1-1.1,0.1c-1.2,0-2.2-0.3-2.2-1.6V7.2h-1.1V5.9h1.1V3.9h1.9V5.9z M81.7,5.9h1.8v1.3h0
		c0.3-0.9,1.3-1.5,2.2-1.5c0.1,0,0.3,0,0.4,0.1v1.8c-0.2,0-0.5-0.1-0.7-0.1c-1.4,0-1.9,1-1.9,2.2v3.1h-1.9V5.9z M89.9,5.7
		c2.2,0,3.6,1.4,3.6,3.6c0,2.2-1.4,3.6-3.6,3.6c-2.2,0-3.6-1.4-3.6-3.6C86.4,7.2,87.8,5.7,89.9,5.7z M89.9,11.6
		c1.3,0,1.7-1.1,1.7-2.2c0-1.1-0.4-2.2-1.7-2.2c-1.3,0-1.7,1.1-1.7,2.2C88.3,10.5,88.7,11.6,89.9,11.6z"/>
	<path fill="#3278E6" d="M105.5,9.2c0,2.6-1.5,3.8-4.1,3.8c-2.6,0-4-1.2-4-3.8V3.3h2.1v5.9c0,1,0.3,2.1,2,2.1c1.5,0,2-0.7,2-2.1V3.3
		h2.1V9.2z M113.3,6.5c-0.1-0.9-1-1.7-2.1-1.7c-1.9,0-2.6,1.6-2.6,3.3c0,1.6,0.7,3.2,2.6,3.2c1.3,0,2-0.9,2.2-2.1h2
		c-0.2,2.4-1.8,3.9-4.2,3.9c-2.9,0-4.7-2.2-4.7-4.9c0-2.8,1.7-5,4.7-5c2.1,0,3.8,1.2,4.1,3.4H113.3z"/>
</g>
</svg>
