<!-- Generator: Adobe Illustrator 19.1.0, SVG Export Plug-In  -->
<svg version="1.1"
	 xmlns="http://www.w3.org/2000/svg" xmlns:xlink="http://www.w3.org/1999/xlink" xmlns:a="http://ns.adobe.com/AdobeSVGViewerExtensions/3.0/"
	 x="0px" y="0px" width="120.4px" height="70px" viewBox="0 0 120.4 70" enable-background="new 0 0 120.4 70" xml:space="preserve"
	>
<defs>
</defs>
<g>
	<g>
		<path fill="#B9B9B6" d="M60.8,26.8c0-1.4,0-1.6,0-1.9c0-0.3-0.1-0.4-0.4-0.5c-0.1,0-0.2,0-0.3,0c0,0-0.1,0-0.1-0.1
			c0-0.1,0-0.1,0.1-0.1c0.4,0,0.9,0,1,0c0.2,0,0.7,0,1.1,0c1.1,0,1.5,0.4,1.6,0.5c0.2,0.2,0.4,0.6,0.4,1.2c0,1.1-0.9,2-2.2,2
			c0,0-0.1,0-0.2,0c0,0-0.1,0-0.1-0.1c0-0.1,0.1-0.1,0.2-0.1c0.9,0,1.5-0.6,1.5-1.5c0-0.2,0-0.8-0.5-1.3c-0.5-0.5-1-0.4-1.2-0.4
			c-0.1,0-0.3,0-0.4,0.1c-0.1,0-0.1,0.1-0.1,0.2v3.6c0,0.8,0,1.5,0,1.9c0,0.3,0.1,0.4,0.3,0.5c0.1,0,0.3,0,0.4,0
			c0.1,0,0.1,0,0.1,0.1c0,0,0,0.1-0.1,0.1c-0.5,0-1,0-1.1,0c0,0-0.6,0-0.8,0c-0.1,0-0.1,0-0.1-0.1c0,0,0-0.1,0.1-0.1
			c0.1,0,0.2,0,0.3,0c0.2,0,0.2-0.2,0.3-0.5c0-0.4,0-1.1,0-1.9V26.8z"/>
		<path fill="#B9B9B6" d="M65,28.1c0-1.2,0.9-2.9,3.1-2.9c1.7,0,3.1,1,3.1,2.8c0,1.7-1.2,3.1-3.1,3.1C65.9,31,65,29.4,65,28.1z
			 M70.4,28.2c0-1.8-1.1-2.8-2.3-2.8c-1.2,0-2.2,0.8-2.2,2.4c0,1.7,1,2.9,2.4,2.9C68.9,30.7,70.4,30.4,70.4,28.2z"/>
		<path fill="#B9B9B6" d="M72.6,25.5c0-0.3,0-0.4,0.1-0.4c0.1,0,0.2,0.2,0.3,0.2c0.1,0.1,1.3,1.3,2.5,2.6c0.7,0.7,1.6,1.6,1.8,1.8
			l-0.1-3.7c0-0.5-0.1-0.6-0.3-0.7c-0.1,0-0.3,0-0.3,0c-0.1,0-0.1,0-0.1-0.1c0,0,0.1-0.1,0.2-0.1c0.4,0,0.7,0,0.8,0
			c0.1,0,0.4,0,0.7,0c0.1,0,0.1,0,0.1,0.1c0,0,0,0.1-0.1,0.1c-0.1,0-0.1,0-0.2,0c-0.2,0-0.3,0.1-0.3,0.7l0,4.4c0,0.4,0,0.5-0.1,0.5
			c-0.1,0-0.1-0.1-0.6-0.5c0,0-1.3-1.2-2-2c-0.9-1-1.8-1.9-2-2.1l0.1,3.4c0,0.6,0.1,0.8,0.3,0.9c0.1,0,0.3,0,0.4,0
			c0.1,0,0.1,0,0.1,0.1c0,0,0,0.1-0.1,0.1c-0.5,0-0.8,0-0.9,0c-0.1,0-0.4,0-0.8,0c-0.1,0-0.1,0-0.1-0.1c0,0,0-0.1,0.1-0.1
			c0.1,0,0.2,0,0.3,0c0.2-0.1,0.2-0.3,0.2-0.9C72.6,25.6,72.6,27,72.6,25.5z"/>
		<path fill="#B9B9B6" d="M81.7,28.7c0,0.7,0,1.3,0,1.6c0,0.2,0,0.3,0.3,0.4c0.1,0,0.3,0,0.3,0c0.1,0,0.1,0,0.1,0.1
			c0,0,0,0.1-0.1,0.1c-0.4,0-1,0-1,0c0,0-0.6,0-0.8,0c-0.1,0-0.1,0-0.1-0.1c0,0,0-0.1,0.1-0.1c0.1,0,0.1,0,0.2,0
			c0.2,0,0.2-0.1,0.2-0.4c0-0.3,0-1,0-1.6v-3.1c-0.3,0-0.8,0-1.1,0c-0.6,0-0.7,0.1-0.8,0.3C79,26,79,26.1,78.9,26.1
			c0,0.1,0,0.1-0.1,0.1c0,0,0,0,0-0.1c0-0.1,0.1-0.6,0.2-0.9c0-0.1,0.1-0.1,0.1-0.1c0.1,0,0.2,0.1,0.4,0.1c0.3,0,0.6,0,0.6,0h2.9
			c0.2,0,0.5,0,0.6,0c0.1,0,0.1,0,0.2,0c0,0,0.1,0,0.1,0.1c0,0.2,0,0.8,0,0.9c0,0.1,0,0.1-0.1,0.1c0,0-0.1,0-0.1-0.1c0,0,0,0,0-0.1
			c0-0.4-0.1-0.4-1-0.4c-0.3,0-0.6,0-0.9,0V28.7z"/>
		<path fill="#B9B9B6" d="M85.1,27.4c0-1.2,0-1.4,0-1.6c0-0.2-0.1-0.4-0.3-0.4c-0.1,0-0.1,0-0.2,0c-0.1,0-0.1,0-0.1-0.1
			c0,0,0-0.1,0.1-0.1c0.3,0,0.8,0,0.8,0c0,0,0.5,0,0.8,0c0.1,0,0.1,0,0.1,0.1c0,0,0,0.1-0.1,0.1c-0.1,0-0.1,0-0.2,0
			c-0.3,0-0.3,0.2-0.3,0.4c0,0.2,0,0.4,0,1.6v1.3c0,0.7,0,1.3,0,1.6c0,0.3,0.1,0.4,0.3,0.4c0.1,0,0.3,0,0.3,0c0.1,0,0.1,0,0.1,0.1
			c0,0,0,0.1-0.1,0.1c-0.4,0-1,0-1,0c0,0-0.5,0-0.8,0c-0.1,0-0.1,0-0.1-0.1c0,0,0-0.1,0.1-0.1c0,0,0.1,0,0.2,0
			c0.1,0,0.2-0.2,0.2-0.4c0-0.3,0-0.9,0-1.6V27.4z"/>
		<path fill="#B9B9B6" d="M88.4,27.4c0-1.2,0-1.4,0-1.6c0-0.2-0.1-0.4-0.3-0.4c-0.1,0-0.1,0-0.2,0c-0.1,0-0.1,0-0.1-0.1
			c0,0,0-0.1,0.1-0.1c0.3,0,0.6,0,0.9,0c0.1,0,1.7,0,1.9,0c0.2,0,0.3,0,0.4-0.1c0,0,0.1,0,0.1,0c0,0,0,0,0,0.1c0,0.1,0,0.2-0.1,0.3
			c0,0.2,0,0.4,0,0.6c0,0.1,0,0.1-0.1,0.1c0,0-0.1,0-0.1-0.1c0-0.1,0-0.3-0.1-0.4c-0.1-0.1-0.3-0.1-0.5-0.1c-0.4,0-0.7,0-1.1,0
			c-0.1,0-0.1,0-0.1,0.1v2c0,0,0,0.1,0.1,0.1c0.4,0,0.8,0,1.1,0c0.4,0,0.5,0,0.6-0.2c0,0,0.1-0.1,0.1-0.1c0,0,0,0,0,0.1
			c0,0,0,0.2-0.1,0.5c0,0.2,0,0.4,0,0.5c0,0.1,0,0.1-0.1,0.1c-0.1,0-0.1-0.1-0.1-0.1c0-0.1,0-0.4-0.5-0.5c-0.2,0-1,0-1.1,0
			c-0.1,0-0.1,0-0.1,0.1v0.6c0,0.6,0,1.1,0,1.5c0,0.4,0.1,0.5,0.3,0.5c0.1,0,0.2,0,0.3,0c0.1,0,0.1,0,0.1,0.1c0,0,0,0.1-0.1,0.1
			c-0.5,0-0.9,0-1,0h-0.1c-0.2,0-0.5,0-0.7,0c-0.1,0-0.1,0-0.1-0.1c0,0,0-0.1,0.1-0.1c0.1,0,0.1,0,0.2,0c0.2,0,0.2-0.2,0.2-0.5
			c0-0.3,0-0.8,0-1.6V27.4z"/>
		<path fill="#B9B9B6" d="M92.7,27.4c0-1.2,0-1.4,0-1.6c0-0.2-0.1-0.4-0.3-0.4c-0.1,0-0.1,0-0.2,0c-0.1,0-0.1,0-0.1-0.1
			c0,0,0-0.1,0.1-0.1c0.3,0,0.8,0,0.8,0c0,0,0.5,0,0.8,0c0.1,0,0.1,0,0.1,0.1c0,0,0,0.1-0.1,0.1c-0.1,0-0.1,0-0.2,0
			c-0.3,0-0.3,0.2-0.3,0.4c0,0.2,0,0.4,0,1.6v1.3c0,0.7,0,1.3,0,1.6c0,0.3,0.1,0.4,0.3,0.4c0.1,0,0.3,0,0.3,0c0.1,0,0.1,0,0.1,0.1
			c0,0,0,0.1-0.1,0.1c-0.4,0-1,0-1,0c0,0-0.5,0-0.8,0c-0.1,0-0.1,0-0.1-0.1c0,0,0-0.1,0.1-0.1c0,0,0.1,0,0.2,0
			c0.1,0,0.2-0.2,0.2-0.4c0-0.3,0-0.9,0-1.6V27.4z"/>
		<path fill="#B9B9B6" d="M95.9,30.2C95.1,29.5,95,28.7,95,28c0-0.5,0.2-1.4,0.9-2c0.5-0.5,1.2-0.8,2.4-0.8c0.4,0,0.7,0,1.2,0.1
			c0.3,0,0.6,0.1,0.8,0.1c0.1,0,0.1,0,0.1,0.1c0,0.1,0,0.1,0,0.4c0,0.2,0,0.7,0,0.8c0,0.1,0,0.2-0.1,0.2c-0.1,0-0.1-0.1-0.1-0.2
			c0-0.3-0.1-0.6-0.3-0.8c-0.3-0.2-0.9-0.4-1.6-0.4c-1,0-1.4,0.3-1.7,0.5c-0.6,0.5-0.7,1.2-0.7,1.9c0,1.5,1.2,2.7,2.7,2.7
			c0.6,0,1-0.1,1.3-0.4c0.2-0.2,0.2-0.4,0.3-0.6c0-0.1,0-0.1,0.1-0.1c0,0,0,0.1,0,0.1c0,0.1-0.1,0.8-0.2,1c-0.1,0.1-0.1,0.2-0.2,0.2
			C99.6,31,99,31,98.5,31C97.3,31,96.5,30.7,95.9,30.2z"/>
		<path fill="#B9B9B6" d="M101.8,27.4c0-1.2,0-1.4,0-1.6c0-0.2-0.1-0.4-0.3-0.4c-0.1,0-0.1,0-0.2,0c-0.1,0-0.1,0-0.1-0.1
			c0,0,0-0.1,0.1-0.1c0.3,0,0.8,0,0.8,0c0,0,0.5,0,0.8,0c0.1,0,0.1,0,0.1,0.1c0,0,0,0.1-0.1,0.1c-0.1,0-0.1,0-0.2,0
			c-0.3,0-0.3,0.2-0.3,0.4c0,0.2,0,0.4,0,1.6v1.3c0,0.7,0,1.3,0,1.6c0,0.3,0.1,0.4,0.3,0.4c0.1,0,0.3,0,0.3,0c0.1,0,0.1,0,0.1,0.1
			c0,0,0,0.1-0.1,0.1c-0.4,0-1,0-1,0c0,0-0.5,0-0.8,0c-0.1,0-0.1,0-0.1-0.1c0,0,0-0.1,0.1-0.1c0,0,0.1,0,0.2,0
			c0.1,0,0.2-0.2,0.2-0.4c0-0.3,0-0.9,0-1.6V27.4z"/>
		<path fill="#B9B9B6" d="M105.4,28.8C105.4,28.8,105.3,28.8,105.4,28.8l-0.5,1.2c-0.1,0.2-0.1,0.5-0.1,0.6c0,0.2,0.1,0.2,0.3,0.2
			c0,0,0,0,0.1,0c0.1,0,0.1,0,0.1,0.1c0,0-0.1,0.1-0.1,0.1c-0.2,0-0.6,0-0.7,0c-0.1,0-0.5,0-0.8,0c-0.1,0-0.1,0-0.1-0.1
			c0,0,0-0.1,0.1-0.1c0,0,0.1,0,0.2,0c0.4,0,0.5-0.3,0.7-0.7l1.8-4.6c0.1-0.3,0.1-0.3,0.2-0.3c0,0,0.1,0,0.2,0.3
			c0.1,0.3,1.3,3.4,1.8,4.5c0.3,0.7,0.5,0.8,0.7,0.9c0.1,0,0.2,0,0.3,0c0.1,0,0.1,0,0.1,0.1c0,0,0,0.1-0.1,0.1c-0.1,0-0.7,0-1.3,0
			c-0.2,0-0.2,0-0.2-0.1c0,0,0-0.1,0.1-0.1c0,0,0.1-0.1,0-0.2l-0.7-1.8c0,0,0,0-0.1,0H105.4z M106.9,28.4
			C106.9,28.4,106.9,28.4,106.9,28.4l-0.7-2c0-0.1-0.1-0.1-0.1,0l-0.7,1.9c0,0,0,0.1,0,0.1H106.9z"/>
		<path fill="#B9B9B6" d="M61,38.6c0,1.3,0.3,1.8,0.7,2.2c0.4,0.4,0.8,0.5,1.3,0.5c0.5,0,1.1-0.3,1.4-0.6c0.4-0.5,0.5-1.3,0.5-2.2
			v-1.1c0-1.4,0-1.6,0-1.9c0-0.3-0.1-0.4-0.4-0.5c-0.1,0-0.2,0-0.3,0c0,0-0.1,0-0.1-0.1c0-0.1,0-0.1,0.1-0.1c0.4,0,0.9,0,0.9,0
			c0.1,0,0.5,0,0.7,0c0.1,0,0.1,0,0.1,0.1c0,0,0,0.1-0.1,0.1c-0.1,0-0.1,0-0.2,0c-0.2,0.1-0.3,0.2-0.3,0.5c0,0.3,0,0.5,0,1.9v0.9
			c0,1-0.1,2-0.8,2.6c-0.6,0.6-1.3,0.7-1.8,0.7c-0.3,0-1.2,0-1.8-0.6c-0.4-0.4-0.8-1-0.8-2.3v-1.3c0-1.4,0-1.6,0-1.9
			c0-0.3-0.1-0.4-0.4-0.5c-0.1,0-0.2,0-0.3,0c0,0-0.1,0-0.1-0.1c0-0.1,0-0.1,0.1-0.1c0.4,0,0.9,0,1,0c0.1,0,0.6,0,0.9,0
			c0.1,0,0.1,0,0.1,0.1c0,0,0,0.1-0.1,0.1c-0.1,0-0.1,0-0.2,0c-0.2,0-0.3,0.2-0.3,0.5c0,0.3,0,0.5,0,1.9V38.6z"/>
		<path fill="#B9B9B6" d="M67.6,36.1c0-0.3,0-0.4,0.1-0.4c0.1,0,0.2,0.2,0.3,0.2c0.1,0.1,1.3,1.3,2.5,2.6c0.7,0.7,1.6,1.6,1.8,1.8
			l-0.1-3.7c0-0.5-0.1-0.6-0.3-0.7c-0.1,0-0.3,0-0.3,0c-0.1,0-0.1,0-0.1-0.1c0,0,0.1-0.1,0.2-0.1c0.4,0,0.7,0,0.8,0
			c0.1,0,0.4,0,0.7,0c0.1,0,0.1,0,0.1,0.1c0,0,0,0.1-0.1,0.1c-0.1,0-0.1,0-0.2,0c-0.2,0-0.3,0.1-0.3,0.7l0,4.4c0,0.4,0,0.5-0.1,0.5
			c-0.1,0-0.1-0.1-0.6-0.5c0,0-1.3-1.2-2-2c-0.9-1-1.8-1.9-2-2.1l0.1,3.4c0,0.6,0.1,0.8,0.3,0.9c0.1,0,0.3,0,0.4,0
			c0.1,0,0.1,0,0.1,0.1c0,0,0,0.1-0.1,0.1c-0.5,0-0.8,0-0.9,0c-0.1,0-0.4,0-0.8,0c-0.1,0-0.1,0-0.1-0.1c0,0,0-0.1,0.1-0.1
			c0.1,0,0.2,0,0.3,0c0.2-0.1,0.2-0.3,0.2-0.9C67.6,36.2,67.6,37.5,67.6,36.1z"/>
		<path fill="#B9B9B6" d="M75.2,38c0-1.2,0-1.4,0-1.6c0-0.2-0.1-0.4-0.3-0.4c-0.1,0-0.1,0-0.2,0c-0.1,0-0.1,0-0.1-0.1
			c0,0,0-0.1,0.1-0.1c0.3,0,0.8,0,0.8,0c0,0,0.5,0,0.8,0c0.1,0,0.1,0,0.1,0.1c0,0,0,0.1-0.1,0.1c-0.1,0-0.1,0-0.2,0
			c-0.3,0-0.3,0.2-0.3,0.4c0,0.2,0,0.4,0,1.6v1.3c0,0.7,0,1.3,0,1.6c0,0.3,0.1,0.4,0.3,0.4c0.1,0,0.3,0,0.3,0c0.1,0,0.1,0,0.1,0.1
			c0,0,0,0.1-0.1,0.1c-0.4,0-1,0-1,0c0,0-0.5,0-0.8,0c-0.1,0-0.1,0-0.1-0.1c0,0,0-0.1,0.1-0.1c0,0,0.1,0,0.2,0
			c0.1,0,0.2-0.2,0.2-0.4c0-0.3,0-0.9,0-1.6V38z"/>
		<path fill="#B9B9B6" d="M77.9,36.5c-0.2-0.4-0.2-0.5-0.6-0.6c-0.1,0-0.2,0-0.3,0c-0.1,0-0.1,0-0.1-0.1c0,0,0.1-0.1,0.1-0.1
			c0.4,0,0.9,0,1,0c0.1,0,0.5,0,0.8,0c0.1,0,0.1,0,0.1,0.1c0,0,0,0.1-0.1,0.1c-0.1,0-0.2,0-0.3,0c-0.1,0-0.1,0.1-0.1,0.1
			c0,0.1,0.1,0.2,0.1,0.4l1.6,3.9c0.4-1,1.5-3.5,1.6-4.1c0-0.1,0.1-0.2,0.1-0.3c0-0.1,0-0.1-0.1-0.1c-0.1,0-0.2,0-0.3,0
			c-0.1,0-0.1,0-0.1-0.1c0,0,0-0.1,0.1-0.1c0.3,0,0.7,0,0.8,0c0,0,0.4,0,0.6,0c0.1,0,0.1,0,0.1,0.1c0,0,0,0.1-0.1,0.1
			c-0.1,0-0.2,0-0.4,0.1c-0.1,0.1-0.2,0.2-0.4,0.7c0,0.1-0.5,1.1-0.9,2c-0.5,1.1-0.8,1.9-1,2.2c-0.2,0.5-0.3,0.6-0.4,0.6
			c-0.1,0-0.1-0.1-0.3-0.5L77.9,36.5z"/>
		<path fill="#B9B9B6" d="M84.3,38c0-1.2,0-1.4,0-1.6c0-0.2-0.1-0.4-0.3-0.4c-0.1,0-0.1,0-0.2,0c-0.1,0-0.1,0-0.1-0.1
			c0-0.1,0-0.1,0.1-0.1c0.2,0,0.4,0,0.9,0c0,0,1.6,0,1.8,0c0.2,0,0.3,0,0.3,0c0.1,0,0.1,0,0.1,0c0,0,0,0,0,0.1
			c0,0.1-0.1,0.2-0.1,0.4c0,0.1,0,0.3,0,0.5c0,0.1,0,0.1-0.1,0.1c0,0-0.1,0-0.1-0.1c0-0.1,0-0.2-0.1-0.3c-0.1-0.2-0.1-0.2-0.6-0.3
			c-0.1,0-1,0-1,0c0,0,0,0,0,0.1v2c0,0.1,0,0.1,0.1,0.1c0.1,0,1,0,1.2,0c0.2,0,0.3,0,0.4-0.1c0-0.1,0.1-0.1,0.1-0.1c0,0,0,0,0,0.1
			c0,0,0,0.2-0.1,0.5c0,0.2,0,0.4,0,0.5c0,0.1,0,0.1-0.1,0.1c0,0-0.1-0.1-0.1-0.1c0-0.1,0-0.1,0-0.2c0-0.1-0.1-0.2-0.4-0.3
			c-0.2,0-0.9,0-1.1,0c-0.1,0-0.1,0-0.1,0.1v0.6c0,0.3,0,1,0,1.2c0,0.3,0.1,0.5,0.2,0.6c0.1,0.1,0.3,0.1,0.6,0.1
			c0.2,0,0.4,0,0.7-0.1c0.3-0.1,0.3-0.3,0.4-0.6c0-0.1,0-0.1,0.1-0.1c0.1,0,0.1,0.1,0.1,0.1c0,0.1-0.1,0.6-0.1,0.8
			c0,0.2-0.1,0.2-0.4,0.2c-0.6,0-0.8,0-1.1,0c-0.3,0-0.7,0-1,0c-0.2,0-0.4,0-0.6,0c-0.1,0-0.1,0-0.1-0.1c0,0,0-0.1,0.1-0.1
			c0.1,0,0.1,0,0.2,0c0.2,0,0.3-0.1,0.3-0.7c0-0.3,0-0.7,0-1.3V38z"/>
		<path fill="#B9B9B6" d="M88.9,38c0-1.2,0-1.4,0-1.6c0-0.2-0.1-0.4-0.4-0.4c-0.1,0-0.1,0-0.2,0c-0.1,0-0.1,0-0.1-0.1
			c0,0,0-0.1,0.1-0.1c0.4,0,0.9,0,0.9,0c0.1,0,0.7,0,0.9,0c0.5,0,1,0,1.4,0.3c0.2,0.1,0.5,0.5,0.5,1.1c0,0.5-0.2,1.1-0.9,1.7
			c0.6,0.8,1.2,1.4,1.6,1.9c0.4,0.4,0.7,0.5,0.9,0.5c0.1,0,0.2,0,0.3,0c0.1,0,0.1,0,0.1,0.1c0,0,0,0.1-0.2,0.1h-0.6
			c-0.4,0-0.6,0-0.8-0.1c-0.4-0.2-0.6-0.6-1.1-1.1c-0.3-0.4-0.7-0.9-0.8-1.1c0,0-0.1-0.1-0.1-0.1l-0.9,0c0,0,0,0,0,0v0.1
			c0,0.7,0,1.3,0,1.7c0,0.2,0.1,0.4,0.3,0.4c0.1,0,0.2,0,0.3,0c0.1,0,0.1,0,0.1,0.1c0,0,0,0.1-0.1,0.1c-0.5,0-1,0-1,0
			c-0.1,0-0.5,0-0.8,0c-0.1,0-0.1,0-0.1-0.1c0,0,0.1-0.1,0.1-0.1c0.1,0,0.1,0,0.2,0c0.1,0,0.2-0.1,0.2-0.3c0-0.3,0-1,0-1.7V38z
			 M89.5,38.6c0,0,0,0.1,0,0.1c0.1,0.1,0.5,0.1,0.8,0.1c0.2,0,0.4,0,0.6-0.1c0.3-0.2,0.4-0.6,0.4-1.1c0-1-0.5-1.5-1.3-1.5
			c-0.2,0-0.4,0-0.5,0c0,0-0.1,0-0.1,0.1V38.6z"/>
		<path fill="#B9B9B6" d="M94.6,41.4c-0.1-0.1-0.1-0.1-0.1-0.3c0-0.4,0-0.7,0-0.8c0-0.1,0-0.1,0.1-0.1c0,0,0.1,0,0.1,0.1
			c0,0.1,0,0.2,0,0.3c0.1,0.6,0.6,0.8,1.1,0.8c0.7,0,1.1-0.5,1.1-0.9c0-0.5-0.2-0.8-0.9-1.3l-0.4-0.3c-0.8-0.7-1-1.1-1-1.7
			c0-0.8,0.6-1.4,1.6-1.4c0.3,0,0.5,0,0.7,0.1c0.2,0,0.2,0,0.3,0c0.1,0,0.1,0,0.1,0.1c0,0,0,0.3,0,0.9c0,0.1,0,0.2-0.1,0.2
			c0,0-0.1,0-0.1-0.1c0-0.1,0-0.3-0.1-0.4c0-0.1-0.2-0.4-1-0.4c-0.5,0-0.9,0.3-0.9,0.8c0,0.4,0.2,0.7,0.9,1.2l0.2,0.2
			c0.9,0.7,1.2,1.2,1.2,1.8c0,0.3-0.1,0.9-0.7,1.3c-0.3,0.2-0.8,0.3-1.2,0.3C95.3,41.6,94.9,41.5,94.6,41.4z"/>
		<path fill="#B9B9B6" d="M99.2,38c0-1.2,0-1.4,0-1.6c0-0.2-0.1-0.4-0.3-0.4c-0.1,0-0.1,0-0.2,0c-0.1,0-0.1,0-0.1-0.1
			c0,0,0-0.1,0.1-0.1c0.3,0,0.8,0,0.8,0c0,0,0.5,0,0.8,0c0.1,0,0.1,0,0.1,0.1c0,0,0,0.1-0.1,0.1c-0.1,0-0.1,0-0.2,0
			c-0.3,0-0.3,0.2-0.3,0.4c0,0.2,0,0.4,0,1.6v1.3c0,0.7,0,1.3,0,1.6c0,0.3,0.1,0.4,0.3,0.4c0.1,0,0.3,0,0.3,0c0.1,0,0.1,0,0.1,0.1
			c0,0,0,0.1-0.1,0.1c-0.4,0-1,0-1,0c0,0-0.5,0-0.8,0c-0.1,0-0.1,0-0.1-0.1c0,0,0-0.1,0.1-0.1c0,0,0.1,0,0.2,0
			c0.1,0,0.2-0.2,0.2-0.4c0-0.3,0-0.9,0-1.6V38z"/>
		<path fill="#B9B9B6" d="M102.7,38c0-1.2,0-1.4,0-1.6c0-0.2-0.1-0.4-0.3-0.4c-0.1,0-0.2,0-0.3,0c0,0-0.1,0-0.1-0.1
			c0-0.1,0.1-0.1,0.1-0.1c0.4,0,0.9,0,0.9,0c0.1,0,0.5,0,1,0c0.8,0,2.2-0.1,3.2,0.9c0.4,0.4,0.7,1,0.7,1.9c0,0.9-0.4,1.7-0.8,2.1
			c-0.3,0.3-1,0.9-2.4,0.9c-0.3,0-0.8,0-1.1,0c-0.3,0-0.6,0-0.6,0c0,0-0.1,0-0.3,0c-0.2,0-0.4,0-0.5,0c-0.1,0-0.1,0-0.1-0.1
			c0,0,0-0.1,0.1-0.1c0.1,0,0.1,0,0.2,0c0.1,0,0.2-0.2,0.2-0.4c0.1-0.3,0-0.9,0-1.6V38z M103.4,38.7c0,0.8,0,1.5,0,1.6
			c0,0.3,0,0.5,0.1,0.6c0.1,0.1,0.4,0.3,1.3,0.3c0.7,0,1.4-0.2,1.8-0.7c0.4-0.4,0.6-1,0.6-1.8c0-1-0.5-1.6-0.8-1.9
			c-0.7-0.7-1.6-0.8-2.5-0.8c-0.1,0-0.4,0-0.4,0.1c-0.1,0-0.1,0.1-0.1,0.1c0,0.3,0,1,0,1.5V38.7z"/>
		<path fill="#B9B9B6" d="M110.1,39.3C110.1,39.3,110.1,39.4,110.1,39.3l-0.5,1.2c-0.1,0.2-0.1,0.5-0.1,0.6c0,0.2,0.1,0.2,0.3,0.2
			c0,0,0,0,0.1,0c0.1,0,0.1,0,0.1,0.1c0,0-0.1,0.1-0.1,0.1c-0.2,0-0.6,0-0.7,0c-0.1,0-0.5,0-0.8,0c-0.1,0-0.1,0-0.1-0.1
			c0,0,0-0.1,0.1-0.1c0,0,0.1,0,0.2,0c0.4,0,0.5-0.3,0.7-0.7l1.8-4.6c0.1-0.3,0.1-0.3,0.2-0.3c0,0,0.1,0,0.2,0.3
			c0.1,0.3,1.3,3.4,1.8,4.5c0.3,0.7,0.5,0.8,0.7,0.9c0.1,0,0.2,0,0.3,0c0.1,0,0.1,0,0.1,0.1c0,0,0,0.1-0.1,0.1c-0.1,0-0.7,0-1.3,0
			c-0.2,0-0.2,0-0.2-0.1c0,0,0-0.1,0.1-0.1c0,0,0.1-0.1,0-0.2l-0.7-1.8c0,0,0,0-0.1,0H110.1z M111.6,39C111.7,39,111.7,39,111.6,39
			l-0.7-2c0-0.1-0.1-0.1-0.1,0l-0.7,1.9c0,0,0,0.1,0,0.1H111.6z"/>
		<path fill="#B9B9B6" d="M115.1,38c0-1.2,0-1.4,0-1.6c0-0.2-0.1-0.4-0.3-0.4c-0.1,0-0.2,0-0.3,0c0,0-0.1,0-0.1-0.1
			c0-0.1,0.1-0.1,0.1-0.1c0.4,0,0.9,0,0.9,0c0.1,0,0.5,0,1,0c0.8,0,2.2-0.1,3.2,0.9c0.4,0.4,0.7,1,0.7,1.9c0,0.9-0.4,1.7-0.8,2.1
			c-0.3,0.3-1,0.9-2.4,0.9c-0.3,0-0.8,0-1.1,0c-0.3,0-0.6,0-0.6,0c0,0-0.1,0-0.3,0c-0.2,0-0.4,0-0.5,0c-0.1,0-0.1,0-0.1-0.1
			c0,0,0-0.1,0.1-0.1c0.1,0,0.1,0,0.2,0c0.1,0,0.2-0.2,0.2-0.4c0.1-0.3,0-0.9,0-1.6V38z M115.8,38.7c0,0.8,0,1.5,0,1.6
			c0,0.3,0,0.5,0.1,0.6c0.1,0.1,0.4,0.3,1.3,0.3c0.7,0,1.4-0.2,1.8-0.7c0.4-0.4,0.6-1,0.6-1.8c0-1-0.5-1.6-0.8-1.9
			c-0.7-0.7-1.6-0.8-2.5-0.8c-0.1,0-0.4,0-0.4,0.1c-0.1,0-0.1,0.1-0.1,0.1c0,0.3,0,1,0,1.5V38.7z"/>
		<path fill="#B9B9B6" d="M60.8,51.2c-0.9-0.8-1.1-1.8-1.1-2.6c0-0.6,0.2-1.6,1-2.4c0.5-0.5,1.3-0.9,2.7-0.9c0.4,0,0.8,0,1.3,0.1
			c0.3,0.1,0.6,0.1,0.9,0.1c0.1,0,0.1,0,0.1,0.1c0,0.1,0,0.2,0,0.5c0,0.3,0,0.8,0,0.9c0,0.1,0,0.2-0.1,0.2c-0.1,0-0.1-0.1-0.1-0.2
			c0-0.3-0.1-0.7-0.4-0.9c-0.3-0.3-1-0.5-1.8-0.5c-1.2,0-1.7,0.3-2,0.6c-0.6,0.6-0.8,1.4-0.8,2.3c0,1.7,1.3,3.2,3.2,3.2
			c0.7,0,1.2-0.1,1.5-0.4c0.2-0.2,0.3-0.6,0.3-0.7c0-0.1,0-0.1,0.1-0.1c0,0,0.1,0.1,0.1,0.1c0,0.1-0.1,0.8-0.2,1.1
			c-0.1,0.2-0.1,0.2-0.2,0.3c-0.4,0.1-1,0.2-1.6,0.2C62.4,52.2,61.5,51.8,60.8,51.2z"/>
		<path fill="#B9B9B6" d="M68.3,49.9C68.2,49.9,68.2,49.9,68.3,49.9l-0.5,1.2c-0.1,0.2-0.1,0.5-0.1,0.6c0,0.2,0.1,0.2,0.3,0.2
			c0,0,0,0,0.1,0c0.1,0,0.1,0,0.1,0.1c0,0-0.1,0.1-0.1,0.1c-0.2,0-0.6,0-0.7,0c-0.1,0-0.5,0-0.8,0c-0.1,0-0.1,0-0.1-0.1
			c0,0,0-0.1,0.1-0.1c0,0,0.1,0,0.2,0c0.4,0,0.5-0.3,0.7-0.7l1.8-4.6c0.1-0.3,0.1-0.3,0.2-0.3c0,0,0.1,0,0.2,0.3
			c0.1,0.3,1.3,3.4,1.8,4.5c0.3,0.7,0.5,0.8,0.7,0.9c0.1,0,0.2,0,0.3,0c0.1,0,0.1,0,0.1,0.1c0,0,0,0.1-0.1,0.1c-0.1,0-0.7,0-1.3,0
			c-0.2,0-0.2,0-0.2-0.1c0,0,0-0.1,0.1-0.1c0,0,0.1-0.1,0-0.2l-0.7-1.8c0,0,0,0-0.1,0H68.3z M69.8,49.6
			C69.8,49.6,69.8,49.6,69.8,49.6l-0.7-2c0-0.1-0.1-0.1-0.1,0l-0.7,1.9c0,0,0,0.1,0,0.1H69.8z"/>
		<path fill="#B9B9B6" d="M74.4,49.9c0,0.7,0,1.3,0,1.6c0,0.2,0,0.3,0.3,0.4c0.1,0,0.3,0,0.3,0s0.1,0,0.1,0.1c0,0,0,0.1-0.1,0.1
			c-0.4,0-1,0-1,0c0,0-0.6,0-0.8,0c-0.1,0-0.1,0-0.1-0.1c0,0,0-0.1,0.1-0.1c0.1,0,0.1,0,0.2,0c0.2,0,0.2-0.1,0.2-0.4
			c0-0.3,0-1,0-1.6v-3.1c-0.3,0-0.8,0-1.1,0c-0.6,0-0.7,0.1-0.8,0.3c-0.1,0.1-0.1,0.2-0.1,0.3c0,0.1,0,0.1-0.1,0.1c0,0,0,0,0-0.1
			c0-0.1,0.1-0.6,0.2-0.9c0-0.1,0.1-0.1,0.1-0.1c0.1,0,0.2,0.1,0.4,0.1c0.3,0,0.6,0,0.6,0h2.9c0.2,0,0.5,0,0.6,0c0.1,0,0.1,0,0.2,0
			c0,0,0.1,0,0.1,0.1c0,0.2,0,0.8,0,0.9c0,0.1,0,0.1-0.1,0.1c0,0-0.1,0-0.1-0.1c0,0,0,0,0-0.1c0-0.4-0.1-0.4-1-0.4
			c-0.3,0-0.6,0-0.9,0V49.9z"/>
		<path fill="#B9B9B6" d="M77,49.2c0-1.2,0.9-2.9,3.1-2.9c1.7,0,3.1,1,3.1,2.8c0,1.7-1.2,3.1-3.1,3.1C77.9,52.1,77,50.5,77,49.2z
			 M82.3,49.3c0-1.8-1.1-2.8-2.3-2.8c-1.2,0-2.2,0.8-2.2,2.4c0,1.7,1,2.9,2.4,2.9C80.8,51.8,82.3,51.5,82.3,49.3z M81.2,44.9
			c0.1,0.1,0,0.1,0,0.1c0,0-0.2,0-0.3,0.1c-0.4,0.2-0.9,0.4-1.1,0.6c0,0-0.2,0.1-0.2,0c0,0,0-0.1,0.1-0.1c0.2-0.2,0.7-0.8,0.9-1
			c0.1-0.1,0.2-0.1,0.2-0.1c0,0,0.1,0,0.1,0.1C81,44.7,81.1,44.8,81.2,44.9z"/>
		<path fill="#B9B9B6" d="M85.6,49.9c0,1,0,1.5,0.2,1.7c0.1,0.1,0.3,0.2,0.9,0.2c0.4,0,0.7,0,0.9-0.2c0.1-0.1,0.1-0.3,0.2-0.4
			c0-0.1,0-0.1,0.1-0.1c0,0,0.1,0,0.1,0.1c0,0.1-0.1,0.6-0.1,0.8c-0.1,0.2,0,0.2-0.5,0.2c-0.6,0-1.3,0-2.1,0c-0.3,0-0.5,0-0.8,0
			c-0.1,0-0.1,0-0.1-0.1c0,0,0-0.1,0.1-0.1c0.1,0,0.1,0,0.2,0c0.1,0,0.2-0.2,0.2-0.4c0.1-0.3,0-0.9,0-1.6v-1.3c0-1.2,0-1.4,0-1.6
			c0-0.2-0.1-0.4-0.4-0.4c-0.1,0-0.1,0-0.2,0c-0.1,0-0.1,0-0.1-0.1c0,0,0-0.1,0.1-0.1c0.4,0,0.9,0,0.9,0c0.1,0,0.7,0,0.9,0
			c0.1,0,0.1,0,0.1,0.1c0,0,0,0.1-0.1,0.1c-0.1,0-0.1,0-0.2,0c-0.2,0-0.3,0.2-0.3,0.4c0,0.2,0,0.4,0,1.6V49.9z"/>
		<path fill="#B9B9B6" d="M89.4,48.6c0-1.2,0-1.4,0-1.6c0-0.2-0.1-0.4-0.3-0.4c-0.1,0-0.1,0-0.2,0c-0.1,0-0.1,0-0.1-0.1
			c0,0,0-0.1,0.1-0.1c0.3,0,0.8,0,0.8,0c0,0,0.5,0,0.8,0c0.1,0,0.1,0,0.1,0.1c0,0,0,0.1-0.1,0.1c-0.1,0-0.1,0-0.2,0
			c-0.3,0-0.3,0.2-0.3,0.4c0,0.2,0,0.4,0,1.6v1.3c0,0.7,0,1.3,0,1.6c0,0.3,0.1,0.4,0.3,0.4c0.1,0,0.3,0,0.3,0c0.1,0,0.1,0,0.1,0.1
			c0,0,0,0.1-0.1,0.1c-0.4,0-1,0-1,0c0,0-0.5,0-0.8,0c-0.1,0-0.1,0-0.1-0.1c0,0,0-0.1,0.1-0.1c0,0,0.1,0,0.2,0
			c0.1,0,0.2-0.2,0.2-0.4c0-0.3,0-0.9,0-1.6V48.6z"/>
		<path fill="#B9B9B6" d="M92.8,51.3c-0.7-0.7-0.9-1.5-0.9-2.2c0-0.5,0.2-1.4,0.9-2c0.5-0.5,1.2-0.8,2.4-0.8c0.4,0,0.7,0,1.2,0.1
			c0.3,0,0.6,0.1,0.8,0.1c0.1,0,0.1,0,0.1,0.1c0,0.1,0,0.1,0,0.4c0,0.2,0,0.7,0,0.8c0,0.1,0,0.2-0.1,0.2c-0.1,0-0.1-0.1-0.1-0.2
			c0-0.3-0.1-0.6-0.3-0.8c-0.3-0.2-0.9-0.4-1.6-0.4c-1,0-1.4,0.3-1.7,0.5c-0.6,0.5-0.7,1.2-0.7,1.9c0,1.5,1.2,2.7,2.7,2.7
			c0.6,0,1-0.1,1.3-0.4c0.2-0.2,0.2-0.4,0.3-0.6c0-0.1,0-0.1,0.1-0.1c0,0,0,0.1,0,0.1c0,0.1-0.1,0.8-0.2,1c-0.1,0.1-0.1,0.2-0.2,0.2
			c-0.3,0.1-0.9,0.2-1.4,0.2C94.2,52.1,93.4,51.9,92.8,51.3z"/>
		<path fill="#B9B9B6" d="M99.7,49.9C99.7,49.9,99.6,49.9,99.7,49.9l-0.5,1.2c-0.1,0.2-0.1,0.5-0.1,0.6c0,0.2,0.1,0.2,0.3,0.2
			c0,0,0,0,0.1,0c0.1,0,0.1,0,0.1,0.1c0,0-0.1,0.1-0.1,0.1c-0.2,0-0.6,0-0.7,0c-0.1,0-0.5,0-0.8,0c-0.1,0-0.1,0-0.1-0.1
			c0,0,0-0.1,0.1-0.1c0,0,0.1,0,0.2,0c0.4,0,0.5-0.3,0.7-0.7l1.8-4.6c0.1-0.3,0.1-0.3,0.2-0.3c0,0,0.1,0,0.2,0.3
			c0.1,0.3,1.3,3.4,1.8,4.5c0.3,0.7,0.5,0.8,0.7,0.9c0.1,0,0.2,0,0.3,0c0.1,0,0.1,0,0.1,0.1c0,0,0,0.1-0.1,0.1c-0.1,0-0.7,0-1.3,0
			c-0.2,0-0.2,0-0.2-0.1c0,0,0-0.1,0.1-0.1c0,0,0.1-0.1,0-0.2l-0.7-1.8c0,0,0,0-0.1,0H99.7z M101.2,49.6
			C101.3,49.6,101.3,49.6,101.2,49.6l-0.7-2c0-0.1-0.1-0.1-0.1,0l-0.7,1.9c0,0,0,0.1,0,0.1H101.2z"/>
		<path fill="#B9B9B6" d="M60.6,59.1c0-1.2,0-1.4,0-1.6c0-0.2-0.1-0.4-0.3-0.4c-0.1,0-0.2,0-0.3,0c0,0-0.1,0-0.1-0.1
			c0-0.1,0.1-0.1,0.1-0.1c0.4,0,0.9,0,0.9,0c0.1,0,0.5,0,1,0c0.8,0,2.2-0.1,3.2,0.9c0.4,0.4,0.7,1,0.7,1.9c0,0.9-0.4,1.7-0.8,2.1
			c-0.3,0.3-1,0.9-2.4,0.9c-0.3,0-0.8,0-1.1,0c-0.3,0-0.6,0-0.6,0c0,0-0.1,0-0.3,0c-0.2,0-0.4,0-0.5,0c-0.1,0-0.1,0-0.1-0.1
			c0,0,0-0.1,0.1-0.1c0.1,0,0.1,0,0.2,0c0.1,0,0.2-0.2,0.2-0.4c0.1-0.3,0-0.9,0-1.6V59.1z M61.3,59.9c0,0.8,0,1.5,0,1.6
			c0,0.3,0,0.5,0.1,0.6c0.1,0.1,0.4,0.3,1.3,0.3c0.7,0,1.4-0.2,1.8-0.7c0.4-0.4,0.6-1,0.6-1.8c0-1-0.5-1.6-0.8-1.9
			c-0.7-0.7-1.6-0.8-2.5-0.8c-0.1,0-0.4,0-0.4,0.1c-0.1,0-0.1,0.1-0.1,0.1c0,0.3,0,1,0,1.5V59.9z"/>
		<path fill="#B9B9B6" d="M67.6,59.1c0-1.2,0-1.4,0-1.6c0-0.2-0.1-0.4-0.3-0.4c-0.1,0-0.1,0-0.2,0c-0.1,0-0.1,0-0.1-0.1
			c0-0.1,0-0.1,0.1-0.1c0.2,0,0.4,0,0.9,0c0,0,1.6,0,1.8,0c0.2,0,0.3,0,0.3,0c0.1,0,0.1,0,0.1,0c0,0,0,0,0,0.1
			c0,0.1-0.1,0.2-0.1,0.4c0,0.1,0,0.3,0,0.5c0,0.1,0,0.1-0.1,0.1c0,0-0.1,0-0.1-0.1c0-0.1,0-0.2-0.1-0.3c-0.1-0.2-0.1-0.2-0.6-0.3
			c-0.1,0-1,0-1,0c0,0,0,0,0,0.1v2c0,0.1,0,0.1,0.1,0.1c0.1,0,1,0,1.2,0c0.2,0,0.3,0,0.4-0.1c0-0.1,0.1-0.1,0.1-0.1c0,0,0,0,0,0.1
			c0,0,0,0.2-0.1,0.5c0,0.2,0,0.4,0,0.5c0,0.1,0,0.1-0.1,0.1c0,0-0.1-0.1-0.1-0.1c0-0.1,0-0.1,0-0.2c0-0.1-0.1-0.2-0.4-0.3
			c-0.2,0-0.9,0-1.1,0c-0.1,0-0.1,0-0.1,0.1v0.6c0,0.3,0,1,0,1.2c0,0.3,0.1,0.5,0.2,0.6c0.1,0.1,0.3,0.1,0.6,0.1
			c0.2,0,0.4,0,0.7-0.1c0.3-0.1,0.3-0.3,0.4-0.6c0-0.1,0-0.1,0.1-0.1c0.1,0,0.1,0.1,0.1,0.1c0,0.1-0.1,0.6-0.1,0.8
			c0,0.2-0.1,0.2-0.4,0.2c-0.6,0-0.8,0-1.1,0c-0.3,0-0.7,0-1,0c-0.2,0-0.4,0-0.6,0c-0.1,0-0.1,0-0.1-0.1c0,0,0-0.1,0.1-0.1
			c0.1,0,0.1,0,0.2,0c0.2,0,0.3-0.1,0.3-0.7c0-0.3,0-0.7,0-1.3V59.1z"/>
		<path fill="#B9B9B6" d="M75.4,61.8c-0.9-0.8-1.1-1.8-1.1-2.6c0-0.6,0.2-1.6,1-2.4c0.5-0.5,1.3-0.9,2.7-0.9c0.4,0,0.8,0,1.3,0.1
			c0.3,0.1,0.6,0.1,0.9,0.1c0.1,0,0.1,0,0.1,0.1c0,0.1,0,0.2,0,0.5c0,0.3,0,0.8,0,0.9c0,0.1,0,0.2-0.1,0.2c-0.1,0-0.1-0.1-0.1-0.2
			c0-0.3-0.1-0.7-0.4-0.9c-0.3-0.3-1-0.5-1.8-0.5c-1.2,0-1.7,0.3-2,0.6c-0.6,0.6-0.8,1.4-0.8,2.3c0,1.7,1.3,3.2,3.2,3.2
			c0.7,0,1.2-0.1,1.5-0.4c0.2-0.2,0.3-0.6,0.3-0.7c0-0.1,0-0.1,0.1-0.1c0,0,0.1,0.1,0.1,0.1c0,0.1-0.1,0.8-0.2,1.1
			c-0.1,0.2-0.1,0.2-0.2,0.3c-0.4,0.1-1,0.2-1.6,0.2C77,62.7,76.1,62.4,75.4,61.8z"/>
		<path fill="#B9B9B6" d="M86,59.3C86,59.3,86,59.3,86,59.3l0.1-0.2c0-1.2,0-1.4,0-1.6c0-0.2-0.1-0.4-0.3-0.4c-0.1,0-0.1,0-0.2,0
			c-0.1,0-0.1,0-0.1-0.1c0-0.1,0-0.1,0.1-0.1c0.4,0,0.9,0,0.9,0c0,0,0.5,0,0.8,0c0.1,0,0.1,0,0.1,0.1c0,0,0,0.1-0.1,0.1
			c-0.1,0-0.1,0-0.2,0c-0.2,0-0.3,0.2-0.3,0.4c0,0.2,0,0.4,0,1.6v1.3c0,0.7,0,1.3,0,1.6c0,0.2,0.1,0.4,0.3,0.4c0.1,0,0.2,0,0.3,0
			c0.1,0,0.1,0,0.1,0.1c0,0,0,0.1-0.1,0.1c-0.4,0-1,0-1,0c0,0-0.5,0-0.8,0c-0.1,0-0.1,0-0.1-0.1c0,0,0-0.1,0.1-0.1
			c0.1,0,0.1,0,0.2,0c0.1,0,0.2-0.2,0.2-0.4c0-0.3,0-0.9,0-1.6v-0.8c0,0,0-0.1-0.1-0.1h-3.2c0,0,0,0,0,0.1v0.8c0,0.7,0,1.3,0,1.6
			c0,0.2,0.1,0.4,0.3,0.4c0.1,0,0.2,0,0.3,0c0.1,0,0.1,0,0.1,0.1c0,0,0,0.1-0.1,0.1c-0.4,0-1,0-1,0c0,0-0.6,0-0.8,0
			c-0.1,0-0.1,0-0.1-0.1c0,0,0-0.1,0.1-0.1c0.1,0,0.1,0,0.2,0c0.2,0,0.2-0.2,0.2-0.4c0.1-0.3,0-0.9,0-1.6v-1.3c0-1.2,0-1.4,0-1.6
			c0-0.2-0.1-0.4-0.3-0.4c-0.1,0-0.2,0-0.2,0c-0.1,0-0.1,0-0.1-0.1c0-0.1,0-0.1,0.1-0.1c0.4,0,0.8,0,0.9,0c0,0,0.5,0,0.8,0
			c0.1,0,0.1,0,0.1,0.1c0,0,0,0.1-0.1,0.1c-0.1,0-0.1,0-0.2,0c-0.2,0-0.3,0.2-0.3,0.4c0,0.2,0,0.4,0,1.6v0.2c0,0,0,0,0.1,0H86z"/>
		<path fill="#B9B9B6" d="M89.4,59.1c0-1.2,0-1.4,0-1.6c0-0.2-0.1-0.4-0.3-0.4c-0.1,0-0.1,0-0.2,0c-0.1,0-0.1,0-0.1-0.1
			c0,0,0-0.1,0.1-0.1c0.3,0,0.8,0,0.8,0c0,0,0.5,0,0.8,0c0.1,0,0.1,0,0.1,0.1c0,0,0,0.1-0.1,0.1c-0.1,0-0.1,0-0.2,0
			c-0.3,0-0.3,0.2-0.3,0.4c0,0.2,0,0.4,0,1.6v1.3c0,0.7,0,1.3,0,1.6c0,0.3,0.1,0.4,0.3,0.4c0.1,0,0.3,0,0.3,0c0.1,0,0.1,0,0.1,0.1
			c0,0,0,0.1-0.1,0.1c-0.4,0-1,0-1,0c0,0-0.5,0-0.8,0c-0.1,0-0.1,0-0.1-0.1c0,0,0-0.1,0.1-0.1c0,0,0.1,0,0.2,0
			c0.1,0,0.2-0.2,0.2-0.4c0-0.3,0-0.9,0-1.6V59.1z"/>
		<path fill="#B9B9B6" d="M93.6,60.5c0,1,0,1.5,0.2,1.7c0.1,0.1,0.3,0.2,0.9,0.2c0.4,0,0.7,0,0.9-0.2c0.1-0.1,0.1-0.3,0.2-0.4
			c0-0.1,0-0.1,0.1-0.1c0,0,0.1,0,0.1,0.1s-0.1,0.6-0.1,0.8c-0.1,0.2,0,0.2-0.5,0.2c-0.6,0-1.3,0-2.1,0c-0.3,0-0.5,0-0.8,0
			c-0.1,0-0.1,0-0.1-0.1c0,0,0-0.1,0.1-0.1c0.1,0,0.1,0,0.2,0c0.1,0,0.2-0.2,0.2-0.4c0.1-0.3,0-0.9,0-1.6v-1.3c0-1.2,0-1.4,0-1.6
			c0-0.2-0.1-0.4-0.4-0.4c-0.1,0-0.1,0-0.2,0c-0.1,0-0.1,0-0.1-0.1c0,0,0-0.1,0.1-0.1c0.4,0,0.9,0,0.9,0c0.1,0,0.7,0,0.9,0
			c0.1,0,0.1,0,0.1,0.1c0,0,0,0.1-0.1,0.1c-0.1,0-0.1,0-0.2,0c-0.2,0-0.3,0.2-0.3,0.4c0,0.2,0,0.4,0,1.6V60.5z"/>
		<path fill="#B9B9B6" d="M97.4,59.1c0-1.2,0-1.4,0-1.6c0-0.2-0.1-0.4-0.3-0.4c-0.1,0-0.1,0-0.2,0c-0.1,0-0.1,0-0.1-0.1
			c0-0.1,0-0.1,0.1-0.1c0.2,0,0.4,0,0.9,0c0,0,1.6,0,1.8,0c0.2,0,0.3,0,0.3,0c0.1,0,0.1,0,0.1,0c0,0,0,0,0,0.1
			c0,0.1-0.1,0.2-0.1,0.4c0,0.1,0,0.3,0,0.5c0,0.1,0,0.1-0.1,0.1c0,0-0.1,0-0.1-0.1c0-0.1,0-0.2-0.1-0.3c-0.1-0.2-0.1-0.2-0.6-0.3
			c-0.1,0-1,0-1,0c0,0,0,0,0,0.1v2c0,0.1,0,0.1,0.1,0.1c0.1,0,1,0,1.2,0c0.2,0,0.3,0,0.4-0.1c0-0.1,0.1-0.1,0.1-0.1c0,0,0,0,0,0.1
			c0,0,0,0.2-0.1,0.5c0,0.2,0,0.4,0,0.5c0,0.1,0,0.1-0.1,0.1c0,0-0.1-0.1-0.1-0.1c0-0.1,0-0.1,0-0.2c0-0.1-0.1-0.2-0.4-0.3
			c-0.2,0-0.9,0-1.1,0c-0.1,0-0.1,0-0.1,0.1v0.6c0,0.3,0,1,0,1.2c0,0.3,0.1,0.5,0.2,0.6c0.1,0.1,0.3,0.1,0.6,0.1
			c0.2,0,0.4,0,0.7-0.1c0.3-0.1,0.3-0.3,0.4-0.6c0-0.1,0-0.1,0.1-0.1c0.1,0,0.1,0.1,0.1,0.1c0,0.1-0.1,0.6-0.1,0.8
			c0,0.2-0.1,0.2-0.4,0.2c-0.6,0-0.8,0-1.1,0c-0.3,0-0.7,0-1,0c-0.2,0-0.4,0-0.6,0c-0.1,0-0.1,0-0.1-0.1c0,0,0-0.1,0.1-0.1
			c0.1,0,0.1,0,0.2,0c0.2,0,0.3-0.1,0.3-0.7c0-0.3,0-0.7,0-1.3V59.1z"/>
	</g>
	<path fill="#B9B9B6" d="M35.5,31.3c-0.3,0-0.6-0.2-0.6-0.5c0-0.3,0.2-0.5,0.6-0.5c0.3,0,0.6,0.2,0.6,0.5
		C36.1,31,35.8,31.3,35.5,31.3 M18,52.2c-0.1,0-0.2,0.1-0.2,0.2c0,0.1,0.1,0.2,0.2,0.2c0.1,0,0.2-0.1,0.2-0.2
		C18.1,52.2,18,52.2,18,52.2 M24.8,52.5c0.1,0,0.2-0.1,0.2-0.2c0-0.1-0.1-0.2-0.2-0.2c-0.1,0-0.2,0.1-0.2,0.2
		C24.7,52.4,24.7,52.5,24.8,52.5 M13.3,49.5c-0.5-0.3-1.1-0.1-1.1-0.1s0.2,0.6,0.6,0.8c0.5,0.3,1.1,0.1,1.1,0.1S13.7,49.8,13.3,49.5
		 M12.6,46.9c0,0,0,0.5,0.3,0.9c0.3,0.4,0.9,0.4,0.9,0.4s0.1-0.5-0.3-0.9C13.2,47,12.6,46.9,12.6,46.9 M13.4,48.4
		c-0.4-0.3-1-0.3-1-0.3s0.1,0.6,0.5,0.9c0.4,0.3,1,0.3,1,0.3S13.8,48.8,13.4,48.4 M13.4,45.8c-1.9,0-3.2,1.3-3.2,2.9
		c0,1.5,0.9,2.5,2.6,2.9c0.7,0.1,0.9,0.3,0.9,0.5h0.7v-0.2c0-0.2-0.1-0.6-0.9-0.8c-1.2-0.3-1.9-1.2-1.9-2.3c0-1.3,1.1-2.4,2.7-2.4
		c0.6,0,1.2,0.2,1.7,0.4l0.1-0.1C15.3,46.1,14.4,45.8,13.4,45.8 M14.4,47.3c-0.3,0.4-0.3,0.9-0.3,0.9s0.6,0,0.9-0.4
		c0.3-0.4,0.3-0.9,0.3-0.9S14.8,47,14.4,47.3 M14.6,48.4c-0.4,0.3-0.5,0.9-0.5,0.9s0.6,0.1,1-0.3c0.4-0.3,0.5-0.9,0.5-0.9
		S15,48.1,14.6,48.4 M15.2,50.3c0.5-0.3,0.6-0.8,0.6-0.8s-0.6-0.2-1.1,0.1c-0.5,0.3-0.6,0.8-0.6,0.8S14.7,50.5,15.2,50.3 M14.5,52.6
		h-1l-0.3,2.7c0,0.3,0.3,0.6,0.8,0.6c0.4,0,0.8-0.3,0.8-0.6L14.5,52.6z M17.8,49c0,0.1,0,0.3,0.1,0.5h1.3v0.2H18
		c0.2,0.3,0.5,0.6,1,0.6h0.5c0,0.1,0,0.3,0,0.4H19l-0.2,0h-0.4v0.7h6.2v-0.7h-0.2l-0.2,0h-0.5c0-0.1,0-0.3,0-0.4h0.5
		c0.5,0,0.8-0.3,1-0.6H24v-0.2h1.3c0.1-0.2,0.1-0.3,0.1-0.5v-0.1h-1.9c-0.2,0-0.3,0.1-0.3,0.3v0.5c-0.1,0-0.3,0-0.4,0v-0.5
		c0-0.3,0.2-0.5,0.4-0.7l0.1-0.1l-0.1-0.1c-0.5-0.3-1-0.5-1.6-0.5c-0.5,0-1.1,0.2-1.5,0.5l-0.1,0.1l0.1,0.1c0.3,0.1,0.5,0.4,0.5,0.7
		v0.5c-0.1,0-0.3,0-0.4,0v-0.5c0-0.2-0.2-0.3-0.3-0.3L17.8,49L17.8,49z M22.5,52.6c0,0,0.3-0.5,0.4-0.7h-0.4
		C22.5,52.1,22.5,52.6,22.5,52.6 M20.9,53.8c0.1,0,0.1-0.1,0.2-0.1c0.3-0.1,0.5-0.2,0.7-0.3l0.1-1.5h-1.1L20.9,53.8z M25.7,52.3
		c-0.1-0.1-0.6-0.5-1.1-0.5c-0.5,0-1.3,0.3-1.9,1.5c-0.1,0.2-0.2,0.3-0.4,0.4c0,0,0,0,0,0c-0.2,0.1-0.5,0.3-0.9,0.4
		c-0.3,0.1-0.7,0.3-1,0.4c-0.4,0.2-0.7,0.6-0.7,1c0,0.4,0.3,0.7,0.6,0.9c0.2-0.1,0.4-0.3,0.6-0.4c-0.3-0.2-0.5-0.3-0.5-0.6
		c0-0.3,0.3-0.5,0.7-0.7v0c0.2-0.1,0.4-0.2,0.6-0.3c0.3-0.1,0.7-0.3,0.9-0.4c0.3-0.2,0.5-0.4,0.7-0.7c0.2-0.4,0.4-0.7,0.6-0.8
		c0.2-0.2,0.5,0,1,0c0.5,0,0.9-0.3,0.9-0.3L25.7,52.3 M21.1,55.6c0,0.2,0.1,0.3,0.3,0.3c0.2,0,0.3-0.1,0.3-0.3
		c0-0.2-0.1-0.3-0.3-0.3C21.2,55.4,21.1,55.5,21.1,55.6 M22.1,56.9c0.5-0.3,1-0.6,1-1.2c0-0.4-0.2-0.6-0.4-0.9
		c-0.2,0.1-0.4,0.2-0.7,0.3c0.3,0.1,0.4,0.3,0.4,0.6c0,0.3-0.3,0.4-0.7,0.6c-0.1,0.1-0.2,0.1-0.3,0.2c-0.3,0.2-0.7,0.3-0.9,0.5
		c0,0,0,0,0,0c-0.3,0.2-0.5,0.5-0.5,0.8c0,0.4,0.2,0.7,0.4,0.8c0.1-0.1,0.3-0.3,0.5-0.4c-0.2-0.1-0.3-0.2-0.3-0.4
		c0-0.1,0.1-0.2,0.2-0.3c0,0,0,0,0,0c0,0,0,0,0,0c0,0,0,0,0.1,0c0.3-0.2,0.5-0.3,0.8-0.4C21.9,57,22,56.9,22.1,56.9L22.1,56.9
		 M22,58.9c0.4-0.2,0.7-0.5,0.7-1c0-0.2-0.1-0.4-0.2-0.6c-0.1,0.1-0.3,0.2-0.5,0.2c-0.1,0-0.1,0-0.1,0.1c0.1,0.1,0.2,0.2,0.2,0.3
		c0,0.1,0,0.2-0.1,0.3c0,0,0,0,0,0c0,0,0,0,0,0c0,0,0,0,0,0c0,0,0,0,0,0c0,0,0,0-0.1,0c-0.6,0.4-0.9,0.5-1.1,0.9
		c-0.1,0.1-0.1,0.3-0.1,0.4c0,0.3,0.2,0.6,0.6,0.7l0,0.3c0,0.1,0.1,0.2,0.2,0.2c0.1,0,0.2-0.1,0.2-0.2l0-0.3
		c0.3-0.1,0.6-0.3,0.6-0.7c0-0.1,0-0.1,0-0.2c-0.2,0.1-0.3,0.1-0.3,0.2c-0.1,0.1-0.3,0.1-0.4,0c-0.1-0.1-0.1-0.3,0-0.4
		C21.6,59,21.8,59,22,58.9 M19.9,52c0.1,0.1,0.4,0.6,0.4,0.6s0-0.5,0-0.6H19.9 M19.6,53.6c0.1,0.2,0.3,0.4,0.5,0.6
		c0.2-0.1,0.5-0.2,0.7-0.3c-0.3-0.1-0.5-0.3-0.6-0.5c-0.7-1.3-1.4-1.5-1.9-1.5c-0.5,0-1,0.4-1.1,0.5l0,0.2c0,0.1,0.4,0.3,0.9,0.3
		c0.5,0,0.8-0.2,1,0C19.1,53,19.4,53.3,19.6,53.6 M8.3,47.4c-0.1,0-0.1-0.1-0.1-0.2c0-0.1,0.1-0.1,0.2-0.1l1.2,0.7
		c0.1-0.4,0.3-0.8,0.6-1.2l-0.9-0.7c-0.1-0.1-0.1-0.1,0-0.2c0.1-0.1,0.2-0.1,0.2,0l0.9,0.7c0.3-0.3,0.6-0.5,0.9-0.7l-0.7-0.8
		c-0.1-0.1,0-0.2,0-0.2c0.1-0.1,0.2,0,0.2,0l0.8,0.9c0.5-0.2,1.1-0.4,1.8-0.4c0.9,0,1.8,0.3,2.5,0.8l1.1-1.3c0.1-0.1,0.2-0.1,0.2,0
		c0.1,0.1,0.1,0.2,0,0.2l-1.1,1.3c0.1,0,0.1,0.1,0.2,0.1l0.3,0.3l-0.8,0.9c0,0.1,0,0.1-0.1,0.2l0.1,0l2.5-2c0.1-0.1,0.2,0,0.2,0
		c0.1,0.1,0,0.2,0,0.2l-2.5,2l0,0.4c0,0,0,0.3-0.2,0.7l0.3,0.1l3.4-1.9c0.1,0,0.2,0,0.2,0.1c0,0.1,0,0.2-0.1,0.2l-1.8,1h1.2
		c0.6-0.6,1.4-1,2.4-1c0.9,0,1.8,0.4,2.4,1h1.4h0.6V49c0,0.6-0.3,1.2-0.7,1.5v0.8c0.5,0.1,0.8,0.4,1,0.6l0.3,0.2l-0.1,0.4
		c0,0,0,0.1,0,0.1c-0.1,0.4-0.8,0.7-1.5,0.7c-0.3,0-0.5,0-0.6-0.1l0,0c-0.1,0.1-0.2,0.3-0.4,0.6c-0.1,0.3-0.3,0.5-0.5,0.6
		c0.3,0.3,0.5,0.7,0.5,1.1c0,0.6-0.3,1-0.7,1.3c0.2,0.2,0.3,0.5,0.3,0.9c0,0.5-0.2,1-0.6,1.3c0.1,0.1,0.1,0.3,0.1,0.4
		c0,0.4-0.2,0.8-0.6,1.1c0,0.4-0.4,0.8-0.8,0.8c-0.4,0-0.8-0.3-0.8-0.8C20.2,60.4,20,60,20,59.5c0-0.2,0-0.3,0.1-0.4
		c-0.4-0.3-0.6-0.8-0.6-1.3c0-0.4,0.1-0.6,0.3-0.9c-0.4-0.3-0.7-0.7-0.7-1.3c0-0.4,0.2-0.8,0.5-1.1c-0.2-0.2-0.4-0.4-0.5-0.6
		c-0.1-0.2-0.3-0.4-0.4-0.6l0,0c-0.2,0-0.4,0.1-0.6,0.1c-0.7,0-1.3-0.3-1.5-0.7c0,0,0-0.1,0-0.1l-0.1-0.4l0.3-0.2
		c0.2-0.2,0.6-0.5,1.2-0.6v-0.1v-0.8c-0.4-0.4-0.6-0.9-0.6-1.4v-0.2l-0.9,0.5l-0.1,0.4c0,0.1-0.2,0.7-0.8,1.1
		c-0.3,0.2-0.6,0.2-0.9,0.2c0.3,0.3,0.4,0.6,0.4,0.9v0.2H15l0.3,3.3v0c0,0.7-0.6,1.2-1.4,1.2c-0.8,0-1.4-0.5-1.4-1.2v0l0.3-3.2
		c-0.1,0-0.2,0-0.3-0.1c-2-0.4-3-1.7-3-3.4c0-0.2,0-0.3,0-0.5L8.3,47.4 M41.1,53c0.8,0,1.5-0.6,1.5-1.4h-2.9
		C39.6,52.4,40.3,53,41.1,53 M38,57.2c0,0,1.5-3.4,1.8-3.9c-0.2,0-0.7-0.1-1-0.2c-0.5-0.1-0.8-0.3-1.1-0.5c-0.3-0.2-0.5-0.3-0.8-0.4
		c-0.1,0-0.2,0-0.2,0l-0.3,4.4c0.4,0.2,0.8,0.5,1.1,0.6C37.7,57.3,38,57.2,38,57.2 M36.4,48.1h5h0c0.3,0,0.6-0.3,0.6-0.6
		c0-0.3-0.3-0.6-0.6-0.6c-0.3,0-0.6,0.3-0.6,0.6c0,0,0,0,0,0c-1.1,0.1-3.3,0.1-4.8-0.9c0.1-0.1,0.2-0.3,0.2-0.6
		c0-0.5-0.4-0.8-0.8-0.8c-0.5,0-0.8,0.4-0.8,0.8c0,0.2,0.1,0.4,0.2,0.6c-1.5,1.1-3.7,1-4.7,0.9c0,0,0,0,0,0c0-0.3-0.3-0.6-0.6-0.6
		c-0.3,0-0.6,0.3-0.6,0.6c0,0.3,0.3,0.6,0.6,0.6h0h4.9l0.8,10.5c0,0.1,0.1,0.2,0.2,0.2c0.1,0,0.2-0.1,0.2-0.2L36.4,48.1z M34.1,56.3
		c0,0,0.2-0.2,0.3-0.2L34.1,52c-0.3,0-0.5,0-0.8-0.1c-0.3-0.1-0.6-0.2-0.7-0.3c-0.2,0.3-2.1,3.2-2.4,3.6c0.1,0.1,0.4,0.2,0.6,0.3
		c0.4,0.1,0.9,0.1,1.4,0c0.4,0,0.8-0.1,1.1,0C33.7,55.7,33.9,55.9,34.1,56.3 M29.7,53c0.8,0,1.5-0.6,1.5-1.4h-2.9
		C28.3,52.4,28.9,53,29.7,53 M31.8,51v0.6c0,0.1,0,0.2,0,0.3l0.5-0.8l0.2-0.2l0.2,0.2c0,0,0.3,0.2,0.8,0.3c0.2,0.1,0.4,0.1,0.7,0.1
		l-0.2-2.8l-3.7,0l1.1,2.4H31.8z M28.7,51h2.1l-1-2.2L28.7,51z M39.4,52.7C39.2,52.4,39,52,39,51.6V51h0.5l1.1-2.4h-3.7l-0.2,3.1
		c0.1,0,0.2,0,0.3,0c0.4,0.1,0.7,0.3,0.9,0.5c0.3,0.2,0.5,0.4,0.9,0.4C39.1,52.7,39.3,52.7,39.4,52.7 M41.1,48.8l-1,2.2h2.1
		L41.1,48.8z M43.1,51v0.6c0,1.1-0.9,2-2.1,2c-0.3,0-0.5-0.1-0.7-0.1l0,0.3l-1.9,4.5l-2.2-0.7l-0.1,1v0v0c0,0.4-0.4,0.8-0.8,0.8
		c-0.4,0-0.8-0.3-0.8-0.8l0,0l-0.1-1.5c-0.2,0.1-0.4,0.1-0.6,0c-0.3-0.1-0.6-0.3-0.6-0.5l-3.8-0.7l0.1-0.9l0,0l0,0l0,0h0l1.2-1.8
		c-0.3,0.2-0.7,0.3-1.1,0.3c-1.1,0-2-0.9-2-2V51h0.5l1.1-2.4c-0.6-0.1-1-0.5-1-1.1c0-0.6,0.5-1.1,1.2-1.1c0.5,0,0.9,0.3,1,0.6
		c1.5,0.1,2.7-0.1,3.5-0.6c0-0.1-0.1-0.2-0.1-0.3c0-0.8,0.6-1.4,1.4-1.4c0.8,0,1.4,0.6,1.4,1.4c0,0.1,0,0.2-0.1,0.3
		c0.9,0.5,2.1,0.7,3.5,0.6c0.2-0.4,0.6-0.6,1-0.6c0.6,0,1.2,0.5,1.2,1.1c0,0.6-0.4,1.1-1,1.1l1.1,2.4H43.1z M13.7,33.7
		c-1,0-2.3,0.8-2.3,2.4c0,1.8,1.4,2.6,2.7,3.1c0.1-0.1,0.3-0.2,0.4-0.3l0.1,0c-0.2-0.2-0.7-0.4-1.3-0.9c-0.6-0.4-1.2-0.9-1.2-1.9
		c0-1.1,0.9-1.7,1.6-1.7c0.4,0,0.8,0.1,1.2,0.2c0.3,0.1,0.7,0.4,1.2,0.4c0.8,0,1.1-0.3,1.1-0.3l0.1-0.3c0,0-0.6-0.6-1.2-0.6
		c-0.5,0-1,0.1-1,0.1C14.6,33.8,14.2,33.7,13.7,33.7 M12.9,35.5v0.6c0,0.8,0.7,1.3,1.3,1.7c0.4,0.3,0.9,0.5,1.1,0.8l1.3-0.3
		c0,0,0.5-0.3,0.8-0.5c0.6-0.4,1.3-0.9,1.3-1.7v-0.6H12.9z M16.8,40.7c0.2,0,0.3-0.2,0.2-0.4c0-0.2-0.2-0.3-0.4-0.2l-1.9,0.5
		c-0.2,0-0.3,0.2-0.2,0.4c0,0.2,0.2,0.3,0.4,0.2L16.8,40.7 M14.7,39.4c-0.2,0-0.3,0.2-0.2,0.4c0,0.2,0.2,0.3,0.4,0.2l1.9-0.5
		c0.2,0,0.3-0.2,0.2-0.4c-0.1-0.2-0.2-0.3-0.4-0.2L14.7,39.4 M17.4,42.7c0-0.4-1.3-0.9-1.3-1.3l-0.9,0.2c-0.3,0.3-1.1,0.7-1.1,1.1
		v0.1L17.4,42.7L17.4,42.7 M17.4,32.9h3.1v9.9h1.8v-9.9h3.1v-1.7h-3.1v-3.5h-1.8v3.5h-3.1V32.9z M10.8,36.1c0-1.9,1.5-3,2.9-3
		c0.6,0,1.4,0.1,1.4,0.1s0.5-0.1,0.9-0.1c0.2,0,0.5,0.1,0.7,0.2v-2.7h3.1v-3.5h3v3.5H26v2.9h-3.1v9.7h-3v-9.7h-2.8
		c0.2,0.1,0.7,0.5,0.8,0.6c0.2,0,0.4-0.1,0.5-0.1c0.3,0,0.5,0.2,0.7,0.2c0.1,0,0.2,0,0.2,0.1c0,0.1-0.1,0.2-0.3,0.2
		c-0.2,0-0.4-0.2-0.6-0.2c-0.2,0-0.4,0.1-0.5,0.2l-0.1,0.4h1.5v1.2c0,1.2-0.9,1.8-1.5,2.2c-0.1,0.1-0.3,0.2-0.4,0.2
		c0.1,0.1,0.1,0.2,0.2,0.3c0.1,0.2,0,0.4-0.1,0.6c-0.1,0.1-0.1,0.2-0.2,0.2c0.2,0.1,0.4,0.3,0.4,0.7c0,0.6-0.8,0.8-0.8,0.8v0
		c0.1,0.1,0.1,0.1,0.2,0.2c0.3,0.3,1.1,0.6,1.1,1.3v0.4h-4.6v-0.4c0-0.6,0.5-1,0.9-1.2c-0.2-0.1-0.3-0.2-0.3-0.4
		c-0.1-0.2,0-0.4,0.1-0.6c0.1-0.1,0.1-0.2,0.2-0.2C14.2,40.2,14,40,14,39.8C12.5,39.3,10.8,38.3,10.8,36.1 M39.9,36.9
		c0,0.6,0.5,1.1,1.1,1.1c0.9,0,1.6-0.7,1.6-1.5c0-1.1-0.8-1.8-2-1.8h-1.8l0.6,1.5c0.2-0.5,0.7-0.9,1.4-0.9c0.7,0,1.2,0.5,1.2,1.1
		c0,0.6-0.4,1-1,1c-0.2,0-0.3-0.1-0.3-0.3c0-0.2,0.1-0.3,0.3-0.3c0.1,0,0.4,0,0.4-0.4c0-0.3-0.3-0.5-0.5-0.5
		C40.3,35.9,39.9,36.3,39.9,36.9 M41.5,42.8c0,0-3-7.4-4.3-10.6c-0.4,0.4-1,0.7-1.6,0.7c0,0-0.1,0-0.1,0l5.9,10L41.5,42.8
		 M39.6,41.2l-1.1-1.8V42h1.1V41.2z M37.9,38.2l-0.6-1.1h-3.4l-0.6,1.1V42h1.1V38c0-0.2,0.2-0.3,0.3-0.3c0.2,0,0.4,0.1,0.4,0.3V42
		h1.1V38c0-0.2,0.2-0.3,0.3-0.3c0.2,0,0.3,0.1,0.3,0.3V42h1.1V38.2z M32.5,39.4l-1.1,1.8V42h1.1V39.4z M34.2,36.5h2.7l-1.1-1.9h-0.5
		L34.2,36.5z M35.2,33.7l-0.6-1c-0.3-0.1-0.5-0.3-0.7-0.5c-1.3,3.3-4.3,10.6-4.3,10.6l0.2,0.1L35.2,33.7z M30,38
		c0.7,0,1.1-0.5,1.1-1.1c0-0.6-0.3-1-0.9-1c-0.3,0-0.5,0.1-0.5,0.5c0,0.3,0.2,0.4,0.4,0.4c0.2,0,0.3,0.1,0.3,0.3
		c0,0.2-0.1,0.3-0.3,0.3c-0.6,0-1-0.4-1-1c0-0.6,0.5-1.1,1.2-1.1c0.6,0,1.1,0.3,1.4,0.9l0.6-1.5h-1.8c-1.2,0-2,0.7-2,1.8
		C28.4,37.3,29.1,38,30,38 M35.5,29.2c-0.9,0-1.6,0.7-1.6,1.5c0,0.8,0.7,1.5,1.6,1.5c0.9,0,1.6-0.7,1.6-1.5
		C37.1,29.9,36.4,29.2,35.5,29.2 M43.3,36.5c0,1.2-1,2.1-2.2,2.1c-0.2,0-0.5,0-0.7-0.1l0.9,2.2l0.8,1.9c0.2,0.5-0.1,0.6-0.1,0.6
		l-0.5,0.2c-0.3,0.1-0.5,0-0.7-0.3l-0.5-0.9v0.2h-0.6h-8.2h-0.6v-0.2l-0.5,0.9c-0.1,0.2-0.4,0.4-0.7,0.3l-0.4-0.2
		c0,0-0.3-0.1-0.1-0.6l0.8-1.9l0.9-2.2c-0.2,0.1-0.4,0.1-0.7,0.1c-1.2,0-2.2-0.9-2.2-2.1c0-1.5,1.1-2.5,2.7-2.5h2l1-2.4
		c-0.1-0.3-0.2-0.5-0.2-0.8c0-1.2,1-2.1,2.2-2.1c1.2,0,2.2,1,2.2,2.1c0,0.3-0.1,0.6-0.2,0.8l1,2.4h2C42.2,34,43.3,35,43.3,36.5
		 M16.2,34.4c0.1,0,0.2-0.1,0.2-0.2c0-0.1-0.1-0.2-0.2-0.2c-0.1,0-0.2,0.1-0.2,0.2C16,34.4,16.1,34.4,16.2,34.4 M35.3,15.2
		L35.3,15.2c0,0.2,0.1,0.3,0.1,0.5v0.1c0,0,0,0.2,0,0.3l0,0l0.1,0.2l0-0.2c0.2-0.8,0.7-1.2,1.1-1.5l0,0l0,0c0-0.1,0-0.2,0-0.3l0-0.1
		l-0.1,0l-0.1,0C36.1,14.5,35.8,14.8,35.3,15.2L35.3,15.2z M34.9,16c0-0.3,0-0.6-0.1-0.9c0.1-0.1,0.6-0.5,1.3-1.2l0.7-0.1
		c0.1,0,0.1,0,0.1,0.1l0.1,0.7c0,0.1-0.1,0.2-0.1,0.2s-1.1,0.7-1.1,1.8c0,0.1,0,0.2,0,0.3l0,0c-0.1,0-0.5-0.1-0.6-0.3
		C35.1,16.5,34.9,16.2,34.9,16 M37.3,13.3c0.1,0.2,0.1,1.1,0.1,1.1c0.1-0.1,0.4-0.4,0.4-0.7c0-0.5-0.1-1-0.1-1
		c0-0.1-0.4-0.5-0.6-0.5c-0.1,0-0.2,0.1-0.3,0.3c-0.1,0.2-0.3,0.5-0.4,0.6v0.1C36.7,13.1,37.3,13.1,37.3,13.3 M12.1,18.3l0.5,0.6
		c0.3-0.2,0.6-0.4,0.9-0.6c0,0,0-0.1,0-0.1c0-0.1,0-0.2,0.1-0.3c0.1-0.2,0.2-0.4,0.5-0.5c0.1-0.1,0.2-0.1,0.4-0.1
		c0.3,0,0.5,0.1,0.7,0.3c0.3-0.1,0.6-0.2,0.9-0.2l-0.2-0.8c-0.6,0.1-1.3,0.3-1.9,0.6C13.2,17.6,12.6,17.9,12.1,18.3 M10.9,16.8
		l0.5,0.6c0.4-0.3,0.8-0.6,1.3-0.8c0,0,0-0.1,0-0.1c0-0.3,0.2-0.6,0.5-0.8c0.1-0.1,0.2-0.1,0.4-0.1c0.2,0,0.5,0.1,0.6,0.3
		c0.5-0.2,0.9-0.3,1.4-0.4c0-0.1-0.2-0.8-0.2-0.8c-0.8,0.1-1.6,0.4-2.4,0.7C12.3,15.8,11.5,16.3,10.9,16.8 M11.8,14.8
		C11.8,14.8,11.8,14.8,11.8,14.8c0-0.4,0.2-0.7,0.5-0.8c0.1-0.1,0.2-0.1,0.4-0.1c0.2,0,0.5,0.1,0.6,0.3c0.6-0.2,1.2-0.4,1.8-0.5
		C15,13.3,15,13.1,15,13c0,0-0.1,0-0.2,0c-0.2,0-0.5,0-0.8,0.1l-0.1,0c-0.2,0.1-0.5,0.1-0.8,0.1c-0.4,0-0.8-0.1-1-0.4
		c-0.1-0.1-0.2-0.1-0.2-0.1c0,0-0.1,0-0.1,0c-0.1,0-0.1,0-0.1,0.1c0,0,0,0.1,0,0.2c0,0.1,0,0.1,0,0.2c0,0.7-0.7,1.2-1,1.4l-0.1,0.1
		C10,15,9.9,15.3,9.8,15.3c0.1,0.1,0.2,0.3,0.4,0.5C10.7,15.5,11.3,15.1,11.8,14.8 M30.9,13.3c-0.2,0.1-0.4,0.1-0.6,0.2
		c0.1,0.4,0.1,0.8,0.1,1.1c0,0.1,0,0.3,0,0.4c0.2,0,0.2,0.1,0.3,0.1c0.3-0.8,0.7-1.1,0.8-1.1C31.4,13.8,31.1,13.6,30.9,13.3
		 M30,15.3c0-0.1,0.1-0.4,0.1-0.7c0-0.7-0.1-1.2-0.1-1.4c0.2-0.1,0.7-0.2,1.1-0.4c0.4,0.5,0.8,1.1,1,1.3c-0.2,0.2-0.8,0.7-1,1.5
		C31,15.6,30.4,15.4,30,15.3 M23.1,13.5c-0.2-0.1-0.4-0.1-0.6-0.2c-0.2,0.3-0.4,0.6-0.6,0.8c0,0,0.4,0.3,0.8,1.1
		c0.2,0,0.2,0,0.4-0.1c0-0.1,0-0.3,0-0.4C23,14.2,23.1,13.8,23.1,13.5 M21.4,14.1c0.2-0.2,0.6-0.7,1-1.3c0.4,0.2,0.9,0.3,1.1,0.4
		c0,0.2-0.1,0.7-0.1,1.4c0,0.3,0,0.6,0.1,0.7c-0.4,0.1-0.8,0.2-1,0.3C22.3,14.7,21.7,14.3,21.4,14.1 M22.9,16.5c0,0.4-0.1,0.7-0.2,1
		c0.6-0.1,1-0.3,1.4-0.4c-0.2-0.2-0.4-0.5-0.5-0.7C23.3,16.4,23.1,16.5,22.9,16.5 M22,18c0.2-0.3,0.6-0.9,0.6-1.8
		c0.6-0.2,1-0.3,1.2-0.3c0.3,0.6,0.7,1.1,1,1.3C24.3,17.4,23.4,17.8,22,18 M26.8,17c-0.1,0.1-0.2,0.2-0.3,0.3
		c0.1,0.1,0.2,0.1,0.3,0.2c0.1,0,0.2-0.1,0.3-0.2C26.9,17.2,26.8,17.1,26.8,17 M25.9,17.3c0.2-0.1,0.6-0.5,0.9-1
		c0.3,0.5,0.7,0.8,0.9,1c-0.2,0.1-0.5,0.3-0.9,0.5C26.4,17.6,26.1,17.4,25.9,17.3 M22.1,10.1c-0.1,0-0.3,0.3-0.3,0.7
		c0,0.2,0,0.4,0.3,0.6c0.2-0.4,0.3-0.7,0.3-0.9C22.4,10.4,22.3,10.1,22.1,10.1 M22.2,11.9c-0.2-0.1-0.7-0.5-0.7-1.1
		c0-0.5,0.3-1,0.7-1c0.4,0,0.6,0.5,0.6,0.7C22.7,11,22.3,11.7,22.2,11.9 M30,16.4c-0.1,0.3-0.3,0.5-0.5,0.7c0.3,0.1,0.8,0.3,1.4,0.4
		c-0.1-0.3-0.2-0.6-0.2-1C30.4,16.5,30.2,16.4,30,16.4 M31.5,18c-1.4-0.2-2.3-0.6-2.7-0.8c0.2-0.2,0.7-0.7,1-1.3
		c0.2,0.1,0.5,0.1,1.2,0.3C30.9,17.1,31.3,17.7,31.5,18 M24.5,13.9c0,0.2,0,0.4,0,0.7c0,0,0,0,0,0.1c0.1,0,0.1,0,0.2,0
		c0.3-0.4,0.7-0.4,0.7-0.4S24.9,14.1,24.5,13.9 M26,15.1c0,0-0.1,0.6-1,0.9c0.1,0.1,0.2,0.3,0.3,0.4C26.1,15.7,26,15.1,26,15.1
		 M24.2,15.1c0-0.2-0.1-0.3-0.1-0.5c0-0.4,0-0.8,0.1-1.2c1.1,0.4,2.1,0.8,2.1,1.7c0,0.6-0.4,1.2-1,1.7c-0.4-0.3-0.7-0.7-0.9-1.1
		l0.7-0.2c0.4-0.1,0.7-0.5,0.6-0.8c0-0.1-0.2-0.3-0.3-0.3c0,0-0.1,0-0.1,0c-0.2,0-0.3,0.2-0.3,0.3c0,0,0,0,0,0c0,0-0.1,0-0.1,0
		L24.2,15.1z M31.4,10.1c-0.1,0-0.2,0.3-0.2,0.3c0,0.2,0.1,0.5,0.3,0.9c0.2-0.2,0.3-0.4,0.3-0.6C31.7,10.4,31.5,10.1,31.4,10.1
		 M32.1,10.8c0,0.6-0.5,1-0.8,1.1c-0.1-0.2-0.5-0.9-0.5-1.5c0-0.2,0.2-0.7,0.6-0.7C31.7,9.8,32.1,10.3,32.1,10.8 M27.5,15.1
		c0,0-0.1,0.6,0.7,1.2c0.1-0.1,0.2-0.3,0.3-0.4C27.6,15.7,27.5,15.1,27.5,15.1 M29,13.9c-0.4,0.1-0.9,0.3-0.9,0.3s0.4,0,0.7,0.4
		c0,0,0.1,0,0.2,0c0,0,0,0,0-0.1C29,14.4,29,14.1,29,13.9 M28.2,16.9c-0.7-0.5-1-1.1-1-1.7c0-0.9,1-1.3,2.1-1.7
		c0.1,0.4,0.1,0.8,0.1,1.2c0,0.2,0,0.3-0.1,0.5l-0.7-0.2c0,0-0.1,0-0.1,0c0,0,0,0,0,0c0-0.2-0.1-0.3-0.3-0.3c0,0-0.1,0-0.1,0
		c-0.2,0-0.3,0.1-0.3,0.3c-0.1,0.3,0.1,0.7,0.6,0.8l0.7,0.2C28.9,16.1,28.6,16.5,28.2,16.9 M40.5,17.7l0.1-1.1l1.1-0.2l-1-0.5
		l0.1-1.1l-0.8,0.8l-1-0.5l0,0l0.5,1L38.8,17l1.1-0.2L40.5,17.7z M38.7,14.7c-0.5,0.7-1.1,0.9-1.4,1.4c-0.3,0.5,0.1,1,0.3,1.2
		c0,0,0.5,0.3,0.5,0.4c0.4,0.2,0.7,0.5,0.9,0.7l0,0c0.4,0,0.8,0.1,1.1,0.2l0.6,0.1c0.1,0,0.2,0,0.3,0c0.3,0,0.7-0.1,0.9-0.6
		c0.2-0.4-0.1-1.3,0.3-2.1c0.4-0.7,0.9-0.9,0.9-0.9l0,0c-0.3-0.1-0.5-0.2-0.6-0.2c-0.3-0.1-1.1-0.7-1.1-1.4c0-0.1,0-0.1,0-0.2
		c0-0.1,0-0.1,0-0.2c0,0,0,0-0.1,0.1c-0.2,0.3-0.6,0.4-1,0.4c-0.3,0-0.6-0.1-0.8-0.1c-0.1,0-0.4-0.1-0.7-0.4l0,0
		C38.9,13.4,39.1,14.2,38.7,14.7 M36.9,16c0.1-0.3,0.4-0.5,0.7-0.7c0.2-0.2,0.5-0.4,0.7-0.6c0,0,0.1-0.1,0.1-0.1l0.1-0.1
		c0.1-0.1,0.1-0.3,0.1-0.5c0-0.2,0-0.4-0.1-0.5l0-0.2l0.1-0.1c0.1,0,0.2-0.1,0.2-0.1l0.2-0.1l0.1,0.1c0.3,0.2,0.6,0.3,0.6,0.4
		c0.2,0.1,0.4,0.1,0.7,0.1c0.3,0,0.5-0.1,0.6-0.2c0.1-0.1,0.2-0.2,0.4-0.2c0.1,0,0.2,0,0.2,0.1c0.1,0,0.3,0.1,0.3,0.4
		c0,0,0,0.1,0,0.2c0,0,0,0.1,0,0.1c0,0.5,0.7,0.9,0.8,1c0.1,0,0.3,0.1,0.6,0.2l0.2,0l0.1,0.6l-0.1,0.1c-0.3,0.2-0.7,0.4-0.8,0.7
		l-0.1,0.1h0c0,0,0,0.1,0,0.1c-0.1,0.3-0.1,0.5-0.1,0.7l0,0.4c0,0.3,0,0.5-0.1,0.8c-0.1,0.2-0.2,0.3-0.4,0.4c-0.3,0.2-0.6,0.3-1,0.3
		c-0.1,0-0.2,0-0.4,0l-0.6-0.1c-0.3-0.1-0.7-0.2-1-0.2l-0.2,0l-0.1-0.1c-0.2-0.3-0.5-0.5-0.9-0.7c0,0-0.5-0.4-0.5-0.4
		c-0.4-0.3-0.6-0.7-0.6-1.1C36.8,16.3,36.8,16.2,36.9,16 M19.7,17.2c0.3,0,0.3-0.3,0.4-0.5c0.1-0.1,0.5-0.1,0.5-0.4
		c0-0.3-0.4-0.3-0.5-0.4c-0.1-0.1-0.1-0.5-0.4-0.5c-0.2,0-0.3,0.2-0.3,0.4v0.9C19.4,17,19.5,17.2,19.7,17.2 M9.2,20.4
		c-0.2-0.1-0.4-0.2-0.5,0c-0.2,0.2,0.1,0.4,0.1,0.6c0,0.2-0.2,0.4,0,0.6c0.3,0.2,0.4-0.1,0.6-0.1c0.2,0,0.4,0.2,0.6,0
		c0.1-0.2,0.1-0.3-0.1-0.5L9.2,20.4z M26.9,69.4c14.4-0.1,26-11.5,26-25.4c0-5.5-1.9-10.5-5-14.7c-0.2-0.1-0.9-0.3-1-1.3
		c-4.8-5.6-12.1-9.2-20.3-9.2c-8,0-15.2,3.6-20,9.2c-0.1,0.5-0.3,0.8-0.5,1c-0.1,0.1-0.3,0.2-0.5,0.3c-3.2,4.2-5,9.4-5,15
		C0.7,58.2,12.5,69.5,26.9,69.4 M7.2,26.5c0,0-0.9,0.3-1,0.4C6,26.9,5.8,27,5.9,27c0.2,0,0.3,0.1,0.4,0.2c0,0,0.1,0.1,0.1,0.1
		C6.8,26.9,6.8,26.9,7.2,26.5 M7.5,21.2L7.5,21.2L7.5,21.2z M3.9,27.6c0,0.7,0.6,1.3,1.1,1.3c0.6,0,1.1-0.4,1.1-1.1
		c0-0.2-0.2-0.3-0.4-0.3c-0.1,0-0.2,0-0.3,0.1c-0.1,0.1-0.1,0.2-0.1,0.2c0,0.2-0.1,0.4-0.4,0.4c-0.2,0-0.4-0.2-0.4-0.5
		c0-0.3,0.2-0.6,0.7-0.9c0.2-0.1,0.3-0.2,0.6-0.3l1-0.4v0c0.1,0,0.3-0.2,1.3-0.7c0.8-0.5,1.5-1,2.2-1.7c0,0,0,0,0.1-0.1
		c1.1-1,1.8-1.9,2.3-2.5c0.2-0.3-0.3-0.7-0.5-0.5c-0.2,0.2-0.9,1.1-1.4,1.6l-0.1,0.1c-0.5,0.5-1,0.8-1.5,0.8c-0.7,0-1.2-0.4-1.4-0.5
		c-0.5-0.4-0.7-0.9-0.8-1.4c-0.1-0.6,0.2-1.1,0.4-1.4c0.9-1,2-1,2-1c0.2,0,0.4-0.2,0.4-0.3c0-0.2-0.2-0.3-0.4-0.3
		c-0.1,0-1.5,0-2.6,1.3c-0.4,0.5-0.6,1.2-0.6,1.9c0.1,0.7,0.4,1.4,1,1.9c0.5,0.4,1,0.6,1.6,0.7c-0.6,0.3-1.4,0.7-2.3,0.7
		c-0.3,0-1.2,0-1.5-0.3c-0.1-0.1-0.1-0.1-0.1-0.2c0-0.2-0.2-0.3-0.4-0.3c-0.2,0-0.4,0.2-0.4,0.3c0,0.8,0.7,1.2,2.3,1.2l0.2,0
		l-0.4,0.2l-1,0.4c-0.3,0.1-0.4,0.2-0.7,0.3C4.2,26.6,3.9,27,3.9,27.6 M7.6,18v-0.6H7.3v-0.6h1.9c0-0.4-0.1-0.6-0.6-0.9H5.1v0.9h0.3
		l0,0.6H5.1V18h1.1v-0.6H5.9v-0.6h0.8v0.6H6.5V18L7.6,18z M9.9,17.8c-0.2-0.3-0.4-0.5-0.5-0.6H8v0.9c0.8-0.4,1.5-0.4,1.6-0.4
		C9.7,17.7,9.8,17.8,9.9,17.8 M10.5,20.6C10.5,20.5,10.5,20.5,10.5,20.6l0.8-1.1c0,0,0-0.3-0.2-0.5c-0.2-0.2-0.5-0.3-0.5-0.3l-1,1.2
		c0,0,0,0-0.1-0.1c-0.2-0.2-0.4-0.2-0.7-0.2c0,0-0.1,0-0.1,0c-0.3,0-0.5,0.2-0.7,0.4c-0.2,0.2-0.3,0.5-0.2,0.8
		c0,0.1,0.1,0.4,0.2,0.4c0,0.1-0.1,0.2-0.1,0.4c0,0.5,0.5,1,1.1,1c0.2,0,0.5-0.1,0.5-0.1c0.1,0,0.3,0.1,0.5,0.1c0.5,0,1-0.4,1-1.1
		C10.9,21,10.8,20.8,10.5,20.6 M11.1,20.6c0.1,0.1,0.2,0.4,0.2,0.7v0c0.3-0.3,0.5-0.6,0.7-0.8c-0.1-0.1-0.2-0.2-0.4-0.5
		C11.4,20.2,11.2,20.5,11.1,20.6 M10,14c-0.9,0.7-1.3,1.3-1.1,1.7c1,1.6,3.8,4.7,3.8,4.7c0,0,1-0.9,2-1.4c1.2-0.5,2.4-0.6,2.4-0.6
		s-0.7-4-1.3-5.8c-0.1-0.3-0.5-0.4-0.9-0.4c-0.8,0-1.4,0.3-1.8,0.3c-0.1,0-0.2,0-0.3-0.1c-0.3-0.3-0.7-0.6-1.4-0.3
		c-0.7,0.3-0.7,0.8-0.6,1.2c0,0.3-0.3,0.5-0.6,0.7L10,14 M16.1,12.5c0,0.5,0.1,0.6,0.4,0.9c0,0,0,0,0,0l1.2-1.4l0.5,0.4L18,12.6
		l0.5,0.4l0.7-0.8l-0.5-0.4L18.5,12L18,11.7l0.5-0.6l0.5,0.4l-0.2,0.2l0.5,0.4l0.7-0.8l-0.5-0.4L19.4,11l-0.5-0.4l0.2-0.2l-0.7-0.6
		L16.1,12.5z M18.8,13.3c0.3-0.1,0.6-0.1,1-0.1c0.3,0,0.5,0.1,0.8,0.1c0.2-0.2,0.4-0.4,0.6-0.8c-0.6-0.4-0.9-1.1-0.9-1.1L18.8,13.3z
		 M18.6,17.9C18.6,17.9,18.6,17.9,18.6,17.9c-0.2-0.2-0.3-0.4-0.4-0.6h-0.8c0,0.3,0.1,0.4,0.1,0.6C17.8,17.9,18.2,17.9,18.6,17.9
		 M16.8,14.6c0.1-0.2,0.7-0.8,1.5-1.1c-0.3-0.2-0.7-0.6-0.7-0.6c-0.2,0.2-0.5,0.6-0.9,1.1L16.8,14.6 M16.9,15.8
		c-0.1,0.3-0.1,0.6,0.2,0.9c0,0,0,0,0.1,0.1l0,0h1.4c0,0,0,0.1,0,0.1c0,0.5,0.4,1,1.1,1c0.7,0,0.9-0.6,1-0.7c0.1,0,0.7-0.3,0.7-1
		c0-0.7-0.6-0.9-0.7-1c0-0.1-0.3-0.7-1-0.7c-0.6,0-1.1,0.5-1.1,1c0,0,0,0.1,0,0.1L16.9,15.8L16.9,15.8 M15.9,20
		c0,0.3-0.1,0.5-0.4,0.6c1.1-0.5,2.2-0.9,3.3-1.2c-0.6,0-1.2,0-1.6,0c-0.4,0-1,0-1.2,0c-0.1,0.1-0.2,0.3-0.2,0.5
		C15.9,19.8,15.9,19.9,15.9,20 M15.4,20.6c-0.3,0.1-0.6,0-0.8-0.2c-0.1-0.1-0.4-0.3-0.5-0.2c-0.1,0.1-0.5,0.6-0.8,0.9
		c-0.3,0.3-0.6,0.8-1,1.2C13.3,21.7,14.4,21.1,15.4,20.6 M15.4,19.9c0,0-0.1-0.5,0.1-0.8c-0.4,0.1-1,0.4-1.3,0.6
		c0.4,0.1,0.7,0.4,0.7,0.4c0.1,0.1,0.2,0.1,0.3,0.1C15.4,20.2,15.4,20,15.4,19.9 M22.1,9.1c-0.8,0-1.4,0.8-1.4,1.7
		c0,1,0.8,1.5,1.1,1.7c-0.2,0.2-0.6,0.8-1,1.2c-0.2-0.1-0.5-0.2-0.9-0.2c-1.7,0-2.6,1.1-2.7,1.1c-0.1,0.1-0.1,0.2-0.1,0.2
		c0,0.1,0.1,0.2,0.1,0.2c0.1,0.1,0.1,0.1,0.2,0.1c0.1,0,0.2,0,0.3-0.1c0,0,0.8-0.9,2.1-0.9c0.3,0,0.9,0.2,1.4,0.6
		c0.4,0.4,0.6,0.9,0.6,1.5c0,1-0.6,2-2.2,2l-0.2,0c-0.6,0-1.7,0-2,0c-0.2,0-0.2,0.7,0,0.7c0.5,0,1.2,0,1.7,0c3.4,0,5.6-1.1,6-1.3
		c0.3,0.2,1.2,0.8,1.5,0.8c0.3,0,1.2-0.6,1.5-0.8c0.3,0.2,1.8,1,4.7,1.2l0.3,0l-0.1-0.1L33,18.5c0,0-0.2-0.1-0.2-0.2l0-0.3l-0.1,0
		c-1-0.5-1-1.6-1-1.7c0-0.3,0.1-0.7,0.2-1l0,0l0,0c0,0,0-0.1,0-0.1c0-0.3,0.2-0.6,0.5-0.6h0.1c0,0,0.1-0.4,0.6-0.7l0.4-0.3
		c0,0-0.7,0.2-0.7,0.2c-0.1-0.2-0.6-0.6-1-1.2c0.7-0.4,1.1-1,1.1-1.7c0-0.9-0.7-1.7-1.4-1.7c-0.7,0-1.3,0.7-1.3,1.4
		c0,0.7,0.4,1.5,0.6,1.8c-0.2,0.1-0.6,0.2-0.9,0.3c-0.1-0.2-0.3-0.8-0.7-1.4L29,11l-0.1,0.1c-0.1,0.1-0.2,0.2-0.3,0.3l-0.1,0.1
		l0.1,0.1c0.3,0.4,0.5,0.9,0.6,1.2c-0.9,0.3-1.9,0.6-2.4,1.4c-0.5-0.7-1.4-1.1-2.4-1.4c0.1-0.2,0.2-0.6,0.6-1.2l0.1-0.1L25,11.4
		c-0.1-0.1-0.2-0.2-0.4-0.3L24.5,11l-0.1,0.1c-0.4,0.6-0.6,1.2-0.7,1.5c-0.3-0.1-0.6-0.2-0.9-0.3c0.2-0.3,0.6-1.1,0.6-1.8
		C23.4,9.8,22.9,9.1,22.1,9.1 M24.1,11c-0.1-0.1-0.2-0.2-0.3-0.4c0,0.4-0.2,0.9-0.4,1.4c0.1,0,0.1,0,0.2,0.1
		C23.7,11.7,23.9,11.4,24.1,11 M28.3,12c-0.5,0.3-1,0.6-1.6,0.6c-0.5,0-1.1-0.2-1.6-0.6c-0.1,0.2-0.2,0.4-0.3,0.6
		c0.7,0.2,1.4,0.6,1.9,1c0.5-0.5,1.2-0.8,1.9-1C28.5,12.4,28.4,12.2,28.3,12 M30.2,12c-0.3-0.5-0.4-1-0.4-1.4
		c-0.1,0.1-0.2,0.3-0.3,0.4c0.2,0.3,0.4,0.7,0.6,1.1C30.1,12.1,30.1,12.1,30.2,12 M26.8,11.9c1,0,2.4-1.3,3.2-2.9H29
		c-0.6,1.1-1.5,2-2.2,2c-0.7,0-1.7-0.9-2.2-2h-0.9C24.3,10.5,25.7,11.9,26.8,11.9 M22.1,8.6h9.1V7.9h-9.1V8.6z M25.4,5
		c-1.4,0-2.3,1-2.3,2.4v0H24c0-0.8,0.4-1.6,1.6-1.6c0.6,0,1,0.4,1.2,0.7C27,6.2,27.4,5.8,28,5.8c1,0,1.5,0.8,1.6,1.6h0.8
		c0,0,0,0,0,0C30.4,6,29.5,5,28.1,5c-0.3,0-0.6,0.1-0.9,0.2V2.6h1.3V1.8h-1.3V0.6h-0.9v1.3h-1.3v0.8h1.3v2.6C26.1,5.1,25.8,5,25.4,5
		 M33.8,11.8c-0.4-0.1-0.7-0.4-0.7-0.4S33,12,32.2,12.6c0.2,0.3,0.5,0.6,0.6,0.8c0.2-0.1,0.5-0.1,0.8-0.1c0.3-0.2,0.7-0.6,0.8-0.7
		c0,0,0,0,0,0C34.2,12.3,34,12.1,33.8,11.8 M32.5,17.5c-0.1-0.2-0.2-0.5-0.2-0.5l0.1-0.4c0,0,0.2-0.3,0.3-0.5c0,0-0.1-0.1-0.2-0.2
		c-0.2,0-0.3-0.1-0.4-0.1c0,0.2-0.1,0.3-0.1,0.5v0C32,16.5,32.1,17.1,32.5,17.5 M36.3,19.3c-0.4,0-1,0-1.6,0
		c1.1,0.3,2.2,0.8,3.3,1.2c-0.2-0.1-0.4-0.4-0.4-0.6c0-0.2,0-0.4,0-0.5c-0.1-0.1-0.2-0.1-0.3-0.2C37.1,19.3,36.6,19.3,36.3,19.3
		 M34.1,17.9c0.6,0,1.2,0,1.7,0c-0.1-0.1-0.1-0.2-0.2-0.3c0,0,0,0,0,0c-0.1,0-0.4-0.1-0.4-0.1l-0.5-0.5c0,0-0.1-0.1-0.1-0.1
		c-0.1,0-0.1,0-0.1,0s-0.1-0.2-0.2-0.2l0-0.2c0,0-0.2,0.2-0.3,0.3c0,0.1,0,0.2,0,0.2c0,0.2,0.1,0.4,0.1,0.6
		C34,17.8,34.1,17.9,34.1,17.9 M34.2,19l2.1,0c0.4,0,0.3-0.7-0.1-0.7c-0.4,0-1.9,0-1.9,0v0.1v0l0,0c0,0.1,0,0.1,0,0.2
		c0,0.1,0,0.1,0,0.2L34.2,19z M41.7,20.6c0.3,0.3,0.6,0.7,1,1.1c0.1-0.1,0.2-0.2,0.2-0.2l-0.4-0.1c-0.2-0.2-0.2-0.4-0.2-0.6
		c0,0,0-0.1-0.1-0.1C42,20.7,41.8,20.7,41.7,20.6 M41.2,22.3c-0.4-0.5-0.7-0.9-1-1.2c-0.2-0.3-0.5-0.6-0.7-0.8
		c-0.1,0-0.2-0.1-0.3-0.1c-0.1,0-0.2,0.1-0.3,0.2c-0.2,0.1-0.5,0.3-0.8,0.2C39.2,21.1,40.2,21.7,41.2,22.3 M40.4,20.8
		c0.3,0.4,0.8,0.9,1.2,1.5l0.1,0.1l0.1,0c0.1,0,0.2-0.1,0.4-0.1h0.3L42.3,22c-0.5-0.5-0.9-1.1-1.3-1.6
		C40.9,20.2,40.1,20.4,40.4,20.8 M33.9,11L33.4,11c0.1,0.2,0.6,0.3,0.8,0.4c0,0,0,0.1,0,0.1c0.1,0.3,0.3,0.5,0.6,0.7l0.1,0.4
		c0,0.1-0.3,0.5-0.7,0.8c-0.2,0.1-0.3,0.2-0.4,0.3c-0.2,0.2-0.4,0.4-0.4,0.4c0,0-0.4,0.3-0.5,0.5c-0.1,0.2-0.2,0.4-0.1,0.6
		c-0.1,0-0.2,0.1-0.3,0c0,0,0-0.1,0-0.1c0-0.2-0.1-0.1-0.2,0c0,0.1,0,0.1,0,0.2c0.1,0.2,0.3,0.2,0.5,0.2c0.1,0.1,0.2,0.2,0.2,0.3
		c0.1,0.1,0.2,0.2,0.2,0.2c0.1,0.2-0.2,0.7-0.4,0.9l0,0.1c0,0,0.1,0.2,0.2,0.4c0.1,0.3,0.1,0.6,0.2,0.9l0.2,0.2l0.1,0.2l0.1,0.1
		c0.1,0.1,0.2,0.1,0.4,0.1c0.1,0,0.1-0.1,0.1-0.2c0-0.1-0.3-0.3-0.3-0.4c-0.1-0.1-0.1-0.2-0.2-0.2c0-0.3-0.1-0.7-0.1-1
		c0.1-0.1,0.4-0.3,0.5-0.6c0.2-0.2,0.4-0.5,0.4-0.6c0.1,0,0.2,0.1,0.2,0.2c0.1,0.2,0,0.4,0,0.4l0.1,0.1c0.3,0.1,0.8,0.5,0.8,0.5
		l0.5,0.1l0.1,0.1l0,0c0.1,0.4,0.4,0.7,0.7,1l0,0l0.7,0.5c0.2,0.1,0.4,0.3,0.5,0.4c0.1,0.3,0.1,0.6,0.1,0.7c0,0.1,0,0.2,0.1,0.2
		c0.1,0,0.2,0,0.3-0.1c0.1-0.1,0.5-0.4,0.7-0.4c0.2,0,0.4,0.1,0.6,0.1l0.8,0.2h0c0.4,0.1,0.7,0.1,1.1,0c0,0,0,0,0,0l0,0.1
		c0.2,0,0.4,0,0.6-0.1l0.3,0.5c0,0.1,0,0.4,0.1,0.4c0.1,0,0.6-0.2,0.7-0.2c0,0,0,0.1,0,0.2c0,0.3-0.2,0.3-0.2,0.7l-0.5,0.9
		c-0.2,0-0.3-0.1-0.6-0.1c-0.1,0-0.2,0.1-0.2,0.1l0,0.1c0,0,0.2,0,0.2,0c0,0,0.1,0,0.1,0.1c-0.2,0-0.4,0.2-0.4,0.2l0,0.1
		c0,0,0.3-0.1,0.4-0.1c0.1,0,0.2,0,0.2,0c-0.1,0.1-0.1,0.3-0.1,0.3l0.1,0.1c0,0,0.2-0.3,0.4-0.3c0.2,0,0.4,0.3,0.4,0.3l0.1,0
		c-0.1-0.2-0.2-0.5-0.3-0.5l0.5-0.9c0,0,0.1,0,0.2,0.1c0.1,0.1,0.2,0.3,0.2,0.3l0.3-0.6l-0.2,0.9c0,0,0.3,0.2,0.3,0.2h0l0.3-0.1
		c0,0,0,0,0,0c0,0,0.2-1,0.2-1.1c0-0.1,0-0.4,0-0.5c0,0,0.1,0,0.2,0c0.3,0,0.6-0.4,0.8-0.5c-0.1,0.2-0.2,0.5-0.2,0.6
		c0,0.1,0,0.4,0,0.4c-0.1,0.2-0.2,0.4-0.2,0.6c0,0,0,0.1,0,0.1c0.3-0.3,0.6-0.7,0.6-1.1l0-0.2c0-0.4-0.2-0.8-0.3-1
		c-0.2-0.2-0.2-0.4-0.2-0.6c0-0.2,0.1-0.3,0.2-0.5c0.1-0.1,0.3-0.2,0.5-0.2c0.2,0,0.4,0.1,0.6,0.3c0.4,0.5,0.7,1.2,0.7,1.9l0,0.3
		c0,0.2-0.1,0.4-0.1,0.5c0.4-0.7,0.6-1.1,0.8-1.9c0.3-1.2,0.1-1.6,0-2.3c0-0.4-0.1-0.8-0.6-0.8c-0.5,0-0.5,1.3-1.3,1.4
		c-0.1,0-0.2-0.1-0.3-0.1l0-0.4c0.1,0,0.5-0.2,0.4-0.5c0-0.1,0-0.1,0-0.2c0.3-0.3,0.4-0.5,0.4-0.7l0.4-0.1l-0.2-0.1l0.1-0.2l-0.2,0
		l0-0.2l-0.2,0l-0.1-0.3l-0.3,0.4c-0.1,0-0.2,0-0.3,0c-0.1,0-0.3,0-0.4,0.2L45.4,16c0.3-0.1,0.4,0,0.4,0.2c0,0.1,0.1,0.3,0.2,0.4
		l-0.1,0.1c-0.1,0-0.3-0.1-0.5-0.1c-0.2,0-0.4,0.2-0.5,0.3c-0.1,0-0.2,0-0.3,0.1L44.4,17c-0.1-0.1-0.2-0.1-0.2-0.3
		c0-0.2,0.5-0.3,0.6-0.7c-0.3,0.1-0.6,0.3-0.8,0.5c-0.3,0.2-0.4,0.4-0.4,1.3c0,1-0.2,1.2-0.2,1.2s0.1,0.7,0,0.8
		c-0.1,0.1-0.7,0.6-0.7,0.6l-0.3-0.6c0,0,0-0.1,0-0.1c0,0,0.1,0,0.1-0.1c0.2-0.2,0.4-0.4,0.5-0.7c0.2-0.4,0.2-0.9,0.2-1.3
		c0-1.3,0.1-1.3,1.3-1.9l-0.3-1.5l-0.3,0.1c-0.2,0-0.5-0.1-0.8-0.2c-0.2-0.1-0.7-0.4-0.6-0.7c0.1-0.6-0.1-1-0.6-1.2
		c-0.5-0.2-0.9-0.1-1.3,0.3c-0.1,0.1-0.2,0.1-0.4,0.1c-1,0-1.4-0.8-1.4-0.8l-1,0.6c0,0-0.2-0.3-0.5-0.5c-0.2-0.1-0.4-0.4-0.6-0.3
		c-0.1,0-0.4,0.4-0.5,0.4c-0.1,0.1-0.2,0.3-0.3,0.3c-0.1-0.1-0.5-0.5-0.7-0.7c-0.1-0.1-0.3-0.2-0.3-0.2c0-0.1,0.6-0.2,0.5-0.4
		c0-0.2-0.4-0.2-0.4-0.2c-0.1-0.1-0.3-0.2-0.4-0.2l-0.2-0.5l-0.1,0.3l-0.2-0.2l0,0.4l-0.3-0.1l0.1,0.3l-0.4-0.1L33.9,11z M47.1,27.3
		c0,0,0.1-0.3,0.5-0.3c0,0-0.1-0.1-0.3-0.2l-1.1-0.5C46.6,26.7,46.7,26.9,47.1,27.3 M47.1,21.3c0-0.1,0-0.2,0-0.3
		c0-0.6-0.2-1.3-0.6-1.7c-0.1-0.1-0.3-0.2-0.4-0.2c-0.1,0-0.2,0-0.2,0.1c0,0.1-0.1,0.1-0.1,0.2c0,0.1,0.1,0.2,0.1,0.3
		c0.2,0.2,0.4,0.7,0.4,1.2c0,0.1,0,0.1,0,0.2c0,0.5-0.3,1-0.8,1.4c-0.2,0.1-0.8,0.5-1.4,0.5c-0.1,0-0.1,0-0.2,0c0,0-0.1,0-0.1,0
		l-0.2,0c0,0,0.1,0.4,0,0.6c-0.1,0.2-0.6,0-0.6,0L43,23.7l0.3,0.2c0.7,0.6,1.3,1.1,2,1.5l0,0c0.2,0.1,1.2,0.6,1.2,0.6l1.1,0.4
		c0.2,0.1,0.4,0.1,0.6,0.3c0.5,0.3,0.7,0.6,0.7,0.9c0,0.3-0.3,0.6-0.5,0.6c-0.1,0-0.3-0.1-0.3-0.5c0-0.2-0.2-0.3-0.4-0.3
		c-0.2,0-0.4,0.2-0.4,0.3c0,0.7,0.4,1.1,1.1,1.1c0.7,0,1.1-0.6,1.1-1.2c0-0.6-0.3-1.1-1-1.5c-0.2-0.1-0.4-0.2-0.7-0.3c0,0,0,0-1-0.4
		c0,0-0.3-0.1-0.4-0.2l0.3,0c0.7,0,2.3,0,2.3-1.2c0-0.2-0.2-0.3-0.4-0.3c-0.1,0-0.2,0-0.3,0.1c-0.1,0.1-0.1,0.2-0.1,0.2
		c0,0.2-0.2,0.5-1.6,0.5c-0.9,0-1.7-0.4-2.3-0.7c0.6,0,1.1-0.3,1.6-0.7C46.7,22.6,47,22,47.1,21.3 M48.7,29.3
		c3,4.1,4.7,9.2,4.8,14.6c0.1,14.3-11.8,26-26.6,26.1C12.2,70.1,0.1,58.5,0,44.2c0-5.5,1.7-10.7,4.8-14.9c-0.7-0.1-1.4-0.8-1.4-1.7
		c0-1.4,1.6-2.1,1.7-2.1C4.8,25.4,3.9,25,3.9,24c0-0.4,0.4-0.9,0.9-0.9c0.5,0,0.8,0.3,0.9,0.8c0.1,0,0.4,0.1,1.1,0.1
		c0.3,0,0.6,0,0.9-0.1c-0.2-0.1-1.7-1-1.7-2.8c0-1.5,1-2.3,1.2-2.4H4.5v-3.4h3.8c0.1-0.6,0.5-1.2,1.4-1.8c0,0,0.1-0.1,0.1-0.1
		c0.2-0.1,0.3-0.2,0.3-0.2c0-0.1,0-0.2,0-0.2c0-0.9,0.5-1.3,1-1.5c0.4-0.2,1.2-0.4,2,0.4c0.2,0,1-0.3,1.7-0.3c0.4,0,0.8,0.1,1.1,0.3
		L18.3,9l0.1,0.1c0,0,1.1,0.9,1.2,0.9l0.6,0.5c0.1-0.9,0.7-1.6,1.5-1.8V7.4h0.8c0-1.8,1.2-3.1,2.9-3.1c0.1,0,0.3,0,0.4,0V3.2h-1.3
		v-2h1.3V0h2.1v1.3h1.3v2h-1.3v1.2c0.1,0,0.2,0,0.3,0c1.7,0,2.9,1.3,2.9,3v0h0.7v1.3c0.7,0.2,1.3,0.8,1.5,1.6c0,0,1.3-1,1.4-1.1
		c0.1,0,0.2,0,0.2,0c0,0.1,0.3,0.7,0.4,0.9c0.1,0,0.1,0.1,0.2,0.1c0.5,0,0.8,0.4,0.8,0.8c0,0.1,0,0.2-0.1,0.3
		c0.2-0.2,0.3-0.3,0.5-0.4c0.4-0.2,0.8,0,1.5,0.6l1.2-0.7l0.5,0.8c0,0,0.1,0.1,0.3,0.2c0.2,0,0.3,0.1,0.3,0.1c0.8-0.7,1.6-0.6,2-0.4
		c0.6,0.3,1,0.8,1,1.5c0,0.1,0,0.1,0,0.2c0.1,0.1,0.2,0.2,0.2,0.2c0.2,0.1,0.4,0.1,0.4,0.1c0,0,0.8-0.1,0.8-0.1l0.2,0l0.2,1.4
		c0.1,0,0.1,0.1,0.1,0.1c0,0,0.1,0.1,0.1,0.1c0.2-0.1,0.4-0.1,0.5-0.1c0,0,0.5-0.6,0.5-0.6c0-0.1,0.1,0,0.2,0c0,0.1,1.3,1.9,1.3,1.9
		c0.7,0.2,0.8,1,0.8,1.3l0,0.4c0,0.2,0.1,0.5,0.1,0.8c0,0.4-0.1,0.8-0.2,1.2c-0.2,0.9-0.4,1.4-1,2.4c-0.2,0.4-0.7,0.5-0.9,0.7
		c-0.2,0.2-0.7,0.6-0.9,0.7c0.3,0.1,0.6,0.1,0.9,0.1c0.7,0,1-0.1,1.1-0.1c0-0.2,0.1-0.4,0.3-0.5c0.2-0.2,0.4-0.3,0.6-0.3
		c0.5,0,0.9,0.4,0.9,0.9c0,0.7-0.4,1.2-1.2,1.5c0.1,0.1,0.3,0.1,0.4,0.2c1,0.6,1.3,1.4,1.3,1.9C50.1,28.5,49.5,29.2,48.7,29.3
		 M27.1,62.6c10.3-0.2,18.7-8.3,18.8-18.3H27.1V62.6 M27.1,43.7h18.8c-0.2-9.9-8.5-18-18.8-18.2V43.7z M26.5,25.6
		C16.2,25.7,7.9,33.8,7.7,43.7h18.8V25.6z M26.5,44.4H7.7c0.1,10,8.5,18.1,18.8,18.3V44.4z M46.6,44.1c0,10.6-8.9,19.1-19.8,19.1
		C15.9,63.3,7,54.7,7,44.1C7,33.5,15.9,25,26.8,25C37.7,25,46.6,33.5,46.6,44.1 M11,58c-0.1-0.1-0.2-0.3-0.4-0.5c0,0-0.1-0.1-0.1,0
		c0,0,0,0.1,0,0.1c0.2,0.3,0.2,0.3-0.3,0.7l-1.6,1.4c0,0-0.1,0-0.2-0.1c-0.3-0.3-0.2-0.7,0.2-1c0.3-0.3,0.7-0.2,0.9,0
		c0.1,0.1,0.1,0.1,0.1,0.1c0.1,0,0-0.1-0.1-0.2c-0.4-0.5-1-0.5-1.5-0.1c-0.4,0.3-0.3,0.8,0.1,1.2c0.1,0.1,0.3,0.3,0.4,0.4
		c0.1,0.1,0.2,0.3,0.4,0.5c0.1,0.1,0.1,0.1,0.1,0c0,0,0-0.1,0-0.1c-0.2-0.2-0.2-0.3,0-0.5l1.6-1.3c0.4-0.3,0.5-0.3,0.6-0.2
		c0,0,0.1,0.1,0.1,0c0,0,0-0.1,0-0.1C11.3,58.3,11.1,58.1,11,58 M6,56.4c0.3,0.4,0.8,0.7,1.7,0.2c0.7-0.4,1.1-1.2,0.7-1.9
		c-0.2-0.2-0.6-0.7-1.7-0.1C5.9,55.1,5.7,55.9,6,56.4 M8.6,54.8c0.6,1,0.1,1.9-0.5,2.3c-0.6,0.4-1.7,0.4-2.4-0.6
		c-0.6-0.9-0.4-1.8,0.5-2.3C7,53.7,8.1,53.9,8.6,54.8 M7.2,52.7C7.2,52.8,7.2,52.8,7.2,52.7c0.1,0.1,0.1,0,0.1-0.1
		c-0.1-0.2-0.2-0.4-0.2-0.4c0-0.1-0.1-0.2-0.2-0.5c0-0.1-0.1-0.1-0.1-0.1c0,0,0,0,0,0.1c0.1,0.2,0.1,0.4-0.3,0.5l-1.6,0.6L6.3,50
		c0-0.1,0.1-0.1,0-0.2c0,0-0.1-0.1-0.2,0l-2.5,0.8c-0.3,0.1-0.3,0.1-0.4-0.1c0-0.1-0.1-0.1-0.1-0.1c0,0,0,0.1,0,0.1
		c0.1,0.2,0.1,0.3,0.2,0.4c0,0.1,0.1,0.3,0.2,0.5c0,0.1,0.1,0.1,0.1,0.1c0,0,0-0.1,0-0.1c-0.1-0.3-0.1-0.3,0.2-0.4l1.7-0.7l-1.4,2.8
		c0,0.1-0.1,0.2,0,0.2c0,0,0.1,0,0.2,0l2.5-0.8C7.1,52.4,7.1,52.5,7.2,52.7 M3.4,49.5C3.4,49.5,3.5,49.5,3.4,49.5
		c0.1-0.1,0-0.1,0-0.1c-0.2,0-0.3-0.1-0.3-0.4l-0.1-0.6L5,48c0.7-0.1,0.7-0.1,0.8,0.1c0,0,0,0.1,0.1,0.1c0,0,0.1,0,0-0.1
		c0-0.2-0.1-0.4-0.1-0.5c0-0.1-0.1-0.4-0.1-0.6c0-0.1,0-0.1-0.1-0.1c0,0-0.1,0.1,0,0.1c0.1,0.3,0,0.4-0.7,0.5l-2.1,0.3l-0.1-0.5
		c-0.1-0.4,0-0.5,0.2-0.5c0.1,0,0.1,0,0.1-0.1c0,0,0,0-0.1,0c-0.1,0-0.4,0.1-0.5,0.1c-0.1,0-0.1,0-0.1,0.1c0,0,0.1,0.1,0.1,0.4
		l0.3,1.8c0,0.2,0,0.3,0,0.4c0,0,0,0,0.1,0.1C2.9,49.5,3.3,49.5,3.4,49.5 M2.4,45.9c0-0.2,0.1-0.3,0.2-0.3c0.1,0,0.3,0,0.9-0.1
		l0.7,0c0.4,0,0.7,0,0.9,0c0.2,0,0.2,0.1,0.2,0.2c0,0,0,0.1,0.1,0.1c0,0,0.1,0,0.1-0.1c0-0.2,0-0.4,0-0.5c0-0.1,0-0.4,0-0.6
		c0-0.1,0-0.1-0.1-0.1c0,0-0.1,0-0.1,0.1c0,0.2,0,0.3-0.2,0.4c-0.2,0-0.5,0-0.9,0.1l-0.7,0c-0.6,0-0.8,0-0.9,0
		c-0.2,0-0.2-0.1-0.2-0.2c0,0,0-0.1-0.1-0.1c0,0,0,0,0,0.1c0,0.2,0,0.4,0,0.5c0,0.1,0,0.4,0,0.5C2.3,45.9,2.3,46,2.4,45.9
		C2.4,46,2.4,45.9,2.4,45.9 M2.3,43.4C2.3,43.5,2.3,43.4,2.3,43.4c0.1-0.4,0.1-0.4,0.6-0.4l1.9,0.1c0.6,0,0.6,0.1,0.6,0.3
		c0,0.1,0,0.1,0.1,0.1c0,0,0.1,0,0.1-0.1c0-0.2,0-0.4,0-0.5c0-0.1,0-0.4,0.1-0.6c0-0.1,0-0.1-0.1-0.1c0,0-0.1,0-0.1,0.1
		c0,0.3,0,0.4-0.6,0.3l-0.7,0c0,0,0,0,0,0c0-0.1,0-0.5,0.1-0.6c0-0.2,0.2-0.2,0.3-0.2c0,0,0.1,0,0.1,0c0-0.1,0-0.1-0.1-0.1
		c-0.3,0-0.5-0.1-0.6-0.1c0,0-0.1,0-0.1,0c0,0.1,0.1,0.1,0.1,0.3l0,0.7c0,0,0,0,0,0l-1.2-0.1c0,0,0,0,0,0l0.1-0.6
		c0-0.2,0.1-0.2,0.1-0.2c0.1,0,0.1,0,0.2,0c0.1,0,0.1,0,0.1-0.1c0,0,0-0.1-0.1-0.1c-0.1,0-0.3,0-0.3,0c-0.1,0-0.1,0-0.2,0
		c0,0,0,0,0,0c0,0-0.1,0-0.1,0c0,0,0,0,0,0l0,0c0,0,0,0.1,0,0.2c0,0.1-0.1,0.9-0.1,1.1c0,0.1,0,0.4-0.1,0.6
		C2.2,43.4,2.3,43.4,2.3,43.4 M2.7,40.3C2.7,40,2.8,40,3,40c0.1,0,0.3,0,0.9,0.1l0.7,0.1c0.4,0.1,0.7,0.1,0.9,0.2
		c0.2,0.1,0.2,0.1,0.2,0.3c0,0,0,0.1,0,0.1c0,0,0.1,0,0.1-0.1c0-0.2,0.1-0.4,0.1-0.5c0-0.1,0.1-0.4,0.1-0.6c0-0.1,0-0.1,0-0.1
		c0,0-0.1,0-0.1,0.1c0,0.2-0.1,0.3-0.3,0.3c-0.2,0-0.5-0.1-0.9-0.1l-0.7-0.1c-0.6-0.1-0.7-0.1-0.9-0.2c-0.2-0.1-0.2-0.1-0.2-0.3
		c0,0,0-0.1,0-0.1c0,0-0.1,0-0.1,0.1c0,0.2-0.1,0.4-0.1,0.5c0,0.1-0.1,0.4-0.1,0.5C2.5,40.3,2.6,40.3,2.7,40.3
		C2.6,40.3,2.7,40.3,2.7,40.3 M4.5,38.3c1.1,0.4,2-0.3,2.3-1.3C6.9,36.7,7,36.4,7,36.2c0-0.1,0-0.1-0.1-0.2
		c-0.1-0.1-0.5-0.3-0.5-0.3c0,0-0.1,0-0.1,0c0,0,0,0.1,0.1,0.1c0.3,0.2,0.4,0.4,0.2,1c-0.2,0.7-0.9,1.1-1.8,0.7
		c-0.7-0.3-1.1-0.8-0.9-1.5c0.2-0.5,0.5-0.9,0.9-0.7c0.1,0,0.1,0,0.1,0c0,0,0-0.1-0.1-0.1c-0.1,0-0.3-0.1-0.4-0.2
		c-0.1-0.1-0.2-0.1-0.2-0.1c0,0-0.1,0-0.1,0.1C4,35.3,3.8,35.6,3.6,36C3.3,37,3.6,37.9,4.5,38.3 M4.7,33.9c0.1-0.2,0.2-0.2,0.3-0.1
		c0.1,0.1,0.2,0.1,0.8,0.4l0.7,0.3c0.4,0.2,0.7,0.3,0.8,0.4c0.2,0.1,0.2,0.2,0.1,0.3c0,0,0,0.1,0,0.1c0,0,0.1,0,0.1-0.1
		c0.1-0.2,0.2-0.4,0.2-0.5c0.1-0.1,0.2-0.3,0.3-0.6c0-0.1,0-0.1,0-0.1c0,0-0.1,0-0.1,0.1c-0.1,0.2-0.2,0.3-0.3,0.2
		c-0.2-0.1-0.5-0.2-0.8-0.4l-0.7-0.3c-0.6-0.3-0.7-0.3-0.8-0.4c-0.2-0.1-0.2-0.2-0.1-0.3c0,0,0-0.1,0-0.1c0,0-0.1,0-0.1,0.1
		C5.1,33,5,33.3,4.9,33.4C4.8,33.5,4.7,33.7,4.7,33.9c-0.1,0-0.1,0-0.1,0C4.7,34,4.7,33.9,4.7,33.9 M7.2,31.1L7.2,31.1
		C7.2,31.1,7.2,31.1,7.2,31.1l0.7,1l0.5-0.7L7.2,31.1z M6.6,30.7c-0.1-0.1-0.1-0.2-0.1-0.2c0,0,0.1,0,0.2,0c0.3,0,2.1,0.5,2.7,0.6
		c0.2,0.1,0.5,0.1,0.6-0.1c0,0,0.1-0.1,0.1,0c0,0,0,0.1-0.1,0.2c-0.1,0.1-0.2,0.2-0.2,0.3c-0.1,0.1-0.2,0.3-0.3,0.4
		C9.5,32,9.5,32,9.5,32c0,0,0-0.1,0-0.1c0,0,0.1-0.2,0.1-0.2l-0.8-0.2c0,0,0,0,0,0l-0.6,0.8c0,0,0,0,0,0l0.3,0.4
		c0.1,0.1,0.1,0.2,0.2,0.2c0,0,0.1,0,0.2-0.1c0.1-0.1,0.1-0.1,0.1-0.1c0,0,0,0.1,0,0.1c-0.1,0.1-0.2,0.3-0.3,0.4
		c0,0-0.2,0.2-0.3,0.4c0,0.1-0.1,0.1-0.1,0c0,0,0-0.1,0-0.1c0.2-0.2,0.1-0.3,0-0.6L6.6,30.7z M9.8,27c0.2-0.2,0.3-0.2,0.6,0.2
		l0.8,0.9c0.6,0.7,1.3,0.8,2,0.2c0.7-0.6,0.6-1.3,0-2l-0.7-0.8c-0.3-0.3-0.3-0.4-0.1-0.5c0.1,0,0.1-0.1,0-0.1c0,0-0.1,0-0.1,0
		c-0.1,0.1-0.2,0.2-0.4,0.3c-0.1,0.1-0.2,0.2-0.4,0.3c-0.1,0-0.1,0.1,0,0.1c0,0,0.1,0,0.1,0c0.2-0.2,0.3-0.1,0.6,0.2l0.7,0.9
		c0.5,0.6,0.7,1.1,0.2,1.4c-0.5,0.4-1,0.1-1.4-0.4l-0.8-0.9c-0.3-0.3-0.3-0.4-0.1-0.5c0,0,0-0.1,0-0.1c0,0-0.1,0-0.1,0
		c-0.1,0.1-0.3,0.2-0.4,0.3c-0.2,0.1-0.3,0.2-0.5,0.4c-0.1,0-0.1,0.1,0,0.1C9.8,27,9.8,27,9.8,27 M15,26.2c0.2,0.4,0.1,0.4-0.1,0.5
		c-0.1,0-0.1,0.1-0.1,0.1c0,0,0.1,0,0.1,0c0.2-0.1,0.4-0.2,0.4-0.2c0.1,0,0.2-0.1,0.5-0.2c0.1,0,0.1-0.1,0.1-0.1c0,0,0,0-0.1,0
		c-0.2,0.1-0.4,0.1-0.6-0.2l-0.9-1.5l3.1,0.9c0.1,0,0.1,0,0.2,0c0,0,0-0.1,0-0.2l-1.3-2.3c-0.1-0.2-0.1-0.3,0.1-0.4
		c0.1,0,0.1-0.1,0.1-0.1c0,0-0.1,0-0.1,0c-0.2,0.1-0.3,0.2-0.4,0.2c-0.1,0-0.3,0.1-0.5,0.2c-0.1,0-0.1,0.1-0.1,0.1c0,0,0.1,0,0.1,0
		c0.3-0.1,0.3-0.1,0.5,0.2l0.9,1.6L14,23.8c-0.1,0-0.2,0-0.3,0c0,0,0,0.1,0,0.2L15,26.2z M17.8,22.1c0.2-0.1,0.3,0,0.3,0.1
		c0.1,0.1,0.1,0.2,0.3,0.8l0.3,0.7c0.1,0.4,0.3,0.7,0.3,0.8c0,0.2,0,0.2-0.2,0.3c0,0-0.1,0-0.1,0.1c0,0,0.1,0.1,0.1,0
		c0.2-0.1,0.4-0.2,0.5-0.2c0.1,0,0.4-0.1,0.6-0.2c0.1,0,0.1-0.1,0.1-0.1c0,0-0.1,0-0.1,0c-0.2,0.1-0.3,0.1-0.4-0.1
		c-0.1-0.2-0.2-0.5-0.3-0.8L19,22.8c-0.2-0.6-0.3-0.7-0.3-0.8c-0.1-0.2,0-0.2,0.2-0.3c0,0,0.1,0,0.1-0.1c0,0-0.1,0-0.1,0
		c-0.2,0.1-0.4,0.1-0.5,0.2c-0.1,0-0.4,0.1-0.5,0.2c-0.1,0-0.1,0.1-0.1,0.1C17.8,22.1,17.8,22.1,17.8,22.1 M19.9,21.3
		c0.3-0.1,0.4,0,0.5,0.2l1.7,2.3c0.1,0.1,0.1,0.2,0.2,0.1c0.1,0,0.1-0.1,0.1-0.2l0.6-2.7c0.1-0.3,0.1-0.4,0.3-0.5
		c0.1,0,0.1,0,0.1-0.1c0,0-0.1-0.1-0.1,0c-0.1,0-0.2,0.1-0.4,0.1c-0.1,0-0.2,0-0.4,0.1c-0.1,0-0.1,0.1-0.1,0.1c0,0,0.1,0,0.1,0
		c0.1,0,0.2,0,0.2,0c0,0,0,0.1,0,0.1l-0.4,2.1l-1.1-1.6c-0.1-0.1-0.2-0.2-0.2-0.3c0-0.1,0.1-0.1,0.2-0.1c0.1,0,0.1,0,0.1-0.1
		c0,0-0.1,0-0.1,0c-0.2,0-0.4,0.1-0.5,0.1c-0.1,0-0.4,0.1-0.6,0.1C19.8,21.2,19.8,21.3,19.9,21.3C19.8,21.3,19.8,21.3,19.9,21.3
		 M24.2,20.5c0.2,0,0.3,0,0.3,0.2c0,0.1,0,0.2,0.1,0.9l0,0.7c0,0.2,0,0.4,0,0.6c0,0.5,0,0.5-0.2,0.5c-0.1,0-0.1,0-0.1,0.1
		c0,0,0,0.1,0.1,0.1c0.2,0,0.4,0,0.5,0c0.5,0,0.9,0,1.3-0.1c0.1,0,0.1,0,0.1-0.1c0-0.1,0-0.4,0-0.5c0-0.1,0-0.1-0.1-0.1
		c0,0-0.1,0-0.1,0.1c0,0.2-0.1,0.2-0.2,0.3c-0.1,0.1-0.4,0.1-0.5,0.1c-0.3,0-0.4,0-0.4-0.3c0-0.1,0-0.5-0.1-0.9c0,0,0,0,0,0
		c0,0,0.5,0,0.6,0c0.2,0,0.2,0.1,0.3,0.3c0,0,0,0.1,0.1,0.1c0.1,0,0.1-0.1,0.1-0.1c0-0.2,0-0.5,0-0.6c0,0,0-0.1-0.1-0.1
		c0,0,0,0-0.1,0.1c0,0-0.1,0.1-0.4,0.1c-0.2,0-0.4,0-0.5,0c0,0,0,0,0,0l-0.1-1.1c0,0,0,0,0,0c0.8-0.1,0.9,0,0.9,0.2
		c0,0,0,0.1,0.1,0.1c0,0,0.1,0,0.1-0.1c0-0.3,0-0.5,0-0.5c0,0,0-0.1-0.1-0.1c0,0-0.1,0.1-0.2,0.1c-0.1,0-0.9,0.1-1.1,0.1
		c-0.1,0-0.4,0-0.6,0C24.2,20.4,24.1,20.5,24.2,20.5C24.1,20.5,24.2,20.5,24.2,20.5 M28.4,21.9c0,0.1,0.1,0.1,0.3,0.1
		c0.4,0,0.6-0.2,0.6-0.6c0-0.5-0.2-0.7-0.6-0.8c-0.2,0-0.2,0-0.2,0L28.4,21.9z M27.5,23.4C27.4,23.4,27.4,23.4,27.5,23.4
		c-0.1-0.1-0.1-0.1,0-0.1c0.2,0,0.3-0.1,0.3-0.5l0.2-2c0-0.4,0-0.4-0.3-0.5c-0.1,0-0.1,0-0.1-0.1c0,0,0-0.1,0.1,0
		c0.2,0,0.5,0.1,0.6,0.1c0.1,0,0.5,0,0.6,0c0.6,0,1.1,0.3,1,0.9c0,0.3-0.2,0.6-0.6,0.9c0.7,1.2,1,1.4,1.4,1.5c0,0,0.1,0,0.1,0.1
		c0,0,0,0.1-0.1,0l-0.4,0c-0.5,0-0.7-0.3-1-0.8c-0.1-0.2-0.2-0.4-0.4-0.6c0,0,0,0-0.1,0l-0.4,0c0,0,0,0,0,0l-0.1,0.6
		c0,0.4,0,0.5,0.3,0.5c0,0,0.1,0,0.1,0.1c0,0,0,0.1-0.1,0.1c-0.3,0-0.6-0.1-0.6-0.1C27.9,23.5,27.6,23.5,27.5,23.4 M31.7,24.1
		c0.6,0.1,1.2-0.1,1.3-0.6c0.2-0.9-1-1.4-0.8-2c0.1-0.2,0.3-0.4,0.6-0.3c0.3,0.1,0.5,0.4,0.4,0.6c0,0,0,0.1,0,0.1c0,0,0.1,0,0.1-0.1
		c0.1-0.3,0.1-0.4,0.1-0.5c0,0,0-0.1,0-0.1c-0.1-0.1-0.3-0.1-0.6-0.2c-0.6-0.1-1.1,0.1-1.2,0.6c-0.2,0.9,1,1.3,0.8,2
		c0,0.2-0.3,0.4-0.6,0.3c-0.4-0.1-0.5-0.4-0.5-0.7c0,0,0-0.1,0-0.1c0,0-0.1,0-0.1,0.1L31,23.7C31,23.8,31.3,24,31.7,24.1 M33.7,24.6
		c0.2,0.1,0.4,0.1,0.5,0.2c0.1,0,0.4,0.1,0.6,0.2c0.1,0,0.1,0,0.1,0c0,0,0-0.1-0.1-0.1c-0.2-0.1-0.3-0.1-0.3-0.3
		c0.1-0.2,0.2-0.5,0.3-0.9l0.3-0.7c0.2-0.6,0.3-0.7,0.3-0.8c0.1-0.2,0.2-0.2,0.3-0.1c0,0,0.1,0,0.1,0c0,0,0-0.1-0.1-0.1
		c-0.2-0.1-0.4-0.1-0.5-0.2c-0.1,0-0.4-0.1-0.5-0.2c-0.1,0-0.1,0-0.1,0c0,0,0,0.1,0.1,0.1c0.2,0.1,0.2,0.2,0.2,0.3
		c0,0.1-0.1,0.2-0.3,0.8l-0.3,0.7c-0.1,0.4-0.3,0.7-0.3,0.8c-0.1,0.2-0.2,0.2-0.3,0.1C33.7,24.4,33.6,24.4,33.7,24.6
		C33.6,24.5,33.6,24.5,33.7,24.6 M37,25c-0.3,0.5-0.3,0.6,0.2,0.8c0.8,0.4,1.4,0.3,1.8-0.5c0.4-0.8,0.1-1.6-0.7-2
		c-0.3-0.1-0.3-0.1-0.4,0L37,25 M35.8,25.2c0,0,0.1,0,0.2,0c0.2,0.1,0.2,0.1,0.7-0.8l0.4-0.6c0.3-0.5,0.4-0.6,0.4-0.8
		c0.1-0.1,0-0.2-0.2-0.4c-0.1,0-0.1-0.1-0.1-0.1c0,0,0.1,0,0.1,0c0.2,0.1,0.4,0.2,0.5,0.3c0.1,0.1,0.4,0.2,0.6,0.3
		c1.1,0.6,1.7,1.4,1.1,2.4c-0.6,1-1.6,1-2.5,0.5c-0.3-0.1-0.6-0.4-0.8-0.5c-0.1,0-0.3-0.2-0.5-0.2C35.8,25.3,35.7,25.3,35.8,25.2
		 M40.7,27l0.7,0.6l0.4-1.2l0,0c0,0,0,0,0,0L40.7,27z M39.2,27.1c0.2,0.2,0.3,0.2,0.6,0l2.5-1.3c0.1-0.1,0.2-0.1,0.2,0
		c0,0,0,0.1,0,0.2c-0.1,0.2-0.6,1.9-0.8,2.6c-0.1,0.2-0.1,0.5,0,0.6c0,0,0.1,0.1,0,0.1c0,0-0.1,0-0.2-0.1c-0.1-0.1-0.2-0.2-0.3-0.3
		c-0.1-0.1-0.3-0.2-0.4-0.3c-0.1-0.1-0.1-0.1-0.1-0.2c0,0,0.1,0,0.1,0c0,0,0.2,0.1,0.2,0.1l0.2-0.7c0,0,0,0,0,0l-0.8-0.6
		c0,0,0,0,0,0l-0.4,0.2c-0.1,0.1-0.2,0.1-0.2,0.2c0,0,0,0.1,0.1,0.2c0.1,0.1,0.1,0.1,0.1,0.1c0,0-0.1,0-0.1,0
		c-0.1-0.1-0.2-0.2-0.3-0.3c0,0-0.2-0.2-0.4-0.3C39.1,27.1,39.1,27.1,39.2,27.1C39.1,27,39.2,27.1,39.2,27.1 M43.4,29.9
		c-0.4,0.3-0.5,0.4-0.1,0.9c0.6,0.7,1.1,0.8,1.9,0.2c0.7-0.6,0.7-1.4,0.1-2.1c-0.2-0.2-0.2-0.2-0.3-0.1L43.4,29.9 M42.3,29.7
		c0.1,0.1,0.2,0.1,1-0.5l0.6-0.5c0.5-0.4,0.6-0.5,0.7-0.6c0.1-0.1,0.1-0.2,0-0.4c0-0.1,0-0.1,0-0.1c0,0,0.1,0,0.1,0.1
		c0.1,0.2,0.3,0.4,0.4,0.5c0.1,0.1,0.3,0.3,0.4,0.5c0.8,1,1,1.9,0.2,2.6c-0.9,0.7-1.9,0.4-2.5-0.4c-0.2-0.2-0.4-0.6-0.5-0.7
		c-0.1-0.1-0.2-0.3-0.4-0.4c0-0.1-0.1-0.1,0-0.1C42.2,29.6,42.3,29.6,42.3,29.7 M46.9,36.9C46.9,37,47,37,47,37
		c0.2,0,0.5-0.1,0.6-0.1c0,0,0.1,0,0.1-0.1c0,0,0,0-0.1,0c-0.4,0-0.6-0.1-0.8-0.6c-0.3-0.7-0.1-1.4,0.8-1.8c0.7-0.3,1.4-0.2,1.7,0.5
		c0.2,0.4,0.2,1-0.2,1.1c-0.1,0-0.1,0.1-0.1,0.1c0,0,0.1,0,0.1,0c0.1,0,0.3-0.1,0.4-0.2c0.1,0,0.2-0.1,0.2-0.1c0,0,0,0,0-0.1
		c-0.1-0.2-0.1-0.5-0.3-1c-0.4-0.9-1.3-1.4-2.2-1c-1.1,0.5-1.2,1.5-0.8,2.5C46.6,36.5,46.7,36.8,46.9,36.9 M48.5,38.3l0.2,0.9
		l1.1-0.7l0,0l0,0c0,0,0,0,0,0L48.5,38.3z M47.2,37.5c0.1,0.2,0.2,0.3,0.5,0.4l2.8,0.4c0.1,0,0.2,0,0.2,0.1c0,0,0,0.1-0.1,0.2
		c-0.2,0.1-1.7,1.2-2.3,1.6c-0.2,0.1-0.4,0.3-0.4,0.5c0,0,0,0.1,0,0.1c0,0-0.1,0-0.1-0.2c0-0.1-0.1-0.3-0.1-0.4
		c0-0.1-0.1-0.4-0.1-0.4c0-0.1,0-0.2,0-0.2c0,0,0.1,0,0.1,0.1c0,0,0.1,0.2,0.1,0.2l0.6-0.4c0,0,0,0,0,0l-0.2-1c0,0,0,0,0,0l-0.5-0.1
		c-0.1,0-0.2,0-0.3,0c-0.1,0-0.1,0.1-0.1,0.2c0,0.1,0,0.1,0,0.1c0,0-0.1,0-0.1-0.1c0-0.1-0.1-0.3-0.1-0.4c0,0-0.1-0.3-0.1-0.5
		C47.1,37.5,47.1,37.4,47.2,37.5C47.2,37.4,47.2,37.5,47.2,37.5 M50.6,40.7C50.6,40.7,50.5,40.7,50.6,40.7c-0.1,0.1,0,0.1,0,0.1
		c0.2,0,0.3,0.1,0.3,0.4l0.1,0.6L48.9,42c-0.7,0.1-0.7,0-0.8-0.2c0-0.1,0-0.1-0.1-0.1c0,0-0.1,0-0.1,0.1c0,0.2,0,0.4,0.1,0.5
		c0,0.1,0,0.4,0,0.6c0,0.1,0,0.1,0.1,0.1c0,0,0,0,0-0.1c0-0.3,0-0.4,0.7-0.4l2.1-0.2l0,0.5c0,0.4-0.1,0.5-0.2,0.5
		c-0.1,0-0.1,0-0.1,0.1c0,0,0,0,0.1,0c0.1,0,0.4,0,0.5,0c0.1,0,0.1,0,0.1-0.1c0,0-0.1-0.1-0.1-0.4l-0.2-1.9c0-0.2,0-0.3,0-0.4
		c0,0,0,0-0.1-0.1C51.1,40.7,50.7,40.7,50.6,40.7 M51.1,46c0-0.5-0.2-1-1.2-1.1c-0.9-0.1-1.6,0.3-1.7,1.1c0,0.3,0.1,0.9,1.3,1
		C50.4,47.2,51,46.7,51.1,46 M51.9,46.8c0,0.1,0,0.1,0,0.2c0,0-0.1,0-0.2,0.1c0,0-0.1,0-0.1-0.1c0,0-0.1-0.4-0.2-0.8
		c-0.1,1-0.8,1.6-1.7,1.5c-1-0.1-1.7-0.8-1.6-1.9c0.1-1.2,1.1-1.6,1.8-1.5c0.7,0.1,1.5,0.5,1.5,1.6C51.5,46.2,51.8,46.8,51.9,46.8
		 M50.7,49.2c-0.1,0.3-0.1,0.3-0.6,0.1l-1.6-0.4c-0.7-0.2-0.7-0.2-0.7-0.5c0,0,0-0.1,0-0.1c0,0-0.1,0-0.1,0.1c0,0.2-0.1,0.4-0.1,0.5
		c-0.1,0.3-0.2,0.6-0.3,1.2c-0.1,0.2,0,0.3,0,0.3c0.1,0.1,0.5,0.2,0.5,0.2c0.1,0,0.1,0,0.1,0c0-0.1,0-0.1-0.1-0.1
		c-0.3-0.1-0.4-0.2-0.2-0.7c0.1-0.5,0.2-0.5,0.8-0.4l1.6,0.4c0.5,0.1,0.5,0.2,0.5,0.4c0,0.1,0,0.1,0,0.1c0,0,0.1,0,0.1-0.1
		c0-0.2,0.1-0.5,0.1-0.5c0-0.1,0.1-0.4,0.2-0.6C50.8,49.1,50.8,49.1,50.7,49.2C50.7,49.1,50.7,49.1,50.7,49.2 M49.7,52.5
		c-0.1,0.2-0.2,0.2-0.3,0.2c-0.1,0-0.2-0.1-0.8-0.3L47.8,52c-0.4-0.1-0.7-0.3-0.8-0.4c-0.2-0.1-0.2-0.1-0.1-0.3c0,0,0-0.1,0-0.1
		c0,0-0.1,0-0.1,0.1c-0.1,0.2-0.1,0.4-0.2,0.5c0,0.1-0.2,0.3-0.3,0.6c0,0.1,0,0.1,0,0.1c0,0,0.1,0,0.1-0.1c0.1-0.2,0.2-0.3,0.3-0.3
		c0.2,0.1,0.5,0.2,0.9,0.3l0.7,0.3c0.6,0.2,0.7,0.3,0.8,0.3c0.2,0.1,0.2,0.2,0.1,0.3c0,0,0,0.1,0,0.1c0,0,0.1,0,0.1-0.1
		c0.1-0.1,0.1-0.4,0.2-0.5c0.1-0.1,0.2-0.3,0.2-0.5C49.8,52.5,49.8,52.4,49.7,52.5C49.7,52.4,49.7,52.4,49.7,52.5 M47.5,54.1
		c-1-0.6-2-0.1-2.5,0.8c-0.1,0.2-0.3,0.5-0.3,0.7c0,0.1,0,0.1,0.1,0.2c0.1,0.1,0.4,0.3,0.4,0.4c0,0,0.1,0,0.1,0c0,0,0-0.1,0-0.1
		c-0.3-0.3-0.3-0.5,0-1c0.4-0.6,1.1-0.9,2-0.4c0.7,0.4,1,1,0.5,1.6c-0.3,0.4-0.7,0.8-1.1,0.5c-0.1,0-0.1,0-0.1,0c0,0,0,0.1,0.1,0.1
		c0.1,0.1,0.3,0.2,0.4,0.2c0.1,0.1,0.2,0.1,0.2,0.1c0,0,0.1,0,0.1,0c0.1-0.2,0.4-0.4,0.6-0.8C48.4,55.6,48.4,54.6,47.5,54.1
		 M45.1,58.8C45.1,58.8,45.1,58.8,45.1,58.8l-0.7-1.1l-0.6,0.7L45.1,58.8L45.1,58.8L45.1,58.8z M45.7,59.2c0.1,0.1,0.1,0.2,0.1,0.2
		c0,0-0.1,0-0.2,0c-0.2-0.1-2-0.6-2.7-0.8c-0.2-0.1-0.5-0.1-0.6,0c0,0-0.1,0-0.1,0c0,0,0-0.1,0.1-0.2c0.1-0.1,0.2-0.2,0.3-0.3
		c0.1-0.1,0.2-0.3,0.3-0.4c0.1-0.1,0.1-0.1,0.2-0.1c0,0,0,0.1,0,0.1c0,0-0.1,0.2-0.1,0.2l0.7,0.2c0,0,0,0,0,0l0.7-0.8c0,0,0,0,0,0
		L44.1,57c-0.1-0.1-0.1-0.2-0.2-0.2c-0.1,0-0.1,0-0.2,0.1c-0.1,0.1-0.1,0.1-0.1,0.1c0,0,0-0.1,0-0.1c0.1-0.1,0.2-0.2,0.3-0.3
		c0,0,0.2-0.2,0.3-0.4c0.1-0.1,0.1-0.1,0.1,0c0,0,0,0.1,0,0.1c-0.2,0.2-0.2,0.3,0,0.6L45.7,59.2z M16,63.9c0.5-0.8,0.2-1.6-0.6-2
		c-0.3-0.1-0.3-0.1-0.3,0l-1,1.6c-0.3,0.5-0.3,0.6,0.2,0.8C14.9,64.8,15.5,64.7,16,63.9 M15.5,61.7c1.1,0.6,1.6,1.4,1,2.4
		c-0.6,0.9-1.6,1-2.5,0.5c-0.3-0.2-0.6-0.4-0.8-0.5c-0.1-0.1-0.3-0.2-0.5-0.3c-0.1,0-0.1-0.1-0.1-0.1c0,0,0.1,0,0.2,0
		c0.2,0.1,0.2,0.1,0.8-0.8l0.4-0.6c0.3-0.5,0.4-0.6,0.5-0.8c0.1-0.1,0-0.2-0.2-0.4c-0.1,0-0.1-0.1-0.1-0.1c0,0,0.1,0,0.1,0
		c0.2,0.1,0.4,0.3,0.5,0.3C15.1,61.5,15.3,61.6,15.5,61.7 M20.1,63.8c-0.1,0-0.9-0.3-1-0.4c-0.1,0-0.4-0.1-0.6-0.2
		c-0.1,0-0.1,0-0.1,0c0,0,0,0.1,0.1,0.1c0.2,0.1,0.3,0.2,0.2,0.3c0,0.1-0.1,0.2-0.3,0.8l-0.3,0.7c-0.1,0.2-0.2,0.4-0.2,0.5
		c-0.2,0.4-0.2,0.5-0.4,0.4c-0.1,0-0.1,0-0.1,0c0,0,0,0.1,0.1,0.1c0.2,0.1,0.4,0.1,0.5,0.2c0.4,0.2,0.8,0.3,1.2,0.5
		c0.1,0,0.1,0,0.2-0.1c0-0.1,0.2-0.3,0.2-0.4c0-0.1,0-0.1,0-0.1c0,0-0.1,0-0.1,0c-0.1,0.1-0.2,0.2-0.3,0.2c-0.1,0-0.4-0.1-0.5-0.1
		c-0.3-0.1-0.3-0.1-0.2-0.4c0-0.1,0.2-0.5,0.3-0.9c0,0,0,0,0,0c0,0,0.5,0.2,0.5,0.2c0.2,0.1,0.2,0.2,0.1,0.3c0,0,0,0.1,0,0.1
		c0.1,0,0.1,0,0.1-0.1c0.1-0.2,0.2-0.5,0.3-0.5c0,0,0-0.1,0-0.1c0,0-0.1,0-0.1,0c0,0-0.2,0-0.4-0.1c-0.2-0.1-0.4-0.1-0.4-0.2
		c0,0,0,0,0,0l0.4-1c0,0,0,0,0,0c0.8,0.3,0.8,0.3,0.7,0.6c0,0,0,0.1,0,0.1c0,0,0.1,0,0.1,0c0.1-0.3,0.2-0.4,0.2-0.5c0,0,0-0.1,0-0.1
		C20.3,63.8,20.2,63.9,20.1,63.8 M26.1,64.9c-0.2,0-0.5-0.2-1-0.2c-1-0.1-1.9,0.4-2,1.4c-0.1,1.2,0.8,1.8,1.8,1.9c0.3,0,0.6,0,0.8,0
		c0.1,0,0.1,0,0.1-0.1c0.1-0.1,0.1-0.5,0.2-0.5c0,0,0-0.1,0-0.1c0,0-0.1,0-0.1,0.1c-0.1,0.3-0.3,0.4-1,0.4c-0.7-0.1-1.3-0.6-1.2-1.6
		c0.1-0.8,0.5-1.2,1.3-1.2c0.5,0,1,0.3,0.9,0.7c0,0.1,0,0.1,0.1,0.1c0,0,0.1,0,0.1-0.1c0-0.1,0-0.3,0.1-0.4
		C26.1,65.1,26.2,65,26.1,64.9C26.2,65,26.2,64.9,26.1,64.9 M31.3,67.5c-0.2,0-0.3,0-0.4-0.2c0-0.2-0.1-0.5-0.1-0.9l-0.1-0.7
		c-0.1-0.6-0.1-0.7-0.1-0.9c0-0.2,0-0.2,0.2-0.3c0.1,0,0.1,0,0.1-0.1c0,0,0-0.1-0.1-0.1c-0.2,0-0.4,0.1-0.5,0.1
		c-0.1,0-0.4,0-0.6,0.1c-0.1,0-0.1,0-0.1,0.1c0,0,0,0.1,0.1,0c0.2,0,0.3,0,0.4,0.2c0,0.1,0,0.2,0.1,0.9l0,0.2c0,0,0,0,0,0l-1.6,0.2
		c0,0,0,0,0,0l0-0.2c-0.1-0.6-0.1-0.7-0.1-0.9c0-0.2,0-0.2,0.2-0.3c0.1,0,0.1,0,0.1-0.1c0,0,0-0.1-0.1,0c-0.2,0-0.4,0.1-0.5,0.1
		c-0.1,0-0.4,0-0.6,0.1c-0.1,0-0.1,0-0.1,0.1c0,0,0,0.1,0.1,0c0.2,0,0.3,0,0.4,0.2c0,0.1,0,0.2,0.1,0.9l0.1,0.7
		c0,0.4,0.1,0.7,0.1,0.9c0,0.2,0,0.2-0.2,0.2c0,0-0.1,0-0.1,0.1c0,0,0,0.1,0.1,0.1c0.2,0,0.4-0.1,0.5-0.1c0.1,0,0.4,0,0.7-0.1
		c0.1,0,0.1,0,0.1-0.1c0,0-0.1-0.1-0.1,0c-0.2,0-0.3,0-0.4-0.2c0-0.2-0.1-0.5-0.1-0.9l0-0.2c0,0,0,0,0,0l1.6-0.2l0,0l0,0.3
		c0,0.4,0.1,0.7,0.1,0.9c0,0.2,0,0.2-0.2,0.2c-0.1,0-0.1,0-0.1,0.1c0,0,0,0.1,0.1,0c0.2,0,0.4-0.1,0.5-0.1c0.1,0,0.4,0,0.7-0.1
		C31.4,67.6,31.4,67.6,31.3,67.5C31.4,67.5,31.3,67.5,31.3,67.5 M34.4,66.7c-0.2,0.1-0.3,0.1-0.4-0.1c-0.1-0.2-0.2-0.5-0.3-0.9
		l-0.2-0.7c-0.2-0.6-0.2-0.7-0.2-0.8c0-0.2,0-0.2,0.2-0.3c0,0,0.1,0,0.1-0.1c0,0-0.1,0-0.1,0c-0.2,0-0.4,0.1-0.5,0.2
		c-0.1,0-0.4,0.1-0.5,0.1c-0.1,0-0.1,0.1-0.1,0.1c0,0,0.1,0,0.1,0c0.2-0.1,0.3,0,0.3,0.1c0.1,0.1,0.1,0.2,0.3,0.8l0.2,0.7
		c0.1,0.4,0.2,0.7,0.2,0.9c0,0.2,0,0.2-0.2,0.3c0,0-0.1,0-0.1,0.1c0,0,0.1,0.1,0.1,0c0.2-0.1,0.4-0.1,0.5-0.2c0.1,0,0.4-0.1,0.6-0.2
		c0.1,0,0.1-0.1,0.1-0.1C34.4,66.7,34.4,66.7,34.4,66.7 M37.9,64.8C37.9,64.7,37.8,64.7,37.9,64.8c-0.1,0-0.1,0-0.1,0
		c0.1,0.3,0,0.4-0.4,0.6c-0.5,0.2-0.5,0.2-0.8-0.3l-0.7-1.5c-0.2-0.5-0.2-0.5,0.1-0.6c0.1,0,0.1-0.1,0.1-0.1c0,0,0,0-0.1,0
		c-0.2,0.1-0.4,0.2-0.5,0.2c-0.1,0-0.4,0.1-0.5,0.2c-0.1,0-0.1,0.1-0.1,0.1c0,0,0.1,0,0.1,0c0.3-0.1,0.3-0.1,0.5,0.4l0.7,1.5
		c0.3,0.6,0.3,0.7,0.1,0.8c0,0-0.1,0-0.1,0.1c0,0,0.1,0,0.1,0c0.2-0.1,0.4-0.2,0.5-0.2c0.3-0.1,0.6-0.2,1.2-0.5
		c0.2-0.1,0.2-0.1,0.2-0.2C38,65.1,37.9,64.8,37.9,64.8 M41,63C40.9,62.9,40.9,62.9,41,63c-0.1,0-0.1,0-0.1,0.1
		c0.1,0.2,0.1,0.2,0,0.3c-0.1,0.1-0.3,0.3-0.4,0.3c-0.3,0.2-0.3,0.2-0.5-0.1c-0.1-0.1-0.3-0.4-0.5-0.8c0,0,0,0,0,0
		c0,0,0.4-0.3,0.5-0.3c0.2-0.1,0.3,0,0.4,0.1c0,0,0,0,0.1,0c0,0,0-0.1,0-0.1c-0.1-0.2-0.3-0.5-0.3-0.5c0,0-0.1,0-0.1,0
		c0,0,0,0.1,0,0.1c0,0-0.1,0.1-0.3,0.3c-0.2,0.1-0.3,0.2-0.4,0.2c0,0,0,0,0,0l-0.6-0.9c0,0,0,0,0,0c0.7-0.4,0.7-0.4,0.9-0.2
		c0,0,0.1,0.1,0.1,0c0,0,0-0.1,0-0.1c-0.2-0.3-0.2-0.4-0.3-0.5c0,0,0,0-0.1,0c0,0-0.1,0.1-0.2,0.2c-0.1,0-0.8,0.5-0.9,0.6
		c-0.1,0.1-0.3,0.2-0.5,0.3c-0.1,0-0.1,0.1-0.1,0.1c0,0,0.1,0,0.1,0c0.2-0.1,0.3-0.1,0.4,0c0.1,0.1,0.1,0.2,0.5,0.7l0.4,0.6
		c0.1,0.2,0.2,0.4,0.3,0.5c0.3,0.4,0.3,0.4,0.1,0.6c0,0-0.1,0.1,0,0.1c0,0,0.1,0,0.1,0c0.1-0.1,0.4-0.2,0.4-0.3
		c0.4-0.2,0.7-0.4,1.1-0.7c0.1-0.1,0.1-0.1,0.1-0.2C41.2,63.3,41,63,41,63"/>
</g>
</svg>
