<!-- Generator: Adobe Illustrator 19.1.0, SVG Export Plug-In  -->
<svg version="1.1"
	 xmlns="http://www.w3.org/2000/svg" xmlns:xlink="http://www.w3.org/1999/xlink" xmlns:a="http://ns.adobe.com/AdobeSVGViewerExtensions/3.0/"
	 x="0px" y="0px" width="19.5px" height="19.5px" viewBox="0 0 19.5 19.5" enable-background="new 0 0 19.5 19.5"
	 xml:space="preserve">
<defs>
</defs>
<g>
	<path d="M0.3,6.5h4v13h-4V6.5z M2.3,0c1.3,0,2.3,1,2.3,2.3c0,1.3-1,2.3-2.3,2.3C1,4.7,0,3.6,0,2.3C0,1,1,0,2.3,0
		 M6.9,19.5h4V13c0-1.7,0.3-3.3,2.4-3.3c2.1,0,2.1,1.9,2.1,3.4v6.3h4v-7.1c0-3.5-0.8-6.2-4.8-6.2c-2,0-3.3,1.1-3.8,2.1h-0.1V6.5H6.9
		V19.5z"/>
</g>
</svg>
