<!-- Generator: Adobe Illustrator 19.1.0, SVG Export Plug-In  -->
<svg version="1.1"
	 xmlns="http://www.w3.org/2000/svg" xmlns:xlink="http://www.w3.org/1999/xlink" xmlns:a="http://ns.adobe.com/AdobeSVGViewerExtensions/3.0/"
	 x="0px" y="0px" width="21.3px" height="21.3px" viewBox="0 0 21.3 21.3" enable-background="new 0 0 21.3 21.3"
	 xml:space="preserve">
<defs>
</defs>
<g>
	<g>
		<path fill="#FFFFFF" d="M10.7,21.3C4.8,21.3,0,16.5,0,10.7C0,4.8,4.8,0,10.7,0s10.7,4.8,10.7,10.7C21.3,16.5,16.5,21.3,10.7,21.3z
			 M10.7,0.9c-5.4,0-9.7,4.4-9.7,9.7c0,5.4,4.4,9.7,9.7,9.7c5.4,0,9.7-4.4,9.7-9.7C20.4,5.3,16,0.9,10.7,0.9z"/>
	</g>
	<g>
		<rect x="4.7" y="7.5" fill="#FFFFFF" width="12" height="0.9"/>
	</g>
	<g>
		<rect x="4.7" y="10.2" fill="#FFFFFF" width="12" height="0.9"/>
	</g>
	<g>
		<rect x="4.7" y="13" fill="#FFFFFF" width="12" height="0.9"/>
	</g>
</g>
</svg>
