<!-- Generator: Adobe Illustrator 19.1.0, SVG Export Plug-In  -->
<svg version="1.1"
	 xmlns="http://www.w3.org/2000/svg" xmlns:xlink="http://www.w3.org/1999/xlink" xmlns:a="http://ns.adobe.com/AdobeSVGViewerExtensions/3.0/"
	 x="0px" y="0px" width="22.4px" height="25.6px" viewBox="0 0 22.4 25.6" enable-background="new 0 0 22.4 25.6"
	 xml:space="preserve">
<defs>
</defs>
<g>
	<path fill="#3278E6" d="M17,9.6h-3.4l-2.4,3.5L8.8,9.6H5.4l4.1,6.1l-4.6,6.7h6.6l-0.3-1.7H9.7l1.5-2.4l2.8,4.2h3.5l-4.6-6.7L17,9.6
		z M21,5l-3.6-3.6C16.7,0.6,15.1,0,14,0H2C0.9,0,0,0.9,0,2v21.6c0,1.1,0.9,2,2,2h18.4c1.1,0,2-0.9,2-2V8.4C22.4,7.3,21.8,5.8,21,5z
		 M19.9,6.1C20,6.2,20,6.3,20.1,6.4H16V2.3c0.1,0.1,0.2,0.2,0.3,0.2L19.9,6.1z M20.8,23.6c0,0.2-0.2,0.4-0.4,0.4H2
		c-0.2,0-0.4-0.2-0.4-0.4V2c0-0.2,0.2-0.4,0.4-0.4h12c0.1,0,0.3,0,0.4,0V8h6.4c0,0.1,0,0.3,0,0.4V23.6z"/>
</g>
</svg>
