<!-- Generator: Adobe Illustrator 19.1.0, SVG Export Plug-In  -->
<svg version="1.1"
	 xmlns="http://www.w3.org/2000/svg" xmlns:xlink="http://www.w3.org/1999/xlink" xmlns:a="http://ns.adobe.com/AdobeSVGViewerExtensions/3.0/"
	 x="0px" y="0px" width="14.2px" height="11.8px" viewBox="0 0 14.2 11.8" enable-background="new 0 0 14.2 11.8"
	 xml:space="preserve">
<defs>
</defs>
<g>
	<g>
		<path fill="#FFFFFF" d="M10.6,9.7c-0.3,0-0.5,0.2-0.5,0.5v0.5h-9V4.3h1.4C2.8,4.3,3,4.1,3,3.8S2.8,3.3,2.5,3.3H0.5
			C0.2,3.3,0,3.5,0,3.8v7.5c0,0.3,0.2,0.5,0.5,0.5h10.1c0.3,0,0.5-0.2,0.5-0.5v-1.1C11.1,9.9,10.9,9.7,10.6,9.7z"/>
		<path fill="#FFFFFF" d="M14,4.1l-3.9-3.9C9.7-0.2,9.2,0.1,9.2,0.5v1.7C7.2,2.4,5.6,3,4.4,4.2C2.7,5.9,2.7,8.2,2.7,8.3
			c0,0.3,0.2,0.5,0.5,0.5c0.2,0,0.4-0.1,0.4-0.3c1-1.8,3.6-2.1,5.1-2.1h0.4v1.8c0,0.4,0.6,0.7,0.9,0.4L14,4.8
			c0.1-0.1,0.1-0.3,0.1-0.4C14.2,4.3,14.1,4.2,14,4.1z M10.3,7v-1c0-0.3-0.2-0.5-0.5-0.5c0,0-0.4-0.1-1-0.1c-1.3,0-3.2,0.2-4.7,1.2
			c0.2-0.6,0.6-1.2,1.1-1.7c1-1,2.6-1.6,4.6-1.6c0.3,0,0.5-0.2,0.5-0.5v-1l2.6,2.6L10.3,7z"/>
	</g>
</g>
</svg>
