<!-- Generator: Adobe Illustrator 19.1.0, SVG Export Plug-In  -->
<svg version="1.1"
	 xmlns="http://www.w3.org/2000/svg" xmlns:xlink="http://www.w3.org/1999/xlink" xmlns:a="http://ns.adobe.com/AdobeSVGViewerExtensions/3.0/"
	 x="0px" y="0px" width="9.7px" height="7.3px" viewBox="0 0 9.7 7.3" enable-background="new 0 0 9.7 7.3" xml:space="preserve">
<defs>
</defs>
<g>
	<path d="M0.3,0h9.1c0.5,0,0.2,0.6,0,0.8c-0.3,0.2-3.9,2.4-4,2.4C5.2,3.3,5,3.3,4.8,3.3
		c-0.2,0-0.4,0-0.5-0.1c-0.1-0.1-3.8-2.3-4-2.4C0,0.6-0.2,0,0.3,0z"/>
	<path d="M9.7,6.6c0,0.3-0.3,0.6-0.5,0.6H0.5C0.3,7.3,0,6.9,0,6.6c0,0,0-4.3,0-4.4C0,2.1,0,2,0.2,2.1
		c0.3,0.2,3.9,2.3,4.1,2.4c0.2,0.1,0.3,0.1,0.5,0.1c0.2,0,0.3,0,0.5-0.1s3.9-2.3,4.2-2.4c0.2-0.1,0.2,0,0.2,0.1
		C9.7,2.4,9.7,6.6,9.7,6.6z"/>
</g>
</svg>
