<!-- Generator: Adobe Illustrator 19.1.0, SVG Export Plug-In  -->
<svg version="1.1"
	 xmlns="http://www.w3.org/2000/svg" xmlns:xlink="http://www.w3.org/1999/xlink" xmlns:a="http://ns.adobe.com/AdobeSVGViewerExtensions/3.0/"
	 x="0px" y="0px" width="16px" height="16px" viewBox="0 0 16 16" enable-background="new 0 0 16 16" xml:space="preserve">
<defs>
</defs>
<g>
	<path d="M2.1,0h11.9C15.1,0,16,0.8,16,2.1v11.9c0,1.2-0.9,2.1-2.1,2.1H2.1C0.9,16,0,15.2,0,13.9V2.1
		C0,0.8,0.9,0,2.1,0L2.1,0z M11.7,1.8c-0.4,0-0.7,0.3-0.7,0.7v1.7c0,0.4,0.3,0.7,0.7,0.7h1.8c0.4,0,0.7-0.3,0.7-0.7V2.5
		c0-0.4-0.3-0.7-0.7-0.7H11.7L11.7,1.8z M14.2,6.8h-1.4C12.9,7.2,13,7.7,13,8.1c0,2.7-2.2,4.8-5,4.8c-2.7,0-5-2.2-5-4.8
		c0-0.5,0.1-0.9,0.2-1.4H1.8v6.8c0,0.3,0.3,0.6,0.6,0.6h11.1c0.3,0,0.6-0.3,0.6-0.6L14.2,6.8L14.2,6.8z M8,4.9
		C6.2,4.9,4.8,6.2,4.8,8s1.4,3.1,3.2,3.1c1.8,0,3.2-1.4,3.2-3.1S9.8,4.9,8,4.9z"/>
</g>
</svg>
