<!-- Generator: Adobe Illustrator 19.1.0, SVG Export Plug-In  -->
<svg version="1.1"
	 xmlns="http://www.w3.org/2000/svg" xmlns:xlink="http://www.w3.org/1999/xlink" xmlns:a="http://ns.adobe.com/AdobeSVGViewerExtensions/3.0/"
	 x="0px" y="0px" width="20px" height="20px" viewBox="0 0 20 20" enable-background="new 0 0 20 20" xml:space="preserve">
<defs>
</defs>
<g>
	<g>
		<g>
			<polygon points="6.9,11.9 1.7,17.2 1.7,13.3 0,13.3 0,20 6.7,20 6.7,18.3 2.9,18.3 8.2,13.1 			"/>
			<polygon points="18.3,17.2 2.8,1.7 6.7,1.7 6.7,0 0,0 0,6.7 1.7,6.7 1.7,2.8 17.2,18.3 13.3,18.3 13.3,20 20,20 
				20,13.3 18.3,13.3 			"/>
			<polygon points="13.3,0 13.3,1.7 17.3,1.7 12,6.9 13.2,8.1 18.3,2.9 18.3,6.7 20,6.7 20,0 			"/>
		</g>
	</g>
</g>
</svg>
