<!-- Generator: Adobe Illustrator 19.1.0, SVG Export Plug-In  -->
<svg version="1.1"
	 xmlns="http://www.w3.org/2000/svg" xmlns:xlink="http://www.w3.org/1999/xlink" xmlns:a="http://ns.adobe.com/AdobeSVGViewerExtensions/3.0/"
	 x="0px" y="0px" width="22.4px" height="25.6px" viewBox="0 0 22.4 25.6" enable-background="new 0 0 22.4 25.6"
	 xml:space="preserve">
<defs>
</defs>
<g>
	<path fill="#3278E6" d="M19.5,14.8c-0.3-0.3-1.1-0.5-2.3-0.5c-0.8,0-1.7,0.1-2.7,0.2c-0.4-0.3-0.9-0.5-1.3-0.9
		c-1-0.9-1.8-2.1-2.3-3.5c0-0.1,0.1-0.2,0.1-0.4c0,0,0.5-3.1,0.4-4.1c0-0.1,0-0.2-0.1-0.3l0-0.1c-0.1-0.3-0.4-0.7-0.9-0.7l-0.3,0
		l0,0c-0.5,0-0.9,0.3-1,0.6c-0.3,1.2,0,3,0.6,5.4l-0.2,0.4c-0.4,1.1-1,2.2-1.5,3.1l-0.1,0.1c-0.5,1-1,1.9-1.4,2.6l-0.4,0.2
		c0,0-0.8,0.4-1,0.5c-1.5,0.9-2.5,1.9-2.6,2.7c-0.1,0.3,0,0.6,0.3,0.7L3.4,21c0.2,0.1,0.4,0.1,0.6,0.1c1.1,0,2.3-1.3,4-4.3
		c2-0.6,4.2-1.2,6.1-1.5c1.5,0.8,3.3,1.4,4.5,1.4c0.2,0,0.4,0,0.5-0.1c0.2-0.1,0.4-0.2,0.5-0.4c0.2-0.3,0.3-0.8,0.2-1.3
		C19.7,15,19.6,14.9,19.5,14.8z M3.7,20.4c0.2-0.5,1-1.6,2.1-2.5c0.1-0.1,0.2-0.2,0.4-0.4C5,19.4,4.2,20.1,3.7,20.4z M10.4,5
		c0.3,0,0.5,0.9,0.5,1.7c0,0.8-0.2,1.4-0.4,1.8c-0.2-0.6-0.3-1.6-0.3-2.2C10.2,6.2,10.2,5,10.4,5z M8.4,16c0.2-0.4,0.5-0.9,0.7-1.3
		c0.6-1.2,1-2.1,1.3-2.8c0.6,1,1.3,1.9,2.1,2.6c0.1,0.1,0.2,0.2,0.3,0.3C11.2,15,9.7,15.5,8.4,16z M19.1,15.9
		C19,15.9,18.7,16,18.5,16c-0.6,0-1.4-0.3-2.5-0.7c0.4,0,0.8,0,1.1,0c0.6,0,0.8,0,1.4,0.2S19.2,15.8,19.1,15.9z M21,5l-3.6-3.6
		C16.7,0.6,15.1,0,14,0H2C0.9,0,0,0.9,0,2v21.6c0,1.1,0.9,2,2,2h18.4c1.1,0,2-0.9,2-2V8.4C22.4,7.3,21.8,5.8,21,5z M19.9,6.1
		C20,6.2,20,6.3,20.1,6.4H16V2.3c0.1,0.1,0.2,0.2,0.3,0.2L19.9,6.1z M20.8,23.6c0,0.2-0.2,0.4-0.4,0.4H2c-0.2,0-0.4-0.2-0.4-0.4V2
		c0-0.2,0.2-0.4,0.4-0.4h12c0.1,0,0.3,0,0.4,0V8h6.4c0,0.1,0,0.3,0,0.4V23.6z"/>
</g>
</svg>
