<svg xmlns="http://www.w3.org/2000/svg" width="54.9px" height="53px" viewBox="0 0 54.9 53"><polygon fill="#FFFFFF" points="23.9,13.2 23.8,18.6 24,24.1 23.7,29.5 23.9,34.9 23.5,40.4 24.7,40.8 28.1,37.4 31.6,34.2  34.7,30.5 38.1,27.2 38.3,26.4 34.7,23.2 31.2,19.9 28.2,16.1 24.8,12.7 	"/><path fill="none" stroke="#FFFFFF" stroke-width="4" stroke-linecap="round" stroke-linejoin="round" stroke-miterlimit="10" d="M52.9,26.8c0-6.5-3.6-13.3-7.8-17.5S34.1,2,27.6,2S13.9,4.6,9.7,8.9S2,20.3,2,26.8s4.1,13,8.4,17.2s10.7,7,17.2,7s12.7-3,16.9-7.3 S52.9,33.3,52.9,26.8z"/></svg>
