<svg style="display: none;"><symbol viewBox="0 0 16 16" id="shape-cerrar"><title>cerrar</title>  <g> <g> <path d="M8,11.6L3.6,16L0,12.4L4.4,8L0,3.6L3.6,0L8,4.4L12.4,0L16,3.6L11.6,8l4.4,4.4L12.4,16L8,11.6z"/> </g> </g> </symbol><symbol viewBox="0 0 7.2 13.9" id="shape-flex-next"><title>flex-next</title>  <g> <path fill="#FFFFFF" d="M0,0h1.9l5.3,6.8v0.3l-5.3,6.8H0l5-7L0,0z"/> </g> </symbol><symbol viewBox="0 0 7.2 13.9" id="shape-flex-prev"><title>flex-prev</title>  <g> <path fill="#FFFFFF" d="M7.2,13.9H5.3L0,7.1V6.8L5.3,0h1.9l-5,7L7.2,13.9z"/> </g> </symbol><symbol viewBox="0 0 22.4 25.6" id="shape-icon-excel"><title>icon-excel</title>  <g> <path fill="#3278E6" d="M17,9.6h-3.4l-2.4,3.5L8.8,9.6H5.4l4.1,6.1l-4.6,6.7h6.6l-0.3-1.7H9.7l1.5-2.4l2.8,4.2h3.5l-4.6-6.7L17,9.6
		z M21,5l-3.6-3.6C16.7,0.6,15.1,0,14,0H2C0.9,0,0,0.9,0,2v21.6c0,1.1,0.9,2,2,2h18.4c1.1,0,2-0.9,2-2V8.4C22.4,7.3,21.8,5.8,21,5z
		 M19.9,6.1C20,6.2,20,6.3,20.1,6.4H16V2.3c0.1,0.1,0.2,0.2,0.3,0.2L19.9,6.1z M20.8,23.6c0,0.2-0.2,0.4-0.4,0.4H2
		c-0.2,0-0.4-0.2-0.4-0.4V2c0-0.2,0.2-0.4,0.4-0.4h12c0.1,0,0.3,0,0.4,0V8h6.4c0,0.1,0,0.3,0,0.4V23.6z"/> </g> </symbol><symbol viewBox="0 0 7.8 16" id="shape-icon-facebook"><title>icon-facebook</title>  <path d="M2,16V8.5H0V5.8h2c0,0,0-1.1,0-2.3C2,1.7,3.2,0,5.9,0C7,0,7.8,0.1,7.8,0.1L7.7,2.6
	c0,0-0.8,0-1.7,0c-1,0-1.1,0.4-1.1,1.2c0,0.6,0-1.3,0,2h2.9L7.6,8.5H4.8V16H2z"/> </symbol><symbol viewBox="0 0 16 7" id="shape-icon-flickr-gray"><title>icon-flickr-gray</title>  <g> <circle cx="3.5" cy="3.5" r="3.5"/> <circle cx="12.5" cy="3.5" r="3.5"/> </g> </symbol><symbol viewBox="0 0 16 7" id="shape-icon-flickr"><title>icon-flickr</title>  <g> <circle fill="#0062DE" cx="3.5" cy="3.5" r="3.5"/> <circle fill="#FF0084" cx="12.5" cy="3.5" r="3.5"/> </g> </symbol><symbol viewBox="0 0 20 20" id="shape-icon-fullscreen"><title>icon-fullscreen</title>  <g> <g> <g> <polygon points="6.9,11.9 1.7,17.2 1.7,13.3 0,13.3 0,20 6.7,20 6.7,18.3 2.9,18.3 8.2,13.1 			"/> <polygon points="18.3,17.2 2.8,1.7 6.7,1.7 6.7,0 0,0 0,6.7 1.7,6.7 1.7,2.8 17.2,18.3 13.3,18.3 13.3,20 20,20 
				20,13.3 18.3,13.3 			"/> <polygon points="13.3,0 13.3,1.7 17.3,1.7 12,6.9 13.2,8.1 18.3,2.9 18.3,6.7 20,6.7 20,0 			"/> </g> </g> </g> </symbol><symbol viewBox="0 0 15.7 14.1" id="shape-icon-gal-next"><title>icon-gal-next</title>  <polygon points="8.7,0 6.9,1.8 11.1,5.9 0,5.9 0,8.3 10.9,8.3 6.9,12.3 8.7,14.1 15.7,7 "/> </symbol><symbol viewBox="0 0 15.9 14.1" id="shape-icon-gal-prev"><title>icon-gal-prev</title>  <polygon points="15.8,5.8 4.7,5.8 8.8,1.8 7,0 0,7 7,14.1 8.8,12.3 4.8,8.3 15.9,8.3 "/> </symbol><symbol viewBox="0 0 21.3 21.3" id="shape-icon-ham"><title>icon-ham</title>  <g> <g> <path fill="#FFFFFF" d="M10.7,21.3C4.8,21.3,0,16.5,0,10.7C0,4.8,4.8,0,10.7,0s10.7,4.8,10.7,10.7C21.3,16.5,16.5,21.3,10.7,21.3z
			 M10.7,0.9c-5.4,0-9.7,4.4-9.7,9.7c0,5.4,4.4,9.7,9.7,9.7c5.4,0,9.7-4.4,9.7-9.7C20.4,5.3,16,0.9,10.7,0.9z"/> </g> <g> <rect x="4.7" y="7.5" fill="#FFFFFF" width="12" height="0.9"/> </g> <g> <rect x="4.7" y="10.2" fill="#FFFFFF" width="12" height="0.9"/> </g> <g> <rect x="4.7" y="13" fill="#FFFFFF" width="12" height="0.9"/> </g> </g> </symbol><symbol viewBox="0 0 16 16" id="shape-icon-instagram"><title>icon-instagram</title>  <g> <path d="M2.1,0h11.9C15.1,0,16,0.8,16,2.1v11.9c0,1.2-0.9,2.1-2.1,2.1H2.1C0.9,16,0,15.2,0,13.9V2.1
		C0,0.8,0.9,0,2.1,0L2.1,0z M11.7,1.8c-0.4,0-0.7,0.3-0.7,0.7v1.7c0,0.4,0.3,0.7,0.7,0.7h1.8c0.4,0,0.7-0.3,0.7-0.7V2.5
		c0-0.4-0.3-0.7-0.7-0.7H11.7L11.7,1.8z M14.2,6.8h-1.4C12.9,7.2,13,7.7,13,8.1c0,2.7-2.2,4.8-5,4.8c-2.7,0-5-2.2-5-4.8
		c0-0.5,0.1-0.9,0.2-1.4H1.8v6.8c0,0.3,0.3,0.6,0.6,0.6h11.1c0.3,0,0.6-0.3,0.6-0.6L14.2,6.8L14.2,6.8z M8,4.9
		C6.2,4.9,4.8,6.2,4.8,8s1.4,3.1,3.2,3.1c1.8,0,3.2-1.4,3.2-3.1S9.8,4.9,8,4.9z"/> </g> </symbol><symbol viewBox="0 0 25 25" id="shape-icon-less-blue"><title>icon-less-blue</title>  <g> <path fill="#3278e6" d="M15.1,13.5H9.9v-1.9h5.1V13.5z"/> </g> <circle fill="none" stroke="#3278e6" stroke-miterlimit="10" cx="12.5" cy="12.5" r="12"/> </symbol><symbol viewBox="0 0 25 25" id="shape-icon-less"><title>icon-less</title>  <g> <path fill="#B9B9B6" d="M15.1,13.5H9.9v-1.9h5.1V13.5z"/> </g> <circle fill="none" stroke="#B9B9B6" stroke-miterlimit="10" cx="12.5" cy="12.5" r="12"/> </symbol><symbol viewBox="0 0 19.5 19.5" id="shape-icon-linkedin"><title>icon-linkedin</title>  <g> <path d="M0.3,6.5h4v13h-4V6.5z M2.3,0c1.3,0,2.3,1,2.3,2.3c0,1.3-1,2.3-2.3,2.3C1,4.7,0,3.6,0,2.3C0,1,1,0,2.3,0
		 M6.9,19.5h4V13c0-1.7,0.3-3.3,2.4-3.3c2.1,0,2.1,1.9,2.1,3.4v6.3h4v-7.1c0-3.5-0.8-6.2-4.8-6.2c-2,0-3.3,1.1-3.8,2.1h-0.1V6.5H6.9
		V19.5z"/> </g> </symbol><symbol viewBox="0 0 13.5 14" id="shape-icon-lupa"><title>icon-lupa</title>  <g> <g> <g> <path d="M5.6,0C2.5,0,0,2.5,0,5.6c0,3.1,2.5,5.6,5.6,5.6c3.1,0,5.6-2.5,5.6-5.6C11.2,2.5,8.7,0,5.6,0z M5.6,10.5
				c-2.7,0-4.9-2.2-4.9-4.9c0-2.7,2.2-4.9,4.9-4.9c2.7,0,4.9,2.2,4.9,4.9C10.5,8.3,8.3,10.5,5.6,10.5z"/> </g> </g> <path d="M13.3,13.7L13.3,13.7c-0.3,0.3-0.9,0.3-1.2,0l-2.8-2.8c-0.3-0.3-0.3-0.9,0-1.2l0,0c0.3-0.3,0.9-0.3,1.2,0
		l2.8,2.8C13.6,12.9,13.6,13.4,13.3,13.7z"/> </g> </symbol><symbol viewBox="0 0 9.7 7.3" id="shape-icon-mail"><title>icon-mail</title>  <g> <path d="M0.3,0h9.1c0.5,0,0.2,0.6,0,0.8c-0.3,0.2-3.9,2.4-4,2.4C5.2,3.3,5,3.3,4.8,3.3
		c-0.2,0-0.4,0-0.5-0.1c-0.1-0.1-3.8-2.3-4-2.4C0,0.6-0.2,0,0.3,0z"/> <path d="M9.7,6.6c0,0.3-0.3,0.6-0.5,0.6H0.5C0.3,7.3,0,6.9,0,6.6c0,0,0-4.3,0-4.4C0,2.1,0,2,0.2,2.1
		c0.3,0.2,3.9,2.3,4.1,2.4c0.2,0.1,0.3,0.1,0.5,0.1c0.2,0,0.3,0,0.5-0.1s3.9-2.3,4.2-2.4c0.2-0.1,0.2,0,0.2,0.1
		C9.7,2.4,9.7,6.6,9.7,6.6z"/> </g> </symbol><symbol viewBox="0 0 46.2 46.2" id="shape-icon-menu"><title>icon-menu</title>  <g> <circle fill="none" stroke="#F6C921" stroke-width="2" stroke-miterlimit="10" cx="23.1" cy="23.1" r="22.1"/> <line fill="none" stroke="#F6C921" stroke-width="2" stroke-miterlimit="10" x1="10.1" y1="17.2" x2="36.1" y2="17.2"/> <line fill="none" stroke="#F6C921" stroke-width="2" stroke-miterlimit="10" x1="10.1" y1="23.1" x2="36.1" y2="23.1"/> <line fill="none" stroke="#F6C921" stroke-width="2" stroke-miterlimit="10" x1="10.1" y1="29.1" x2="36.1" y2="29.1"/> </g> </symbol><symbol viewBox="0 0 25 25" id="shape-icon-more-blue"><title>icon-more-blue</title>  <g> <g> <path fill="#3278e6" d="M13.6,11.9h3.7v2.2h-3.7v4.2h-2.3v-4.2H7.6v-2.2h3.7v-4h2.3V11.9z"/> </g> <circle fill="none" stroke="#3278e6" stroke-miterlimit="10" cx="12.5" cy="12.5" r="12"/> </g> </symbol><symbol viewBox="0 0 25 25" id="shape-icon-more"><title>icon-more</title>  <g> <g> <path fill="#B9B9B6" d="M13.6,11.9h3.7v2.2h-3.7v4.2h-2.3v-4.2H7.6v-2.2h3.7v-4h2.3V11.9z"/> </g> <circle fill="none" stroke="#B9B9B6" stroke-miterlimit="10" cx="12.5" cy="12.5" r="12"/> </g> </symbol><symbol viewBox="0 0 22.4 25.6" id="shape-icon-reader"><title>icon-reader</title>  <g> <path fill="#3278E6" d="M19.5,14.8c-0.3-0.3-1.1-0.5-2.3-0.5c-0.8,0-1.7,0.1-2.7,0.2c-0.4-0.3-0.9-0.5-1.3-0.9
		c-1-0.9-1.8-2.1-2.3-3.5c0-0.1,0.1-0.2,0.1-0.4c0,0,0.5-3.1,0.4-4.1c0-0.1,0-0.2-0.1-0.3l0-0.1c-0.1-0.3-0.4-0.7-0.9-0.7l-0.3,0
		l0,0c-0.5,0-0.9,0.3-1,0.6c-0.3,1.2,0,3,0.6,5.4l-0.2,0.4c-0.4,1.1-1,2.2-1.5,3.1l-0.1,0.1c-0.5,1-1,1.9-1.4,2.6l-0.4,0.2
		c0,0-0.8,0.4-1,0.5c-1.5,0.9-2.5,1.9-2.6,2.7c-0.1,0.3,0,0.6,0.3,0.7L3.4,21c0.2,0.1,0.4,0.1,0.6,0.1c1.1,0,2.3-1.3,4-4.3
		c2-0.6,4.2-1.2,6.1-1.5c1.5,0.8,3.3,1.4,4.5,1.4c0.2,0,0.4,0,0.5-0.1c0.2-0.1,0.4-0.2,0.5-0.4c0.2-0.3,0.3-0.8,0.2-1.3
		C19.7,15,19.6,14.9,19.5,14.8z M3.7,20.4c0.2-0.5,1-1.6,2.1-2.5c0.1-0.1,0.2-0.2,0.4-0.4C5,19.4,4.2,20.1,3.7,20.4z M10.4,5
		c0.3,0,0.5,0.9,0.5,1.7c0,0.8-0.2,1.4-0.4,1.8c-0.2-0.6-0.3-1.6-0.3-2.2C10.2,6.2,10.2,5,10.4,5z M8.4,16c0.2-0.4,0.5-0.9,0.7-1.3
		c0.6-1.2,1-2.1,1.3-2.8c0.6,1,1.3,1.9,2.1,2.6c0.1,0.1,0.2,0.2,0.3,0.3C11.2,15,9.7,15.5,8.4,16z M19.1,15.9
		C19,15.9,18.7,16,18.5,16c-0.6,0-1.4-0.3-2.5-0.7c0.4,0,0.8,0,1.1,0c0.6,0,0.8,0,1.4,0.2S19.2,15.8,19.1,15.9z M21,5l-3.6-3.6
		C16.7,0.6,15.1,0,14,0H2C0.9,0,0,0.9,0,2v21.6c0,1.1,0.9,2,2,2h18.4c1.1,0,2-0.9,2-2V8.4C22.4,7.3,21.8,5.8,21,5z M19.9,6.1
		C20,6.2,20,6.3,20.1,6.4H16V2.3c0.1,0.1,0.2,0.2,0.3,0.2L19.9,6.1z M20.8,23.6c0,0.2-0.2,0.4-0.4,0.4H2c-0.2,0-0.4-0.2-0.4-0.4V2
		c0-0.2,0.2-0.4,0.4-0.4h12c0.1,0,0.3,0,0.4,0V8h6.4c0,0.1,0,0.3,0,0.4V23.6z"/> </g> </symbol><symbol viewBox="0 0 14.2 11.8" id="shape-icon-share"><title>icon-share</title>  <g> <g> <path fill="#FFFFFF" d="M10.6,9.7c-0.3,0-0.5,0.2-0.5,0.5v0.5h-9V4.3h1.4C2.8,4.3,3,4.1,3,3.8S2.8,3.3,2.5,3.3H0.5
			C0.2,3.3,0,3.5,0,3.8v7.5c0,0.3,0.2,0.5,0.5,0.5h10.1c0.3,0,0.5-0.2,0.5-0.5v-1.1C11.1,9.9,10.9,9.7,10.6,9.7z"/> <path fill="#FFFFFF" d="M14,4.1l-3.9-3.9C9.7-0.2,9.2,0.1,9.2,0.5v1.7C7.2,2.4,5.6,3,4.4,4.2C2.7,5.9,2.7,8.2,2.7,8.3
			c0,0.3,0.2,0.5,0.5,0.5c0.2,0,0.4-0.1,0.4-0.3c1-1.8,3.6-2.1,5.1-2.1h0.4v1.8c0,0.4,0.6,0.7,0.9,0.4L14,4.8
			c0.1-0.1,0.1-0.3,0.1-0.4C14.2,4.3,14.1,4.2,14,4.1z M10.3,7v-1c0-0.3-0.2-0.5-0.5-0.5c0,0-0.4-0.1-1-0.1c-1.3,0-3.2,0.2-4.7,1.2
			c0.2-0.6,0.6-1.2,1.1-1.7c1-1,2.6-1.6,4.6-1.6c0.3,0,0.5-0.2,0.5-0.5v-1l2.6,2.6L10.3,7z"/> </g> </g> </symbol><symbol viewBox="0 0 16 13" id="shape-icon-twitter"><title>icon-twitter</title>  <path d="M16,1.5c-0.6,0.3-1.2,0.4-1.9,0.5c0.7-0.4,1.2-1,1.4-1.8c-0.6,0.4-1.3,0.6-2.1,0.8
	c-0.6-0.6-1.5-1-2.4-1C9.3,0,7.8,1.5,7.8,3.3c0,0.3,0,0.5,0.1,0.7C5.2,3.9,2.7,2.6,1.1,0.6c-0.3,0.5-0.4,1-0.4,1.7
	c0,1.1,0.6,2.1,1.5,2.7c-0.5,0-1-0.2-1.5-0.4c0,0,0,0,0,0c0,1.6,1.1,2.9,2.6,3.2C3,7.9,2.7,7.9,2.4,7.9c-0.2,0-0.4,0-0.6-0.1
	c0.4,1.3,1.6,2.3,3.1,2.3c-1.1,0.9-2.5,1.4-4.1,1.4c-0.3,0-0.5,0-0.8,0C1.5,12.5,3.2,13,5,13c6,0,9.3-5,9.3-9.3c0-0.1,0-0.3,0-0.4
	C15,2.8,15.6,2.2,16,1.5z"/> </symbol><symbol viewBox="0 0 54.9 53" id="shape-play"><title>play</title><polygon fill="#FFFFFF" points="23.9,13.2 23.8,18.6 24,24.1 23.7,29.5 23.9,34.9 23.5,40.4 24.7,40.8 28.1,37.4 31.6,34.2  34.7,30.5 38.1,27.2 38.3,26.4 34.7,23.2 31.2,19.9 28.2,16.1 24.8,12.7 	"/><path fill="none" stroke="#FFFFFF" stroke-width="4" stroke-linecap="round" stroke-linejoin="round" stroke-miterlimit="10" d="M52.9,26.8c0-6.5-3.6-13.3-7.8-17.5S34.1,2,27.6,2S13.9,4.6,9.7,8.9S2,20.3,2,26.8s4.1,13,8.4,17.2s10.7,7,17.2,7s12.7-3,16.9-7.3 S52.9,33.3,52.9,26.8z"/></symbol></svg>